<svg width="33" height="8" viewBox="0 0 33 8" fill="none" xmlns="http://www.w3.org/2000/svg">
<path d="M0.120911 2.96567C0.120911 2.96567 0.543007 4.06708 0.239625 5.37294C0.239625 5.37294 4.49356 6.14238 6.05004 6.39081C7.60652 6.63923 13.7181 7.97366 13.7181 7.97366C13.7181 7.97366 14.3469 7.46583 15.1713 7.00636C15.9957 6.54689 19.2691 4.65625 19.2691 4.65625C19.2691 4.65625 19.1988 4.27153 19.2933 3.7615C19.3527 3.44053 19.3461 2.89752 19.4076 2.50181C19.4384 2.30395 19.4494 2.16545 19.4494 2.16545L5.86317 0.158295L0.120911 2.96567Z" fill="url(#paint0_radial_51_126)"/>
<path style="mix-blend-mode:multiply" d="M1.84007 3.11736C3.30422 3.26466 9.96542 4.57491 11.1526 4.731C12.3397 4.88709 13.54 5.23664 13.54 5.23664C13.9885 4.85411 16.1166 3.7549 16.8157 3.40975C17.5148 3.0624 19.4494 2.16545 19.4494 2.16545L5.86317 0.158295L0.120911 2.96567C0.120911 2.96567 0.375927 2.97007 1.84007 3.11736Z" fill="url(#paint1_radial_51_126)"/>
<g style="mix-blend-mode:multiply">
<path d="M19.4516 2.16764C18.2007 2.7722 16.941 3.35478 15.7099 3.99892C15.2878 4.21876 14.8679 4.443 14.4524 4.67603C14.2633 4.78375 14.0721 4.89148 13.8896 5.00799C13.7159 5.11571 13.6214 5.2696 13.4213 5.21244C12.4804 4.94863 11.5263 4.79914 10.5634 4.64525C9.83791 4.52874 9.11463 4.39683 8.39135 4.26493C7.28994 4.06487 6.19074 3.86262 5.08933 3.66696C4.30889 3.52846 3.52845 3.38996 2.74802 3.25805C1.87744 3.11076 0.991481 3.07119 0.125305 2.95907C2.09069 3.0536 4.02749 3.42293 5.9599 3.77468C7.37568 4.03189 8.78707 4.3001 10.2028 4.55512C11.324 4.75737 12.4474 4.90906 13.5466 5.21904C13.8236 4.92445 14.371 4.68043 14.7514 4.46718C15.1976 4.21876 15.6483 3.97693 16.1034 3.7439C16.4683 3.55704 16.8355 3.37677 17.2092 3.20089C17.9391 2.85794 18.6975 2.41166 19.456 2.15884L19.4516 2.16764Z" fill="url(#paint2_linear_51_126)"/>
<path d="M17.2994 3.28884C16.9366 3.46032 16.5783 3.63399 16.2221 3.81646C15.3252 4.27593 14.3425 4.72001 13.5445 5.33996C11.6385 4.81015 9.64229 4.6013 7.69889 4.23416C6.94923 4.09346 6.19957 3.95496 5.44991 3.81646C3.69557 3.4911 1.94783 3.2097 0.169312 3.07999C0.169312 3.07999 0.169312 3.07999 0.169312 3.08219C0.677146 3.15914 1.21796 3.18771 1.73239 3.24048C2.31716 3.29983 2.89974 3.40756 3.47793 3.50429C4.54636 3.68236 5.61479 3.88022 6.68102 4.06928C7.73626 4.25615 8.7893 4.4518 9.84454 4.64526C10.4843 4.76398 11.1262 4.85631 11.766 4.97503C12.2826 5.07176 12.797 5.18827 13.307 5.32238C13.5643 5.39053 13.5181 5.39712 13.7291 5.26082C13.8984 5.14211 14.0787 5.03658 14.259 4.93326C15.9342 3.95057 17.6973 3.13056 19.4428 2.28197C18.7196 2.52819 17.9985 2.95468 17.2994 3.28664V3.28884Z" fill="url(#paint3_linear_51_126)"/>
<path d="M17.3917 3.37237C16.8926 3.612 16.3958 3.85603 15.9056 4.11324C15.1207 4.52434 14.2457 4.91786 13.5489 5.47406C13.107 5.35535 12.6585 5.25642 12.2122 5.15969C10.3282 4.75078 8.40236 4.49357 6.50732 4.13962C4.41663 3.74611 2.33253 3.36798 0.21106 3.2031V3.20749C0.727687 3.28664 1.27509 3.31741 1.80051 3.37237C2.49082 3.44492 3.18112 3.57683 3.86703 3.69994C5.46308 3.98573 7.06352 4.25834 8.65738 4.55732C9.53674 4.7222 10.4205 4.87609 11.2999 5.03438C11.7066 5.10693 12.1111 5.18167 12.5156 5.27181C12.786 5.33116 13.0542 5.39712 13.3224 5.46527C13.5511 5.52243 13.5445 5.53342 13.7357 5.40151C14.9009 4.5903 16.2375 3.97694 17.5104 3.35479C18.1501 3.04261 18.7899 2.72604 19.4318 2.41167C18.7415 2.6491 18.0578 3.0602 17.3895 3.37897L17.3917 3.37237Z" fill="url(#paint4_linear_51_126)"/>
<path d="M17.3917 3.49769C16.8948 3.73732 16.4002 3.98354 15.9121 4.24076C15.1295 4.65406 14.2567 5.04757 13.5598 5.60157C12.5639 5.34216 11.5549 5.16629 10.5392 4.99042C7.11627 4.39684 3.70653 3.60102 0.239624 3.31522C0.239624 3.31522 0.239624 3.31962 0.239624 3.32182C0.868371 3.41855 1.5257 3.44933 2.16104 3.53946C2.97445 3.65378 3.78127 3.80327 4.58809 3.94397C5.98848 4.18799 7.38668 4.43861 8.78487 4.70022C9.64445 4.86071 10.5062 5.0124 11.368 5.17069C11.7747 5.24543 12.1792 5.32238 12.5837 5.41251C12.8409 5.46967 13.096 5.53123 13.351 5.59498C13.6126 5.66313 13.5928 5.61696 13.8302 5.46747C15.0262 4.71122 16.2991 4.06928 17.5653 3.44273C18.1765 3.14155 18.858 2.87994 19.4208 2.5172C18.7437 2.84256 18.0644 3.16793 17.3895 3.49549L17.3917 3.49769Z" fill="url(#paint5_linear_51_126)"/>
<path d="M17.6071 3.51747C16.9871 3.82086 16.3694 4.12644 15.7604 4.454C15.0306 4.84532 14.2193 5.21685 13.5664 5.73348C12.9487 5.57519 12.3243 5.43449 11.6956 5.32237C7.90329 4.65625 4.10443 3.76589 0.263794 3.43174C0.263794 3.43393 0.263794 3.43833 0.263794 3.44053C0.896938 3.53946 1.55646 3.57463 2.194 3.66697C2.85573 3.7637 3.51525 3.88021 4.17478 3.99673C5.19264 4.1748 6.21271 4.35507 7.23058 4.53974C8.46828 4.76398 9.70379 4.99481 10.9415 5.22344C11.368 5.30259 11.7945 5.37074 12.2188 5.46307C12.4606 5.51583 12.7046 5.5664 12.9465 5.62576C13.096 5.66313 13.4081 5.80163 13.5664 5.78184C13.6478 5.77085 13.7731 5.64334 13.839 5.60157C14.0193 5.48945 14.1996 5.38173 14.3842 5.27401C14.7931 5.03658 15.2064 4.80794 15.6241 4.58151C16.2661 4.23196 16.9124 3.8978 17.5653 3.57243C18.1743 3.26905 18.8536 3.00524 19.4142 2.63811C18.8118 2.9305 18.2095 3.22289 17.6071 3.51747Z" fill="url(#paint6_linear_51_126)"/>
<path d="M17.55 3.67136C16.8751 4.00552 16.2024 4.34627 15.5406 4.70681C14.8855 5.06516 14.1622 5.39932 13.5753 5.86318C12.498 5.59058 11.4076 5.40151 10.315 5.20586C6.9844 4.61228 3.66259 3.86042 0.288025 3.55045C0.288025 3.55484 0.288025 3.55704 0.288025 3.56144C1.09045 3.69335 1.92584 3.73511 2.73266 3.87362C3.3746 3.98354 4.01654 4.09565 4.65628 4.20558C6.04568 4.4474 7.43288 4.70022 8.81788 4.95743C9.56974 5.09593 10.3194 5.23663 11.0713 5.37733C11.4934 5.45647 11.9176 5.53122 12.3375 5.62355C12.6101 5.68291 12.8828 5.74667 13.1554 5.81042C13.2653 5.8368 13.4829 5.93133 13.5906 5.90935C13.6566 5.89616 13.7885 5.77085 13.8435 5.73567C14.0215 5.62355 14.204 5.51583 14.3865 5.40811C14.7954 5.17068 15.2087 4.94205 15.622 4.71341C16.2617 4.36386 16.9059 4.0275 17.5566 3.69994C18.1633 3.39436 18.8405 3.12835 19.3989 2.75902C18.7811 3.0624 18.1611 3.36798 17.5434 3.67356L17.55 3.67136Z" fill="url(#paint7_linear_51_126)"/>
<path d="M17.3873 3.87581C16.8443 4.14841 16.3035 4.42322 15.7693 4.71341C15.0438 5.10912 14.2348 5.47846 13.584 5.99289C12.4277 5.6961 11.2493 5.50264 10.0754 5.28939C6.8305 4.70022 3.59443 3.98793 0.3078 3.66696C0.3078 3.67136 0.3078 3.67356 0.3078 3.67795C1.0091 3.79667 1.74117 3.84503 2.45126 3.95275C3.09539 4.04948 3.73513 4.1682 4.37487 4.28032C5.861 4.53753 7.34493 4.80574 8.82886 5.08274C9.58072 5.22344 10.3304 5.36414 11.0822 5.50703C11.5043 5.58618 11.9286 5.66312 12.3485 5.75546C12.6211 5.81481 12.8959 5.87857 13.1685 5.94232C13.2785 5.9687 13.5005 6.06763 13.6038 6.03905C13.65 6.02586 13.7269 5.94892 13.7709 5.92254C14.9405 5.12671 16.2485 4.49796 17.506 3.85383C18.137 3.53066 18.7679 3.20529 19.3966 2.88213C18.7151 3.12835 18.0424 3.55044 17.3851 3.88021L17.3873 3.87581Z" fill="url(#paint8_linear_51_126)"/>
<path d="M17.2246 4.08466C16.5497 4.42762 15.8814 4.78156 15.2196 5.1509C14.6744 5.45647 14.0853 5.73787 13.5928 6.1226C12.4343 5.83021 11.2581 5.63015 10.0841 5.4169C6.84148 4.82333 3.60761 4.11764 0.325378 3.78348C0.325378 3.78788 0.325378 3.79008 0.325378 3.79447C1.05965 3.92198 1.8247 3.97914 2.56556 4.08906C3.2163 4.18799 3.86263 4.3111 4.50896 4.42322C6.10501 4.69802 7.69887 4.99041 9.29052 5.29159C10.049 5.43449 10.8096 5.57959 11.5681 5.72468C11.9638 5.79943 12.3573 5.88297 12.753 5.96871C12.9729 6.01707 13.4917 6.2567 13.6742 6.1204C13.927 5.93133 14.2128 5.78184 14.4854 5.62355C15.4967 5.03878 16.5233 4.48258 17.561 3.94616C18.1611 3.63619 18.836 3.36358 19.3878 2.99205C18.6668 3.35479 17.9435 3.71973 17.2246 4.08466Z" fill="url(#paint9_linear_51_126)"/>
<path d="M17.3851 4.12863C16.8838 4.38584 16.3826 4.64306 15.8902 4.91346C15.1251 5.33336 14.3051 5.73347 13.6016 6.2523C12.2034 5.90275 10.7788 5.66972 9.36306 5.40811C6.36223 4.85411 3.37018 4.22096 0.33197 3.8978C0.33197 3.90219 0.33197 3.90659 0.33197 3.91099C0.90136 4.01431 1.50153 4.04509 2.07531 4.13742C3.02723 4.29351 3.97914 4.45399 4.92886 4.61888C6.51172 4.89368 8.09238 5.18827 9.67084 5.48945C10.3919 5.62795 11.113 5.76645 11.8363 5.90715C12.3243 6.00168 12.808 6.1116 13.2916 6.22592C13.4367 6.26109 13.5598 6.34243 13.683 6.2523C13.7731 6.18635 13.8698 6.13139 13.9644 6.07203C14.3183 5.85878 14.6744 5.64993 15.035 5.44768C15.8704 4.97722 16.7102 4.51775 17.561 4.07367C18.1589 3.76149 18.8316 3.48669 19.3812 3.11296C18.7151 3.45152 18.0512 3.79007 17.3873 4.13083L17.3851 4.12863Z" fill="url(#paint10_linear_51_126)"/>
<path d="M17.3851 4.25615C16.886 4.51556 16.387 4.77498 15.8946 5.04538C15.1295 5.46748 14.3183 5.86979 13.6104 6.38422C12.2122 6.03907 10.7876 5.79944 9.37186 5.53563C6.36662 4.97503 3.37238 4.38366 0.336365 4.01433V4.03191C0.901358 4.15063 1.51252 4.16821 2.08191 4.26275C3.01404 4.41664 3.94397 4.57272 4.8739 4.73321C6.43697 5.00361 7.99785 5.2938 9.55652 5.59279C10.2952 5.73569 11.0339 5.87858 11.7703 6.02368C12.2122 6.10942 12.6519 6.20395 13.0916 6.30727C13.2257 6.33805 13.5027 6.46116 13.6302 6.42599C13.7401 6.34685 13.8544 6.2743 13.9709 6.20395C14.3249 5.9907 14.681 5.78185 15.0394 5.5796C15.8726 5.10914 16.7102 4.64747 17.5566 4.19899C18.1523 3.88462 18.8228 3.60762 19.3703 3.23169C18.7085 3.57244 18.0468 3.9132 17.3851 4.25615Z" fill="url(#paint11_linear_51_126)"/>
<path d="M17.4356 4.35508C16.996 4.58591 16.5541 4.81455 16.121 5.05418C15.2922 5.51145 14.3733 5.94014 13.6192 6.51392C12.5134 6.24352 11.3966 6.04126 10.2776 5.83022C6.97119 5.20806 3.67356 4.54854 0.33197 4.12864C0.33197 4.12864 0.33197 4.12864 0.33197 4.13084C0.33197 4.13524 0.33197 4.13963 0.33197 4.14403C0.85959 4.25615 1.43558 4.27594 1.96979 4.36387C2.83817 4.50897 3.70874 4.65406 4.57711 4.80356C6.32266 5.10474 8.0638 5.42791 9.80275 5.76646C10.504 5.90276 11.2031 6.04126 11.9044 6.17976C12.443 6.28529 12.9795 6.4084 13.5137 6.53811C13.7379 6.59307 14.0061 6.32046 14.2084 6.20175C14.4876 6.03467 14.7668 5.87199 15.0482 5.7137C15.8792 5.24104 16.7146 4.77937 17.5566 4.3265C18.1501 4.00773 18.8185 3.73073 19.3637 3.3504C18.7217 3.68456 18.0776 4.01872 17.4356 4.35508Z" fill="url(#paint12_linear_51_126)"/>
<path d="M17.4005 4.49797C16.9366 4.7442 16.4705 4.98822 16.0111 5.24544C15.2152 5.68732 14.3425 6.10282 13.6148 6.65242C13.6258 6.55569 10.581 6.01708 10.2842 5.95992C6.97778 5.33117 3.67796 4.67824 0.338562 4.24516C0.338562 4.25175 0.338562 4.25615 0.338562 4.26054C0.85519 4.37266 1.42238 4.39465 1.9456 4.48258C2.79419 4.62328 3.64058 4.76618 4.48917 4.91347C6.18635 5.20586 7.87913 5.51584 9.56971 5.8478C10.4095 6.01268 11.2493 6.17976 12.0891 6.35564C12.5552 6.45237 13.019 6.55129 13.4807 6.66122C13.7225 6.71837 13.8544 6.55129 14.0655 6.42599C14.3249 6.2721 14.5843 6.11821 14.8459 5.96652C15.7143 5.46528 16.5893 4.97723 17.4708 4.50017C18.0908 4.16601 18.7833 3.86703 19.3549 3.47131C18.7041 3.81427 18.0534 4.15722 17.4027 4.50237L17.4005 4.49797Z" fill="url(#paint13_linear_51_126)"/>
<path d="M17.4005 4.62548C16.9366 4.8717 16.4727 5.11793 16.0155 5.37514C15.5494 5.63675 15.0855 5.90276 14.6261 6.17097C14.3755 6.31826 13.7599 6.57987 13.6456 6.77773C12.443 6.50732 11.2339 6.2677 10.0226 6.03686C6.80191 5.42131 3.58782 4.79476 0.336365 4.35947C0.336365 4.36387 0.336365 4.37046 0.336365 4.37486C0.877175 4.49577 1.46855 4.52435 2.01595 4.61449C2.69087 4.72881 3.36578 4.84092 4.0385 4.95744C5.72248 5.24763 7.40867 5.54222 9.08386 5.87638C9.79395 6.01708 10.5062 6.15118 11.2141 6.30067C11.5835 6.37762 11.9506 6.45456 12.3199 6.53151C12.5596 6.58207 12.8014 6.63044 13.0388 6.6854C13.1883 6.72057 13.4961 6.85907 13.6434 6.82609C13.7489 6.80411 13.9072 6.65242 14.0039 6.59526C15.7583 5.54662 17.5566 4.58151 19.3439 3.59222C18.6821 3.85823 18.0358 4.28692 17.3983 4.62768L17.4005 4.62548Z" fill="url(#paint14_linear_51_126)"/>
<path d="M17.1411 4.89149C16.3914 5.2938 15.6505 5.7093 14.9163 6.13799C14.7184 6.25451 14.5184 6.36882 14.3205 6.48534C14.138 6.59526 13.7247 6.78432 13.6522 6.90744C12.5376 6.65901 11.4186 6.43258 10.2974 6.21493C6.98218 5.573 3.67137 4.93326 0.327576 4.47159C0.327576 4.47819 0.327576 4.48478 0.327576 4.48918C0.916751 4.62548 1.55209 4.65626 2.14786 4.75738C2.90412 4.88489 3.65818 5.0146 4.41443 5.14431C6.22373 5.45648 8.02643 5.78624 9.82693 6.14678C10.515 6.28528 11.2009 6.42378 11.8868 6.56888C12.2342 6.64363 12.5837 6.71178 12.9289 6.78872C13.1114 6.82829 13.4741 6.99317 13.6544 6.9558C13.7621 6.93382 13.9204 6.78213 14.0171 6.72497C14.1468 6.64802 14.2765 6.56888 14.404 6.49413C16.0353 5.54002 17.6907 4.63208 19.3395 3.70874C18.5942 4.01212 17.8599 4.50457 17.1433 4.89149H17.1411Z" fill="url(#paint15_linear_51_126)"/>
<path d="M17.9919 4.55513C17.6137 4.76178 17.2356 4.96623 16.8575 5.17288C16.3958 5.4235 15.9363 5.68512 15.4813 5.94893C15.1339 6.14898 14.7866 6.35124 14.4414 6.55349C14.2523 6.66561 14.0655 6.77773 13.8764 6.89205C13.8171 6.92942 13.6478 7.02835 13.6632 7.03934C12.5486 6.79092 11.4296 6.56448 10.3084 6.34464C6.98878 5.69611 3.67137 5.06077 0.323181 4.58591C0.323181 4.5903 0.323181 4.5947 0.323181 4.5991C0.868388 4.731 1.47295 4.76398 2.02915 4.85851C2.70407 4.97503 3.37898 5.08934 4.05389 5.20586C5.74008 5.49605 7.42626 5.78844 9.10366 6.127C9.81374 6.26989 10.526 6.40839 11.2339 6.55789C11.6033 6.63703 11.9704 6.71397 12.3397 6.79312C12.5794 6.84368 12.819 6.89424 13.0608 6.94701C13.2103 6.97998 13.5203 7.11848 13.6654 7.08551C13.7247 7.07232 13.7929 7.00197 13.8434 6.96899C15.6286 5.85 17.5016 4.86511 19.3329 3.82745C18.88 4.01432 18.4315 4.3155 17.9941 4.55513H17.9919Z" fill="url(#paint16_linear_51_126)"/>
<path d="M17.9193 4.71781C17.4357 4.98602 16.9454 5.24543 16.4662 5.52023C16.0001 5.78404 15.5362 6.05225 15.0746 6.32046C14.8481 6.45236 14.6239 6.58646 14.3974 6.71837C14.3227 6.76234 13.6874 7.17784 13.6742 7.16904C12.4013 6.88765 11.1262 6.63263 9.84672 6.37981C6.68101 5.75546 3.50869 5.16629 0.314392 4.70022C0.314392 4.70462 0.314392 4.70902 0.314392 4.71121C0.853004 4.84532 1.45097 4.88049 1.99838 4.97722C2.86895 5.12891 3.73733 5.2828 4.6079 5.4301C6.35784 5.72468 8.10118 6.05005 9.84233 6.404C10.5304 6.54469 11.2163 6.68539 11.9044 6.83049C12.2518 6.90523 12.6013 6.97558 12.9487 7.05253C13.129 7.0921 13.4961 7.25698 13.6742 7.21741C13.7335 7.20422 13.8017 7.13387 13.8544 7.10089C14.0435 6.98438 14.2348 6.87226 14.426 6.76014C16.0485 5.80383 17.6907 4.88269 19.3263 3.94836C18.8514 4.14842 18.381 4.46719 17.9237 4.72001L17.9193 4.71781Z" fill="url(#paint17_linear_51_126)"/>
<path d="M16.5299 5.61257C16.0529 5.88298 15.5802 6.15998 15.1053 6.43478C14.8701 6.57108 14.6371 6.70958 14.404 6.84808C14.3293 6.89205 13.6962 7.30755 13.6808 7.29656C12.4079 7.01736 11.1328 6.75794 9.85332 6.50513C6.68321 5.87418 3.5043 5.2894 0.3078 4.81015C0.3078 4.81235 0.3078 4.81674 0.3078 4.81894C0.470483 4.85412 0.652952 4.8739 0.817833 4.90028C4.17701 5.45868 7.5296 6.04786 10.8646 6.73596C11.6011 6.88765 12.3397 7.04154 13.074 7.20642C13.2301 7.2416 13.5401 7.3757 13.6918 7.33613C13.7555 7.31854 13.8215 7.25259 13.8786 7.21741C14.0347 7.12288 14.1908 7.03055 14.3469 6.93602C14.6063 6.77993 14.8657 6.62824 15.1273 6.47435C15.7737 6.09622 16.42 5.7159 17.0707 5.34656C17.8094 4.92666 18.6316 4.55073 19.3109 4.05609C18.3854 4.57492 17.4533 5.08495 16.5299 5.60817V5.61257Z" fill="url(#paint18_linear_51_126)"/>
<path d="M17.8907 4.97722C17.4401 5.23224 16.985 5.48286 16.5343 5.74227C15.5736 6.29407 14.6041 6.83928 13.6698 7.43285C13.6698 7.42846 10.5106 6.76234 10.1611 6.69199C6.88766 6.03686 3.60982 5.43229 0.309998 4.92446C0.309998 4.92666 0.309998 4.92886 0.309998 4.93325C0.455093 4.96623 0.617776 4.98382 0.76507 5.008C4.12425 5.58179 7.47684 6.15997 10.8118 6.85247C11.5109 6.99757 12.2078 7.15365 12.9047 7.30534C13.2235 7.37569 13.5664 7.55157 13.85 7.3735C14.1336 7.19542 14.4238 7.02834 14.7118 6.85907C16.2353 5.95552 17.7742 5.07615 19.3043 4.18359C18.8229 4.39024 18.3524 4.71561 17.8907 4.97942V4.97722Z" fill="url(#paint19_linear_51_126)"/>
<path d="M17.9391 5.07175C17.4511 5.35095 16.963 5.63015 16.475 5.90715C15.534 6.44357 14.5931 6.98658 13.6764 7.56256C13.6764 7.55816 10.515 6.88984 10.1677 6.8195C6.89425 6.15777 3.60982 5.562 0.309998 5.03878C0.309998 5.04098 0.309998 5.04317 0.309998 5.04537C0.437506 5.07395 0.580403 5.09154 0.707911 5.11352C4.06489 5.7005 7.41968 6.26989 10.7569 6.96899C11.456 7.11408 12.1529 7.27017 12.8498 7.42186C13.129 7.48342 13.5599 7.69007 13.8171 7.52958C14.0985 7.35591 14.3821 7.19103 14.6657 7.02175C16.2045 6.10721 17.7544 5.21025 19.2955 4.30011C18.8361 4.48478 18.3766 4.82113 17.9391 5.06956V5.07175Z" fill="url(#paint20_linear_51_126)"/>
<path d="M13.6961 7.68567C12.1616 7.35811 10.6249 7.03714 9.08602 6.72496C6.17092 6.13139 3.24043 5.63015 0.305542 5.1531C0.305542 5.15529 0.305542 5.15749 0.305542 5.16189C0.564955 5.23004 0.857344 5.26082 1.12335 5.30698C4.72436 5.93793 8.31657 6.56008 11.889 7.34272C12.2122 7.41307 12.5353 7.48342 12.8585 7.55377C13.0651 7.59773 13.5708 7.81758 13.762 7.70326C14.3688 7.33832 14.9756 6.97778 15.5845 6.61504C16.2594 6.21493 16.9344 5.81482 17.6115 5.41471C18.1633 5.08934 18.781 4.79695 19.2867 4.41663C17.4158 5.49385 15.5428 6.56448 13.6983 7.68787L13.6961 7.68567Z" fill="url(#paint21_linear_51_126)"/>
<path d="M16.8113 5.9753C16.6552 6.06544 13.7269 7.83736 13.7137 7.81977C12.1748 7.49221 10.6359 7.16904 9.09262 6.85247C6.17092 6.2545 3.23384 5.75546 0.292358 5.26521C0.292358 5.26521 0.292358 5.26961 0.292358 5.27181C0.874939 5.43889 1.53666 5.49824 2.13903 5.60597C3.07336 5.77085 4.00548 5.93573 4.94201 6.09621C7.07667 6.45895 9.19375 6.88544 11.3108 7.34491C11.8099 7.45264 12.3067 7.56256 12.8035 7.67248C13.0454 7.72524 13.2872 7.778 13.529 7.83076C13.5774 7.84176 13.6829 7.88792 13.7291 7.85934C14.4436 7.43285 15.1602 7.00416 15.8747 6.57767C16.4507 6.23251 17.0289 5.88736 17.6071 5.54441C18.1567 5.21685 18.7722 4.92006 19.2757 4.53973C18.4535 5.01899 17.6313 5.49824 16.8113 5.9797V5.9753Z" fill="url(#paint22_linear_51_126)"/>
<path d="M17.9985 5.40151C17.6181 5.62575 17.24 5.84999 16.8597 6.07423C15.8067 6.69858 14.7558 7.32513 13.705 7.95168C13.6896 7.91211 13.2829 7.85495 13.1905 7.83516C12.8806 7.76921 12.5706 7.70106 12.2606 7.63511C11.8671 7.55157 11.4736 7.47022 11.0779 7.38668C7.48785 6.63483 3.88684 5.99069 0.270447 5.37294C0.270447 5.37294 0.270447 5.37513 0.270447 5.37733C0.943162 5.57739 1.71261 5.64774 2.40731 5.77525C3.32844 5.94232 4.25178 6.10061 5.17511 6.2567C6.95143 6.55788 8.71676 6.90743 10.4777 7.28995C11.3659 7.48341 12.254 7.67688 13.1422 7.87034C13.2543 7.89452 13.6368 8.04841 13.7423 7.98465C14.1073 7.76701 14.4722 7.54937 14.8372 7.32953C16.3189 6.44356 17.7962 5.55101 19.2714 4.65405C18.8405 4.84751 18.414 5.15309 18.0007 5.39712L17.9985 5.40151Z" fill="url(#paint23_linear_51_126)"/>
</g>
<path style="mix-blend-mode:multiply" opacity="0.4" d="M15.1691 7.01733C15.9935 6.55787 19.2669 4.66723 19.2669 4.66723C19.2669 4.66723 19.1966 4.2825 19.2911 3.77247C19.3505 3.4515 19.3439 2.90849 19.4054 2.51278C19.4362 2.31492 19.4472 2.17642 19.4472 2.17642C19.4472 2.17642 17.5126 3.07338 16.8135 3.42073C16.1144 3.76808 13.9841 4.86728 13.5378 5.24761C13.5378 5.24761 13.5335 5.24761 13.5247 5.24321C13.5598 6.15116 13.6148 7.0635 13.6763 7.97365C13.7027 7.97804 13.7159 7.98244 13.7159 7.98244C13.7159 7.98244 14.3447 7.4768 15.1691 7.01514V7.01733Z" fill="url(#paint24_linear_51_126)"/>
<path style="mix-blend-mode:multiply" d="M11.1526 4.731C9.96762 4.57491 3.30642 3.26465 1.84007 3.11736C0.375927 2.97006 0.120911 2.96567 0.120911 2.96567C0.120911 2.96567 0.543007 4.06707 0.239625 5.37293C0.239625 5.37293 4.49356 6.14238 6.05004 6.3908C7.53617 6.62603 13.1597 7.85055 13.6785 7.96487C13.617 7.05472 13.562 6.14238 13.5269 5.23443C13.3949 5.19706 12.2672 4.87829 11.1526 4.731Z" fill="url(#paint25_linear_51_126)"/>
<path d="M0.131899 2.82057L6.00827 0.0857391C6.00827 0.0857391 11.3988 1.13878 13.1245 1.29926C14.8503 1.45975 19.4648 2.05772 19.4648 2.05772C19.4648 2.05772 17.7368 2.80078 16.6662 3.41194C15.5978 4.0231 13.7467 4.82772 13.4873 5.17727C13.4873 5.17727 13.2894 5.04537 12.5771 4.94204C11.867 4.83872 7.22839 3.96155 6.63482 3.82085C6.04344 3.68015 0.127502 2.81837 0.127502 2.81837L0.131899 2.82057Z" fill="url(#paint26_linear_51_126)"/>
<path style="mix-blend-mode:multiply" d="M0.131899 2.82057L6.00827 0.0857391C6.00827 0.0857391 11.3988 1.13878 13.1245 1.29926C14.8503 1.45975 19.4648 2.05772 19.4648 2.05772C19.4648 2.05772 17.7368 2.80078 16.6662 3.41194C15.5978 4.0231 13.7467 4.82772 13.4873 5.17727C13.4873 5.17727 13.2894 5.04537 12.5771 4.94204C11.867 4.83872 7.22839 3.96155 6.63482 3.82085C6.04344 3.68015 0.127502 2.81837 0.127502 2.81837L0.131899 2.82057Z" fill="url(#paint27_linear_51_126)"/>
<path d="M5.80601 0C5.80601 0 8.7365 0.488048 9.80274 0.780438C10.869 1.07283 13.0278 1.36082 13.6522 1.36522C14.2787 1.36961 19.4098 1.86865 19.4098 1.86865C19.4098 1.86865 18.6887 2.18303 17.1432 2.96347C15.5978 3.7461 14.2523 4.61228 13.3642 4.70461C12.476 4.79694 11.1877 4.64745 9.7192 4.46059C8.24845 4.27372 3.71532 3.24266 3.25585 3.20529C2.79418 3.16792 0.52322 2.56995 0.0065918 2.64689C0.0065918 2.64689 1.58945 1.98297 2.58094 1.48173C3.57022 0.982692 5.80601 0 5.80601 0Z" fill="url(#paint28_radial_51_126)"/>
<g style="mix-blend-mode:multiply" opacity="0.6">
<path d="M11.9901 4.166C11.335 4.11324 10.5941 4.0231 9.89065 3.93297C9.01348 3.82305 7.03271 3.40755 5.44105 3.07559C3.93294 2.76121 3.34376 2.6403 3.13052 2.62271C2.98982 2.61172 2.53475 2.51279 2.09506 2.41826L1.68396 2.33032L2.00713 2.17863C2.24236 2.06871 2.45341 1.96539 2.63368 1.87305C3.48007 1.44436 5.25639 0.65293 5.78181 0.422097L5.81478 0.406708L5.84996 0.413303C6.53587 0.529819 8.8486 0.929931 9.75874 1.18055C10.781 1.46195 12.6123 1.71696 13.4873 1.78731C13.6609 1.8005 13.8038 1.8093 13.9116 1.8093C13.9731 1.8093 14.16 1.81809 14.7448 1.86426C15.3603 1.91262 16.2705 1.99396 17.451 2.10389L17.8687 2.14346L17.3015 2.42925C16.864 2.65129 16.4463 2.87553 16.044 3.09317C15.0569 3.62519 14.1248 4.12863 13.5576 4.18579C13.1685 4.22536 12.6541 4.22096 11.9857 4.166H11.9901ZM2.42922 2.24239C2.7458 2.31054 3.05577 2.37429 3.1503 2.38089C3.37674 2.39847 3.97251 2.51939 5.48942 2.83816C7.07668 3.17012 9.05305 3.58342 9.91923 3.69334C10.6205 3.78128 11.3592 3.87361 12.0077 3.92417C12.6607 3.97694 13.1597 3.98353 13.5356 3.94396C14.0566 3.8912 14.9668 3.39875 15.9297 2.87993C16.2814 2.69086 16.6398 2.4974 17.0157 2.30394C16.0374 2.21381 15.268 2.14566 14.7294 2.10389C14.1314 2.05552 13.9599 2.05112 13.9138 2.05112C13.7994 2.05112 13.6499 2.04233 13.4719 2.02914C12.5859 1.95879 10.7326 1.69938 9.69719 1.41578C8.81342 1.17176 6.57324 0.782637 5.84776 0.659526C5.28716 0.907947 3.568 1.67519 2.7436 2.09069C2.64687 2.13906 2.54134 2.19182 2.42922 2.24678V2.24239Z" fill="#91AA70"/>
</g>
<path style="mix-blend-mode:multiply" opacity="0.6" d="M10.5458 4.24734C10.3106 4.17479 9.81813 3.99012 10.0995 3.67355C10.3523 3.38996 10.7327 3.21848 11.0668 3.0558C11.4933 2.84695 11.911 2.61392 12.3177 2.36989C12.7926 2.0841 13.263 1.77192 13.6434 1.36522C13.0102 1.36082 10.8624 1.07502 9.80054 0.780436C9.64665 0.738666 9.45319 0.6925 9.23555 0.644135C8.55624 0.936524 7.87253 1.22452 7.18662 1.50372C6.70957 1.69718 6.23031 1.88184 5.76864 2.11048C5.37293 2.30614 4.98161 2.51279 4.57051 2.67327C4.1682 2.82936 3.7461 2.95247 3.31301 2.96346C2.80958 2.97885 2.31493 2.86014 1.82469 2.77C1.56747 2.72384 1.31245 2.68646 1.05304 2.65788C0.877168 2.6403 0.712287 2.61392 0.564993 2.51279C0.529818 2.48861 0.505636 2.46442 0.48585 2.44024C0.193461 2.56775 0 2.64689 0 2.64689C0.516628 2.57215 2.78759 3.17011 3.24926 3.20529C3.71093 3.24266 8.24406 4.27372 9.7126 4.46059C9.74338 4.46498 9.77416 4.46718 9.80494 4.47158C10.3655 4.50236 11.0514 4.51335 11.4867 4.41662C11.168 4.39243 10.8514 4.33967 10.5392 4.24514L10.5458 4.24734Z" fill="url(#paint29_radial_51_126)"/>
<path style="mix-blend-mode:multiply" d="M8.66838 6.89642L8.59363 4.19897C8.59363 4.19897 13.8852 1.3718 13.9446 1.35422C14.0039 1.33443 12.9531 1.14757 11.9814 0.967296C11.0097 0.784827 9.64008 0.655121 9.64008 0.655121C9.64008 0.655121 4.25176 3.24266 4.14184 3.29102C4.03412 3.33939 4.14404 3.40754 4.15503 3.69773C4.16602 3.98792 4.37487 5.45426 4.38587 5.74665C4.39686 6.03684 4.42324 6.14457 4.42324 6.14457C4.42324 6.14457 6.04347 6.46993 6.58428 6.53588C7.12509 6.60184 8.66618 6.89862 8.66618 6.89862L8.66838 6.89642Z" fill="url(#paint30_linear_51_126)"/>
<path d="M8.48369 6.88104L8.40894 4.18579C8.40894 4.18579 13.7005 1.35862 13.7599 1.34103C13.8192 1.32345 12.7684 1.13438 11.7967 0.954114C10.825 0.771645 9.45539 0.63974 9.45539 0.63974C9.45539 0.63974 4.06707 3.22728 3.95715 3.27784C3.84943 3.3262 3.95935 3.39436 3.97034 3.68455C3.98133 3.97474 4.19018 5.44108 4.20337 5.73127C4.21436 6.02146 4.24074 6.12919 4.24074 6.12919C4.24074 6.12919 5.86098 6.45455 6.40179 6.5205C6.9426 6.58646 8.48369 6.88324 8.48369 6.88324V6.88104Z" fill="url(#paint31_linear_51_126)"/>
<path style="mix-blend-mode:multiply" d="M8.40894 4.18359C8.40894 4.18359 8.50567 4.13083 8.67275 4.04289C8.50347 4.09565 8.44851 4.18359 8.28363 4.13962C7.83735 4.01871 7.224 3.93517 6.75353 3.84064C5.85438 3.65597 4.95523 3.50428 4.03849 3.32181C4.0187 3.31741 4.01211 3.29103 4.0231 3.27564C4.03409 3.26026 4.04509 3.24487 4.05388 3.22728C3.99892 3.25366 3.96374 3.27125 3.95715 3.27345C3.84943 3.32181 3.95935 3.38996 3.97034 3.68015C3.98133 3.97034 4.19018 5.43669 4.20337 5.72688C4.21436 6.01707 4.24074 6.12479 4.24074 6.12479C4.24074 6.12479 5.86098 6.45016 6.40179 6.51611C6.9426 6.58206 8.48369 6.87885 8.48369 6.87885L8.40894 4.18359Z" fill="url(#paint32_linear_51_126)"/>
<path style="mix-blend-mode:multiply" opacity="0.4" d="M8.41774 4.49357C8.40455 4.64746 8.38696 4.79695 8.36498 4.94204C8.26385 5.56639 8.01763 6.31605 7.27236 6.34683C6.76453 6.36882 6.28308 6.17096 5.79943 6.04565C5.45208 5.95551 5.05636 5.90715 4.78815 5.64334C4.55292 5.41251 4.48038 5.07615 4.41442 4.76617C4.3045 4.24515 4.1726 3.77029 3.91538 3.31522C3.89779 3.36798 3.96375 3.46031 3.97254 3.68235C3.98353 3.97254 4.19238 5.43889 4.20557 5.72908C4.21657 6.01927 4.24295 6.12699 4.24295 6.12699C4.24295 6.12699 5.86318 6.45236 6.40399 6.51831C6.9448 6.58426 8.48589 6.88105 8.48589 6.88105L8.41994 4.49357H8.41774Z" fill="url(#paint33_linear_51_126)"/>
<path style="mix-blend-mode:multiply" d="M12.6211 4.15941C12.6211 4.15941 12.4056 4.23416 11.568 4.42322C11.1327 4.52215 10.4446 4.51116 9.88184 4.47818C11.313 4.65845 12.5661 4.79915 13.4345 4.70901C13.6851 4.68263 13.9709 4.5947 14.2897 4.46499C13.1817 4.73759 12.6211 4.15721 12.6211 4.15721V4.15941Z" fill="url(#paint34_linear_51_126)"/>
<path d="M13.1209 2.96567C13.1209 2.96567 13.543 4.06708 13.2396 5.37294C13.2396 5.37294 17.4936 6.14238 19.05 6.39081C20.6065 6.63923 26.7181 7.97366 26.7181 7.97366C26.7181 7.97366 27.3469 7.46583 28.1713 7.00636C28.9957 6.54689 32.2691 4.65625 32.2691 4.65625C32.2691 4.65625 32.1988 4.27153 32.2933 3.7615C32.3527 3.44053 32.3461 2.89752 32.4076 2.50181C32.4384 2.30395 32.4494 2.16545 32.4494 2.16545L18.8632 0.158295L13.1209 2.96567Z" fill="url(#paint35_radial_51_126)"/>
<path style="mix-blend-mode:multiply" d="M14.8401 3.11736C16.3042 3.26466 22.9654 4.57491 24.1526 4.731C25.3397 4.88709 26.54 5.23664 26.54 5.23664C26.9885 4.85411 29.1166 3.7549 29.8157 3.40975C30.5148 3.0624 32.4494 2.16545 32.4494 2.16545L18.8632 0.158295L13.1209 2.96567C13.1209 2.96567 13.3759 2.97007 14.8401 3.11736Z" fill="url(#paint36_radial_51_126)"/>
<g style="mix-blend-mode:multiply">
<path d="M32.4516 2.16764C31.2007 2.7722 29.941 3.35478 28.7099 3.99892C28.2878 4.21876 27.8679 4.443 27.4524 4.67603C27.2633 4.78375 27.0721 4.89148 26.8896 5.00799C26.7159 5.11571 26.6214 5.2696 26.4213 5.21244C25.4804 4.94863 24.5263 4.79914 23.5634 4.64525C22.8379 4.52874 22.1146 4.39683 21.3914 4.26493C20.2899 4.06487 19.1907 3.86262 18.0893 3.66696C17.3089 3.52846 16.5285 3.38996 15.748 3.25805C14.8774 3.11076 13.9915 3.07119 13.1253 2.95907C15.0907 3.0536 17.0275 3.42293 18.9599 3.77468C20.3757 4.03189 21.7871 4.3001 23.2028 4.55512C24.324 4.75737 25.4474 4.90906 26.5466 5.21904C26.8236 4.92445 27.371 4.68043 27.7514 4.46718C28.1976 4.21876 28.6483 3.97693 29.1034 3.7439C29.4683 3.55704 29.8355 3.37677 30.2092 3.20089C30.9391 2.85794 31.6975 2.41166 32.456 2.15884L32.4516 2.16764Z" fill="url(#paint37_linear_51_126)"/>
<path d="M30.2994 3.28884C29.9366 3.46032 29.5783 3.63399 29.2221 3.81646C28.3252 4.27593 27.3425 4.72001 26.5445 5.33996C24.6385 4.81015 22.6423 4.6013 20.6989 4.23416C19.9492 4.09346 19.1996 3.95496 18.4499 3.81646C16.6956 3.4911 14.9478 3.2097 13.1693 3.07999C13.1693 3.07999 13.1693 3.07999 13.1693 3.08219C13.6771 3.15914 14.218 3.18771 14.7324 3.24048C15.3172 3.29983 15.8997 3.40756 16.4779 3.50429C17.5464 3.68236 18.6148 3.88022 19.681 4.06928C20.7363 4.25615 21.7893 4.4518 22.8445 4.64526C23.4843 4.76398 24.1262 4.85631 24.766 4.97503C25.2826 5.07176 25.797 5.18827 26.307 5.32238C26.5643 5.39053 26.5181 5.39712 26.7291 5.26082C26.8984 5.14211 27.0787 5.03658 27.259 4.93326C28.9342 3.95057 30.6973 3.13056 32.4428 2.28197C31.7196 2.52819 30.9985 2.95468 30.2994 3.28664V3.28884Z" fill="url(#paint38_linear_51_126)"/>
<path d="M30.3917 3.37237C29.8926 3.612 29.3958 3.85603 28.9056 4.11324C28.1207 4.52434 27.2457 4.91786 26.5489 5.47406C26.107 5.35535 25.6585 5.25642 25.2122 5.15969C23.3282 4.75078 21.4024 4.49357 19.5073 4.13962C17.4166 3.74611 15.3325 3.36798 13.2111 3.2031V3.20749C13.7277 3.28664 14.2751 3.31741 14.8005 3.37237C15.4908 3.44492 16.1811 3.57683 16.867 3.69994C18.4631 3.98573 20.0635 4.25834 21.6574 4.55732C22.5367 4.7222 23.4205 4.87609 24.2999 5.03438C24.7066 5.10693 25.1111 5.18167 25.5156 5.27181C25.786 5.33116 26.0542 5.39712 26.3224 5.46527C26.5511 5.52243 26.5445 5.53342 26.7357 5.40151C27.9009 4.5903 29.2375 3.97694 30.5104 3.35479C31.1501 3.04261 31.7899 2.72604 32.4318 2.41167C31.7415 2.6491 31.0578 3.0602 30.3895 3.37897L30.3917 3.37237Z" fill="url(#paint39_linear_51_126)"/>
<path d="M30.3917 3.49769C29.8948 3.73732 29.4002 3.98354 28.9121 4.24076C28.1295 4.65406 27.2567 5.04757 26.5598 5.60157C25.5639 5.34216 24.5549 5.16629 23.5392 4.99042C20.1163 4.39684 16.7065 3.60102 13.2396 3.31522C13.2396 3.31522 13.2396 3.31962 13.2396 3.32182C13.8684 3.41855 14.5257 3.44933 15.161 3.53946C15.9745 3.65378 16.7813 3.80327 17.5881 3.94397C18.9885 4.18799 20.3867 4.43861 21.7849 4.70022C22.6444 4.86071 23.5062 5.0124 24.368 5.17069C24.7747 5.24543 25.1792 5.32238 25.5837 5.41251C25.8409 5.46967 26.096 5.53123 26.351 5.59498C26.6126 5.66313 26.5928 5.61696 26.8302 5.46747C28.0262 4.71122 29.2991 4.06928 30.5653 3.44273C31.1765 3.14155 31.858 2.87994 32.4208 2.5172C31.7437 2.84256 31.0644 3.16793 30.3895 3.49549L30.3917 3.49769Z" fill="url(#paint40_linear_51_126)"/>
<path d="M30.6071 3.51747C29.9871 3.82086 29.3694 4.12644 28.7604 4.454C28.0306 4.84532 27.2193 5.21685 26.5664 5.73348C25.9487 5.57519 25.3243 5.43449 24.6956 5.32237C20.9033 4.65625 17.1044 3.76589 13.2638 3.43174C13.2638 3.43393 13.2638 3.43833 13.2638 3.44053C13.8969 3.53946 14.5565 3.57463 15.194 3.66697C15.8557 3.7637 16.5153 3.88021 17.1748 3.99673C18.1926 4.1748 19.2127 4.35507 20.2306 4.53974C21.4683 4.76398 22.7038 4.99481 23.9415 5.22344C24.368 5.30259 24.7945 5.37074 25.2188 5.46307C25.4606 5.51583 25.7046 5.5664 25.9465 5.62576C26.096 5.66313 26.4081 5.80163 26.5664 5.78184C26.6478 5.77085 26.7731 5.64334 26.839 5.60157C27.0193 5.48945 27.1996 5.38173 27.3842 5.27401C27.7931 5.03658 28.2064 4.80794 28.6241 4.58151C29.2661 4.23196 29.9124 3.8978 30.5653 3.57243C31.1743 3.26905 31.8536 3.00524 32.4142 2.63811C31.8118 2.9305 31.2095 3.22289 30.6071 3.51747Z" fill="url(#paint41_linear_51_126)"/>
<path d="M30.55 3.67136C29.8751 4.00552 29.2024 4.34627 28.5406 4.70681C27.8855 5.06516 27.1622 5.39932 26.5753 5.86318C25.498 5.59058 24.4076 5.40151 23.315 5.20586C19.9844 4.61228 16.6626 3.86042 13.288 3.55045C13.288 3.55484 13.288 3.55704 13.288 3.56144C14.0904 3.69335 14.9258 3.73511 15.7327 3.87362C16.3746 3.98354 17.0165 4.09565 17.6563 4.20558C19.0457 4.4474 20.4329 4.70022 21.8179 4.95743C22.5697 5.09593 23.3194 5.23663 24.0713 5.37733C24.4934 5.45647 24.9176 5.53122 25.3375 5.62355C25.6101 5.68291 25.8828 5.74667 26.1554 5.81042C26.2653 5.8368 26.4829 5.93133 26.5906 5.90935C26.6566 5.89616 26.7885 5.77085 26.8435 5.73567C27.0215 5.62355 27.204 5.51583 27.3865 5.40811C27.7954 5.17068 28.2087 4.94205 28.622 4.71341C29.2617 4.36386 29.9059 4.0275 30.5566 3.69994C31.1633 3.39436 31.8405 3.12835 32.3989 2.75902C31.7811 3.0624 31.1611 3.36798 30.5434 3.67356L30.55 3.67136Z" fill="url(#paint42_linear_51_126)"/>
<path d="M30.3873 3.87581C29.8443 4.14841 29.3035 4.42322 28.7693 4.71341C28.0438 5.10912 27.2348 5.47846 26.584 5.99289C25.4277 5.6961 24.2493 5.50264 23.0754 5.28939C19.8305 4.70022 16.5944 3.98793 13.3078 3.66696C13.3078 3.67136 13.3078 3.67356 13.3078 3.67795C14.0091 3.79667 14.7412 3.84503 15.4513 3.95275C16.0954 4.04948 16.7351 4.1682 17.3749 4.28032C18.861 4.53753 20.3449 4.80574 21.8289 5.08274C22.5807 5.22344 23.3304 5.36414 24.0822 5.50703C24.5043 5.58618 24.9286 5.66312 25.3485 5.75546C25.6211 5.81481 25.8959 5.87857 26.1685 5.94232C26.2785 5.9687 26.5005 6.06763 26.6038 6.03905C26.65 6.02586 26.7269 5.94892 26.7709 5.92254C27.9405 5.12671 29.2485 4.49796 30.506 3.85383C31.137 3.53066 31.7679 3.20529 32.3966 2.88213C31.7151 3.12835 31.0424 3.55044 30.3851 3.88021L30.3873 3.87581Z" fill="url(#paint43_linear_51_126)"/>
<path d="M30.2246 4.08466C29.5497 4.42762 28.8814 4.78156 28.2196 5.1509C27.6744 5.45647 27.0853 5.73787 26.5928 6.1226C25.4343 5.83021 24.2581 5.63015 23.0841 5.4169C19.8415 4.82333 16.6076 4.11764 13.3254 3.78348C13.3254 3.78788 13.3254 3.79008 13.3254 3.79447C14.0596 3.92198 14.8247 3.97914 15.5656 4.08906C16.2163 4.18799 16.8626 4.3111 17.509 4.42322C19.105 4.69802 20.6989 4.99041 22.2905 5.29159C23.049 5.43449 23.8096 5.57959 24.5681 5.72468C24.9638 5.79943 25.3573 5.88297 25.753 5.96871C25.9729 6.01707 26.4917 6.2567 26.6742 6.1204C26.927 5.93133 27.2128 5.78184 27.4854 5.62355C28.4967 5.03878 29.5233 4.48258 30.561 3.94616C31.1611 3.63619 31.836 3.36358 32.3878 2.99205C31.6668 3.35479 30.9435 3.71973 30.2246 4.08466Z" fill="url(#paint44_linear_51_126)"/>
<path d="M30.3851 4.12863C29.8838 4.38584 29.3826 4.64306 28.8902 4.91346C28.1251 5.33336 27.3051 5.73347 26.6016 6.2523C25.2034 5.90275 23.7788 5.66972 22.3631 5.40811C19.3622 4.85411 16.3702 4.22096 13.332 3.8978C13.332 3.90219 13.332 3.90659 13.332 3.91099C13.9014 4.01431 14.5015 4.04509 15.0753 4.13742C16.0272 4.29351 16.9791 4.45399 17.9289 4.61888C19.5117 4.89368 21.0924 5.18827 22.6708 5.48945C23.3919 5.62795 24.113 5.76645 24.8363 5.90715C25.3243 6.00168 25.808 6.1116 26.2916 6.22592C26.4367 6.26109 26.5598 6.34243 26.683 6.2523C26.7731 6.18635 26.8698 6.13139 26.9644 6.07203C27.3183 5.85878 27.6744 5.64993 28.035 5.44768C28.8704 4.97722 29.7102 4.51775 30.561 4.07367C31.1589 3.76149 31.8316 3.48669 32.3812 3.11296C31.7151 3.45152 31.0512 3.79007 30.3873 4.13083L30.3851 4.12863Z" fill="url(#paint45_linear_51_126)"/>
<path d="M30.3851 4.25615C29.886 4.51556 29.387 4.77498 28.8946 5.04538C28.1295 5.46748 27.3183 5.86979 26.6104 6.38422C25.2122 6.03907 23.7876 5.79944 22.3719 5.53563C19.3666 4.97503 16.3724 4.38366 13.3364 4.01433V4.03191C13.9014 4.15063 14.5125 4.16821 15.0819 4.26275C16.014 4.41664 16.944 4.57272 17.8739 4.73321C19.437 5.00361 20.9978 5.2938 22.5565 5.59279C23.2952 5.73569 24.0339 5.87858 24.7703 6.02368C25.2122 6.10942 25.6519 6.20395 26.0916 6.30727C26.2257 6.33805 26.5027 6.46116 26.6302 6.42599C26.7401 6.34685 26.8544 6.2743 26.9709 6.20395C27.3249 5.9907 27.681 5.78185 28.0394 5.5796C28.8726 5.10914 29.7102 4.64747 30.5566 4.19899C31.1523 3.88462 31.8228 3.60762 32.3703 3.23169C31.7085 3.57244 31.0468 3.9132 30.3851 4.25615Z" fill="url(#paint46_linear_51_126)"/>
<path d="M30.4356 4.35508C29.996 4.58591 29.5541 4.81455 29.121 5.05418C28.2922 5.51145 27.3733 5.94014 26.6192 6.51392C25.5134 6.24352 24.3966 6.04126 23.2776 5.83022C19.9712 5.20806 16.6736 4.54854 13.332 4.12864C13.332 4.12864 13.332 4.12864 13.332 4.13084C13.332 4.13524 13.332 4.13963 13.332 4.14403C13.8596 4.25615 14.4356 4.27594 14.9698 4.36387C15.8382 4.50897 16.7087 4.65406 17.5771 4.80356C19.3227 5.10474 21.0638 5.42791 22.8027 5.76646C23.504 5.90276 24.2031 6.04126 24.9044 6.17976C25.443 6.28529 25.9795 6.4084 26.5137 6.53811C26.7379 6.59307 27.0061 6.32046 27.2084 6.20175C27.4876 6.03467 27.7668 5.87199 28.0482 5.7137C28.8792 5.24104 29.7146 4.77937 30.5566 4.3265C31.1501 4.00773 31.8185 3.73073 32.3637 3.3504C31.7217 3.68456 31.0776 4.01872 30.4356 4.35508Z" fill="url(#paint47_linear_51_126)"/>
<path d="M30.4005 4.49797C29.9366 4.7442 29.4705 4.98822 29.0111 5.24544C28.2152 5.68732 27.3425 6.10282 26.6148 6.65242C26.6258 6.55569 23.581 6.01708 23.2842 5.95992C19.9778 5.33117 16.678 4.67824 13.3386 4.24516C13.3386 4.25175 13.3386 4.25615 13.3386 4.26054C13.8552 4.37266 14.4224 4.39465 14.9456 4.48258C15.7942 4.62328 16.6406 4.76618 17.4892 4.91347C19.1863 5.20586 20.8791 5.51584 22.5697 5.8478C23.4095 6.01268 24.2493 6.17976 25.0891 6.35564C25.5552 6.45237 26.019 6.55129 26.4807 6.66122C26.7225 6.71837 26.8544 6.55129 27.0655 6.42599C27.3249 6.2721 27.5843 6.11821 27.8459 5.96652C28.7143 5.46528 29.5893 4.97723 30.4708 4.50017C31.0908 4.16601 31.7833 3.86703 32.3549 3.47131C31.7041 3.81427 31.0534 4.15722 30.4027 4.50237L30.4005 4.49797Z" fill="url(#paint48_linear_51_126)"/>
<path d="M30.4005 4.62548C29.9366 4.8717 29.4727 5.11793 29.0155 5.37514C28.5494 5.63675 28.0855 5.90276 27.6261 6.17097C27.3755 6.31826 26.7599 6.57987 26.6456 6.77773C25.443 6.50732 24.2339 6.2677 23.0226 6.03686C19.8019 5.42131 16.5878 4.79476 13.3364 4.35947C13.3364 4.36387 13.3364 4.37046 13.3364 4.37486C13.8772 4.49577 14.4685 4.52435 15.016 4.61449C15.6909 4.72881 16.3658 4.84092 17.0385 4.95744C18.7225 5.24763 20.4087 5.54222 22.0839 5.87638C22.794 6.01708 23.5062 6.15118 24.2141 6.30067C24.5835 6.37762 24.9506 6.45456 25.3199 6.53151C25.5596 6.58207 25.8014 6.63044 26.0388 6.6854C26.1883 6.72057 26.4961 6.85907 26.6434 6.82609C26.7489 6.80411 26.9072 6.65242 27.0039 6.59526C28.7583 5.54662 30.5566 4.58151 32.3439 3.59222C31.6821 3.85823 31.0358 4.28692 30.3983 4.62768L30.4005 4.62548Z" fill="url(#paint49_linear_51_126)"/>
<path d="M30.1411 4.89149C29.3914 5.2938 28.6505 5.7093 27.9163 6.13799C27.7184 6.25451 27.5184 6.36882 27.3205 6.48534C27.138 6.59526 26.7247 6.78432 26.6522 6.90744C25.5376 6.65901 24.4186 6.43258 23.2974 6.21493C19.9822 5.573 16.6714 4.93326 13.3276 4.47159C13.3276 4.47819 13.3276 4.48478 13.3276 4.48918C13.9168 4.62548 14.5521 4.65626 15.1479 4.75738C15.9041 4.88489 16.6582 5.0146 17.4144 5.14431C19.2237 5.45648 21.0264 5.78624 22.8269 6.14678C23.515 6.28528 24.2009 6.42378 24.8868 6.56888C25.2342 6.64363 25.5837 6.71178 25.9289 6.78872C26.1114 6.82829 26.4741 6.99317 26.6544 6.9558C26.7621 6.93382 26.9204 6.78213 27.0171 6.72497C27.1468 6.64802 27.2765 6.56888 27.404 6.49413C29.0353 5.54002 30.6907 4.63208 32.3395 3.70874C31.5942 4.01212 30.8599 4.50457 30.1433 4.89149H30.1411Z" fill="url(#paint50_linear_51_126)"/>
<path d="M30.9919 4.55513C30.6137 4.76178 30.2356 4.96623 29.8575 5.17288C29.3958 5.4235 28.9363 5.68512 28.4813 5.94893C28.1339 6.14898 27.7866 6.35124 27.4414 6.55349C27.2523 6.66561 27.0655 6.77773 26.8764 6.89205C26.8171 6.92942 26.6478 7.02835 26.6632 7.03934C25.5486 6.79092 24.4296 6.56448 23.3084 6.34464C19.9888 5.69611 16.6714 5.06077 13.3232 4.58591C13.3232 4.5903 13.3232 4.5947 13.3232 4.5991C13.8684 4.731 14.473 4.76398 15.0292 4.85851C15.7041 4.97503 16.379 5.08934 17.0539 5.20586C18.7401 5.49605 20.4263 5.78844 22.1037 6.127C22.8137 6.26989 23.526 6.40839 24.2339 6.55789C24.6033 6.63703 24.9704 6.71397 25.3397 6.79312C25.5794 6.84368 25.819 6.89424 26.0608 6.94701C26.2103 6.97998 26.5203 7.11848 26.6654 7.08551C26.7247 7.07232 26.7929 7.00197 26.8434 6.96899C28.6286 5.85 30.5016 4.86511 32.3329 3.82745C31.88 4.01432 31.4315 4.3155 30.9941 4.55513H30.9919Z" fill="url(#paint51_linear_51_126)"/>
<path d="M30.9193 4.71781C30.4357 4.98602 29.9454 5.24543 29.4662 5.52023C29.0001 5.78404 28.5362 6.05225 28.0746 6.32046C27.8481 6.45236 27.6239 6.58646 27.3974 6.71837C27.3227 6.76234 26.6874 7.17784 26.6742 7.16904C25.4013 6.88765 24.1262 6.63263 22.8467 6.37981C19.681 5.75546 16.5087 5.16629 13.3144 4.70022C13.3144 4.70462 13.3144 4.70902 13.3144 4.71121C13.853 4.84532 14.451 4.88049 14.9984 4.97722C15.869 5.12891 16.7373 5.2828 17.6079 5.4301C19.3578 5.72468 21.1012 6.05005 22.8423 6.404C23.5304 6.54469 24.2163 6.68539 24.9044 6.83049C25.2518 6.90523 25.6013 6.97558 25.9487 7.05253C26.129 7.0921 26.4961 7.25698 26.6742 7.21741C26.7335 7.20422 26.8017 7.13387 26.8544 7.10089C27.0435 6.98438 27.2348 6.87226 27.426 6.76014C29.0485 5.80383 30.6907 4.88269 32.3263 3.94836C31.8514 4.14842 31.381 4.46719 30.9237 4.72001L30.9193 4.71781Z" fill="url(#paint52_linear_51_126)"/>
<path d="M29.5299 5.61257C29.0529 5.88298 28.5802 6.15998 28.1053 6.43478C27.8701 6.57108 27.6371 6.70958 27.404 6.84808C27.3293 6.89205 26.6962 7.30755 26.6808 7.29656C25.4079 7.01736 24.1328 6.75794 22.8533 6.50513C19.6832 5.87418 16.5043 5.2894 13.3078 4.81015C13.3078 4.81235 13.3078 4.81674 13.3078 4.81894C13.4705 4.85412 13.653 4.8739 13.8178 4.90028C17.177 5.45868 20.5296 6.04786 23.8646 6.73596C24.6011 6.88765 25.3397 7.04154 26.074 7.20642C26.2301 7.2416 26.5401 7.3757 26.6918 7.33613C26.7555 7.31854 26.8215 7.25259 26.8786 7.21741C27.0347 7.12288 27.1908 7.03055 27.3469 6.93602C27.6063 6.77993 27.8657 6.62824 28.1273 6.47435C28.7737 6.09622 29.42 5.7159 30.0707 5.34656C30.8094 4.92666 31.6316 4.55073 32.3109 4.05609C31.3854 4.57492 30.4533 5.08495 29.5299 5.60817V5.61257Z" fill="url(#paint53_linear_51_126)"/>
<path d="M30.8907 4.97722C30.4401 5.23224 29.985 5.48286 29.5343 5.74227C28.5736 6.29407 27.6041 6.83928 26.6698 7.43285C26.6698 7.42846 23.5106 6.76234 23.1611 6.69199C19.8877 6.03686 16.6098 5.43229 13.31 4.92446C13.31 4.92666 13.31 4.92886 13.31 4.93325C13.4551 4.96623 13.6178 4.98382 13.7651 5.008C17.1243 5.58179 20.4768 6.15997 23.8118 6.85247C24.5109 6.99757 25.2078 7.15365 25.9047 7.30534C26.2235 7.37569 26.5664 7.55157 26.85 7.3735C27.1336 7.19542 27.4238 7.02834 27.7118 6.85907C29.2353 5.95552 30.7742 5.07615 32.3043 4.18359C31.8229 4.39024 31.3524 4.71561 30.8907 4.97942V4.97722Z" fill="url(#paint54_linear_51_126)"/>
<path d="M30.9391 5.07175C30.4511 5.35095 29.963 5.63015 29.475 5.90715C28.534 6.44357 27.5931 6.98658 26.6764 7.56256C26.6764 7.55816 23.515 6.88984 23.1677 6.8195C19.8943 6.15777 16.6098 5.562 13.31 5.03878C13.31 5.04098 13.31 5.04317 13.31 5.04537C13.4375 5.07395 13.5804 5.09154 13.7079 5.11352C17.0649 5.7005 20.4197 6.26989 23.7569 6.96899C24.456 7.11408 25.1529 7.27017 25.8498 7.42186C26.129 7.48342 26.5599 7.69007 26.8171 7.52958C27.0985 7.35591 27.3821 7.19103 27.6657 7.02175C29.2045 6.10721 30.7544 5.21025 32.2955 4.30011C31.8361 4.48478 31.3766 4.82113 30.9391 5.06956V5.07175Z" fill="url(#paint55_linear_51_126)"/>
<path d="M26.6961 7.68567C25.1616 7.35811 23.6249 7.03714 22.086 6.72496C19.1709 6.13139 16.2404 5.63015 13.3055 5.1531C13.3055 5.15529 13.3055 5.15749 13.3055 5.16189C13.565 5.23004 13.8573 5.26082 14.1234 5.30698C17.7244 5.93793 21.3166 6.56008 24.889 7.34272C25.2122 7.41307 25.5353 7.48342 25.8585 7.55377C26.0651 7.59773 26.5708 7.81758 26.762 7.70326C27.3688 7.33832 27.9756 6.97778 28.5845 6.61504C29.2594 6.21493 29.9344 5.81482 30.6115 5.41471C31.1633 5.08934 31.781 4.79695 32.2867 4.41663C30.4158 5.49385 28.5428 6.56448 26.6983 7.68787L26.6961 7.68567Z" fill="url(#paint56_linear_51_126)"/>
<path d="M29.8113 5.9753C29.6552 6.06544 26.7269 7.83736 26.7137 7.81977C25.1748 7.49221 23.6359 7.16904 22.0926 6.85247C19.1709 6.2545 16.2338 5.75546 13.2924 5.26521C13.2924 5.26521 13.2924 5.26961 13.2924 5.27181C13.8749 5.43889 14.5367 5.49824 15.139 5.60597C16.0734 5.77085 17.0055 5.93573 17.942 6.09621C20.0767 6.45895 22.1937 6.88544 24.3108 7.34491C24.8099 7.45264 25.3067 7.56256 25.8035 7.67248C26.0454 7.72524 26.2872 7.778 26.529 7.83076C26.5774 7.84176 26.6829 7.88792 26.7291 7.85934C27.4436 7.43285 28.1602 7.00416 28.8747 6.57767C29.4507 6.23251 30.0289 5.88736 30.6071 5.54441C31.1567 5.21685 31.7722 4.92006 32.2757 4.53973C31.4535 5.01899 30.6313 5.49824 29.8113 5.9797V5.9753Z" fill="url(#paint57_linear_51_126)"/>
<path d="M30.9985 5.40151C30.6181 5.62575 30.24 5.84999 29.8597 6.07423C28.8067 6.69858 27.7558 7.32513 26.705 7.95168C26.6896 7.91211 26.2829 7.85495 26.1905 7.83516C25.8806 7.76921 25.5706 7.70106 25.2606 7.63511C24.8671 7.55157 24.4736 7.47022 24.0779 7.38668C20.4878 6.63483 16.8868 5.99069 13.2704 5.37294C13.2704 5.37294 13.2704 5.37513 13.2704 5.37733C13.9432 5.57739 14.7126 5.64774 15.4073 5.77525C16.3284 5.94232 17.2518 6.10061 18.1751 6.2567C19.9514 6.55788 21.7168 6.90743 23.4777 7.28995C24.3659 7.48341 25.254 7.67688 26.1422 7.87034C26.2543 7.89452 26.6368 8.04841 26.7423 7.98465C27.1073 7.76701 27.4722 7.54937 27.8372 7.32953C29.3189 6.44356 30.7962 5.55101 32.2714 4.65405C31.8405 4.84751 31.414 5.15309 31.0007 5.39712L30.9985 5.40151Z" fill="url(#paint58_linear_51_126)"/>
</g>
<path style="mix-blend-mode:multiply" opacity="0.4" d="M28.1691 7.01733C28.9935 6.55787 32.2669 4.66723 32.2669 4.66723C32.2669 4.66723 32.1966 4.2825 32.2911 3.77247C32.3505 3.4515 32.3439 2.90849 32.4054 2.51278C32.4362 2.31492 32.4472 2.17642 32.4472 2.17642C32.4472 2.17642 30.5126 3.07338 29.8135 3.42073C29.1144 3.76808 26.9841 4.86728 26.5378 5.24761C26.5378 5.24761 26.5335 5.24761 26.5247 5.24321C26.5598 6.15116 26.6148 7.0635 26.6763 7.97365C26.7027 7.97804 26.7159 7.98244 26.7159 7.98244C26.7159 7.98244 27.3447 7.4768 28.1691 7.01514V7.01733Z" fill="url(#paint59_linear_51_126)"/>
<path style="mix-blend-mode:multiply" d="M24.1526 4.731C22.9676 4.57491 16.3064 3.26465 14.8401 3.11736C13.3759 2.97006 13.1209 2.96567 13.1209 2.96567C13.1209 2.96567 13.543 4.06707 13.2396 5.37293C13.2396 5.37293 17.4936 6.14238 19.05 6.3908C20.5362 6.62603 26.1597 7.85055 26.6785 7.96487C26.617 7.05472 26.562 6.14238 26.5269 5.23443C26.3949 5.19706 25.2672 4.87829 24.1526 4.731Z" fill="url(#paint60_linear_51_126)"/>
<path d="M13.1319 2.82057L19.0083 0.0857391C19.0083 0.0857391 24.3988 1.13878 26.1245 1.29926C27.8503 1.45975 32.4648 2.05772 32.4648 2.05772C32.4648 2.05772 30.7368 2.80078 29.6662 3.41194C28.5978 4.0231 26.7467 4.82772 26.4873 5.17727C26.4873 5.17727 26.2894 5.04537 25.5771 4.94204C24.867 4.83872 20.2284 3.96155 19.6348 3.82085C19.0434 3.68015 13.1275 2.81837 13.1275 2.81837L13.1319 2.82057Z" fill="url(#paint61_linear_51_126)"/>
<path style="mix-blend-mode:multiply" d="M13.1319 2.82057L19.0083 0.0857391C19.0083 0.0857391 24.3988 1.13878 26.1245 1.29926C27.8503 1.45975 32.4648 2.05772 32.4648 2.05772C32.4648 2.05772 30.7368 2.80078 29.6662 3.41194C28.5978 4.0231 26.7467 4.82772 26.4873 5.17727C26.4873 5.17727 26.2894 5.04537 25.5771 4.94204C24.867 4.83872 20.2284 3.96155 19.6348 3.82085C19.0434 3.68015 13.1275 2.81837 13.1275 2.81837L13.1319 2.82057Z" fill="url(#paint62_linear_51_126)"/>
<path d="M18.806 0C18.806 0 21.7365 0.488048 22.8027 0.780438C23.869 1.07283 26.0278 1.36082 26.6522 1.36522C27.2787 1.36961 32.4098 1.86865 32.4098 1.86865C32.4098 1.86865 31.6887 2.18303 30.1432 2.96347C28.5978 3.7461 27.2523 4.61228 26.3642 4.70461C25.476 4.79694 24.1877 4.64745 22.7192 4.46059C21.2485 4.27372 16.7153 3.24266 16.2559 3.20529C15.7942 3.16792 13.5232 2.56995 13.0066 2.64689C13.0066 2.64689 14.5895 1.98297 15.5809 1.48173C16.5702 0.982692 18.806 0 18.806 0Z" fill="url(#paint63_radial_51_126)"/>
<g style="mix-blend-mode:multiply" opacity="0.6">
<path d="M24.9901 4.166C24.335 4.11324 23.5941 4.0231 22.8906 3.93297C22.0135 3.82305 20.0327 3.40755 18.4411 3.07559C16.9329 2.76121 16.3438 2.6403 16.1305 2.62271C15.9898 2.61172 15.5347 2.51279 15.0951 2.41826L14.684 2.33032L15.0071 2.17863C15.2424 2.06871 15.4534 1.96539 15.6337 1.87305C16.4801 1.44436 18.2564 0.65293 18.7818 0.422097L18.8148 0.406708L18.85 0.413303C19.5359 0.529819 21.8486 0.929931 22.7587 1.18055C23.781 1.46195 25.6123 1.71696 26.4873 1.78731C26.6609 1.8005 26.8038 1.8093 26.9116 1.8093C26.9731 1.8093 27.16 1.81809 27.7448 1.86426C28.3603 1.91262 29.2705 1.99396 30.451 2.10389L30.8687 2.14346L30.3015 2.42925C29.864 2.65129 29.4463 2.87553 29.044 3.09317C28.0569 3.62519 27.1248 4.12863 26.5576 4.18579C26.1685 4.22536 25.6541 4.22096 24.9857 4.166H24.9901ZM15.4292 2.24239C15.7458 2.31054 16.0558 2.37429 16.1503 2.38089C16.3767 2.39847 16.9725 2.51939 18.4894 2.83816C20.0767 3.17012 22.0531 3.58342 22.9192 3.69334C23.6205 3.78128 24.3592 3.87361 25.0077 3.92417C25.6607 3.97694 26.1597 3.98353 26.5356 3.94396C27.0566 3.8912 27.9668 3.39875 28.9297 2.87993C29.2814 2.69086 29.6398 2.4974 30.0157 2.30394C29.0374 2.21381 28.268 2.14566 27.7294 2.10389C27.1314 2.05552 26.9599 2.05112 26.9138 2.05112C26.7994 2.05112 26.6499 2.04233 26.4719 2.02914C25.5859 1.95879 23.7326 1.69938 22.6972 1.41578C21.8134 1.17176 19.5732 0.782637 18.8478 0.659526C18.2872 0.907947 16.568 1.67519 15.7436 2.09069C15.6469 2.13906 15.5413 2.19182 15.4292 2.24678V2.24239Z" fill="#91AA70"/>
</g>
<path style="mix-blend-mode:multiply" opacity="0.6" d="M23.5458 4.24734C23.3106 4.17479 22.8181 3.99012 23.0995 3.67355C23.3523 3.38996 23.7327 3.21848 24.0668 3.0558C24.4933 2.84695 24.911 2.61392 25.3177 2.36989C25.7926 2.0841 26.263 1.77192 26.6434 1.36522C26.0102 1.36082 23.8624 1.07502 22.8005 0.780436C22.6467 0.738666 22.4532 0.6925 22.2355 0.644135C21.5562 0.936524 20.8725 1.22452 20.1866 1.50372C19.7096 1.69718 19.2303 1.88184 18.7686 2.11048C18.3729 2.30614 17.9816 2.51279 17.5705 2.67327C17.1682 2.82936 16.7461 2.95247 16.313 2.96346C15.8096 2.97885 15.3149 2.86014 14.8247 2.77C14.5675 2.72384 14.3125 2.68646 14.053 2.65788C13.8772 2.6403 13.7123 2.61392 13.565 2.51279C13.5298 2.48861 13.5056 2.46442 13.4859 2.44024C13.1935 2.56775 13 2.64689 13 2.64689C13.5166 2.57215 15.7876 3.17011 16.2493 3.20529C16.7109 3.24266 21.2441 4.27372 22.7126 4.46059C22.7434 4.46498 22.7742 4.46718 22.8049 4.47158C23.3655 4.50236 24.0514 4.51335 24.4867 4.41662C24.168 4.39243 23.8514 4.33967 23.5392 4.24514L23.5458 4.24734Z" fill="url(#paint64_radial_51_126)"/>
<path style="mix-blend-mode:multiply" d="M21.6684 6.89642L21.5936 4.19897C21.5936 4.19897 26.8852 1.3718 26.9446 1.35422C27.0039 1.33443 25.9531 1.14757 24.9814 0.967296C24.0097 0.784827 22.6401 0.655121 22.6401 0.655121C22.6401 0.655121 17.2518 3.24266 17.1418 3.29102C17.0341 3.33939 17.144 3.40754 17.155 3.69773C17.166 3.98792 17.3749 5.45426 17.3859 5.74665C17.3969 6.03684 17.4232 6.14457 17.4232 6.14457C17.4232 6.14457 19.0435 6.46993 19.5843 6.53588C20.1251 6.60184 21.6662 6.89862 21.6662 6.89862L21.6684 6.89642Z" fill="url(#paint65_linear_51_126)"/>
<path d="M21.4837 6.88104L21.4089 4.18579C21.4089 4.18579 26.7005 1.35862 26.7599 1.34103C26.8192 1.32345 25.7684 1.13438 24.7967 0.954114C23.825 0.771645 22.4554 0.63974 22.4554 0.63974C22.4554 0.63974 17.0671 3.22728 16.9571 3.27784C16.8494 3.3262 16.9593 3.39436 16.9703 3.68455C16.9813 3.97474 17.1902 5.44108 17.2034 5.73127C17.2144 6.02146 17.2407 6.12919 17.2407 6.12919C17.2407 6.12919 18.861 6.45455 19.4018 6.5205C19.9426 6.58646 21.4837 6.88324 21.4837 6.88324V6.88104Z" fill="url(#paint66_linear_51_126)"/>
<path style="mix-blend-mode:multiply" d="M21.4089 4.18359C21.4089 4.18359 21.5057 4.13083 21.6728 4.04289C21.5035 4.09565 21.4485 4.18359 21.2836 4.13962C20.8374 4.01871 20.224 3.93517 19.7535 3.84064C18.8544 3.65597 17.9552 3.50428 17.0385 3.32181C17.0187 3.31741 17.0121 3.29103 17.0231 3.27564C17.0341 3.26026 17.0451 3.24487 17.0539 3.22728C16.9989 3.25366 16.9637 3.27125 16.9571 3.27345C16.8494 3.32181 16.9593 3.38996 16.9703 3.68015C16.9813 3.97034 17.1902 5.43669 17.2034 5.72688C17.2144 6.01707 17.2407 6.12479 17.2407 6.12479C17.2407 6.12479 18.861 6.45016 19.4018 6.51611C19.9426 6.58206 21.4837 6.87885 21.4837 6.87885L21.4089 4.18359Z" fill="url(#paint67_linear_51_126)"/>
<path style="mix-blend-mode:multiply" opacity="0.4" d="M21.4177 4.49357C21.4045 4.64746 21.387 4.79695 21.365 4.94204C21.2639 5.56639 21.0176 6.31605 20.2724 6.34683C19.7645 6.36882 19.2831 6.17096 18.7994 6.04565C18.4521 5.95551 18.0564 5.90715 17.7882 5.64334C17.5529 5.41251 17.4804 5.07615 17.4144 4.76617C17.3045 4.24515 17.1726 3.77029 16.9154 3.31522C16.8978 3.36798 16.9637 3.46031 16.9725 3.68235C16.9835 3.97254 17.1924 5.43889 17.2056 5.72908C17.2166 6.01927 17.2429 6.12699 17.2429 6.12699C17.2429 6.12699 18.8632 6.45236 19.404 6.51831C19.9448 6.58426 21.4859 6.88105 21.4859 6.88105L21.4199 4.49357H21.4177Z" fill="url(#paint68_linear_51_126)"/>
<path style="mix-blend-mode:multiply" d="M25.6211 4.15941C25.6211 4.15941 25.4056 4.23416 24.568 4.42322C24.1327 4.52215 23.4446 4.51116 22.8818 4.47818C24.313 4.65845 25.5661 4.79915 26.4345 4.70901C26.6851 4.68263 26.9709 4.5947 27.2897 4.46499C26.1817 4.73759 25.6211 4.15721 25.6211 4.15721V4.15941Z" fill="url(#paint69_linear_51_126)"/>
<defs>
<radialGradient id="paint0_radial_51_126" cx="0" cy="0" r="1" gradientUnits="userSpaceOnUse" gradientTransform="translate(9.67233 4.05711) rotate(4.54) scale(7.25258)">
<stop stop-color="#B2E6B5"/>
<stop offset="1" stop-color="#92A961"/>
</radialGradient>
<radialGradient id="paint1_radial_51_126" cx="0" cy="0" r="1" gradientUnits="userSpaceOnUse" gradientTransform="translate(9.77313 2.70443) rotate(4.54) scale(6.97118)">
<stop stop-color="#B5D894"/>
<stop offset="0.83" stop-color="#B5D894"/>
<stop offset="1" stop-color="#92A961"/>
</radialGradient>
<linearGradient id="paint2_linear_51_126" x1="0.164028" y1="2.40453" x2="19.3091" y2="3.92474" gradientUnits="userSpaceOnUse">
<stop offset="0.2" stop-color="#92A961"/>
<stop offset="0.67" stop-color="#749649"/>
<stop offset="0.8" stop-color="white"/>
<stop offset="1" stop-color="#92A961"/>
</linearGradient>
<linearGradient id="paint3_linear_51_126" x1="0.166948" y1="2.53489" x2="19.2989" y2="4.05405" gradientUnits="userSpaceOnUse">
<stop offset="0.2" stop-color="#92A961"/>
<stop offset="0.67" stop-color="#749649"/>
<stop offset="0.8" stop-color="white"/>
<stop offset="1" stop-color="#92A961"/>
</linearGradient>
<linearGradient id="paint4_linear_51_126" x1="0.172522" y1="2.65883" x2="19.2913" y2="4.17694" gradientUnits="userSpaceOnUse">
<stop offset="0.2" stop-color="#92A961"/>
<stop offset="0.67" stop-color="#749649"/>
<stop offset="0.8" stop-color="white"/>
<stop offset="1" stop-color="#92A961"/>
</linearGradient>
<linearGradient id="paint5_linear_51_126" x1="0.178277" y1="2.78058" x2="19.2796" y2="4.2973" gradientUnits="userSpaceOnUse">
<stop offset="0.2" stop-color="#92A961"/>
<stop offset="0.67" stop-color="#749649"/>
<stop offset="0.8" stop-color="white"/>
<stop offset="1" stop-color="#92A961"/>
</linearGradient>
<linearGradient id="paint6_linear_51_126" x1="0.180624" y1="2.9175" x2="19.2688" y2="4.43318" gradientUnits="userSpaceOnUse">
<stop offset="0.2" stop-color="#92A961"/>
<stop offset="0.67" stop-color="#749649"/>
<stop offset="0.8" stop-color="white"/>
<stop offset="1" stop-color="#92A961"/>
</linearGradient>
<linearGradient id="paint7_linear_51_126" x1="0.186269" y1="3.04144" x2="19.2612" y2="4.55607" gradientUnits="userSpaceOnUse">
<stop offset="0.2" stop-color="#92A961"/>
<stop offset="0.67" stop-color="#749649"/>
<stop offset="0.8" stop-color="white"/>
<stop offset="1" stop-color="#92A961"/>
</linearGradient>
<linearGradient id="paint8_linear_51_126" x1="0.19168" y1="3.16757" x2="19.2535" y2="4.68116" gradientUnits="userSpaceOnUse">
<stop offset="0.2" stop-color="#92A961"/>
<stop offset="0.67" stop-color="#749649"/>
<stop offset="0.8" stop-color="white"/>
<stop offset="1" stop-color="#92A961"/>
</linearGradient>
<linearGradient id="paint9_linear_51_126" x1="0.195249" y1="3.28915" x2="19.2417" y2="4.80152" gradientUnits="userSpaceOnUse">
<stop offset="0.2" stop-color="#92A961"/>
<stop offset="0.67" stop-color="#749649"/>
<stop offset="0.8" stop-color="white"/>
<stop offset="1" stop-color="#92A961"/>
</linearGradient>
<linearGradient id="paint10_linear_51_126" x1="0.200841" y1="3.41309" x2="19.2342" y2="4.92442" gradientUnits="userSpaceOnUse">
<stop offset="0.2" stop-color="#92A961"/>
<stop offset="0.67" stop-color="#749649"/>
<stop offset="0.8" stop-color="white"/>
<stop offset="1" stop-color="#92A961"/>
</linearGradient>
<linearGradient id="paint11_linear_51_126" x1="0.206087" y1="3.54143" x2="19.2241" y2="5.05154" gradientUnits="userSpaceOnUse">
<stop offset="0.2" stop-color="#92A961"/>
<stop offset="0.67" stop-color="#749649"/>
<stop offset="0.8" stop-color="white"/>
<stop offset="1" stop-color="#92A961"/>
</linearGradient>
<linearGradient id="paint12_linear_51_126" x1="0.210189" y1="3.65644" x2="19.215" y2="5.1655" gradientUnits="userSpaceOnUse">
<stop offset="0.2" stop-color="#92A961"/>
<stop offset="0.67" stop-color="#749649"/>
<stop offset="0.8" stop-color="white"/>
<stop offset="1" stop-color="#92A961"/>
</linearGradient>
<linearGradient id="paint13_linear_51_126" x1="0.215782" y1="3.78038" x2="19.2075" y2="5.2884" gradientUnits="userSpaceOnUse">
<stop offset="0.2" stop-color="#92A961"/>
<stop offset="0.67" stop-color="#749649"/>
<stop offset="0.8" stop-color="white"/>
<stop offset="1" stop-color="#92A961"/>
</linearGradient>
<linearGradient id="paint14_linear_51_126" x1="0.219986" y1="3.92185" x2="19.1985" y2="5.42883" gradientUnits="userSpaceOnUse">
<stop offset="0.2" stop-color="#92A961"/>
<stop offset="0.67" stop-color="#749649"/>
<stop offset="0.8" stop-color="white"/>
<stop offset="1" stop-color="#92A961"/>
</linearGradient>
<linearGradient id="paint15_linear_51_126" x1="0.223221" y1="4.04781" x2="19.1886" y2="5.55374" gradientUnits="userSpaceOnUse">
<stop offset="0.2" stop-color="#92A961"/>
<stop offset="0.67" stop-color="#749649"/>
<stop offset="0.8" stop-color="white"/>
<stop offset="1" stop-color="#92A961"/>
</linearGradient>
<linearGradient id="paint16_linear_51_126" x1="0.228819" y1="4.17175" x2="19.1811" y2="5.67664" gradientUnits="userSpaceOnUse">
<stop offset="0.2" stop-color="#92A961"/>
<stop offset="0.67" stop-color="#749649"/>
<stop offset="0.8" stop-color="white"/>
<stop offset="1" stop-color="#92A961"/>
</linearGradient>
<linearGradient id="paint17_linear_51_126" x1="0.234246" y1="4.29788" x2="19.1712" y2="5.80155" gradientUnits="userSpaceOnUse">
<stop offset="0.2" stop-color="#92A961"/>
<stop offset="0.67" stop-color="#749649"/>
<stop offset="0.8" stop-color="white"/>
<stop offset="1" stop-color="#92A961"/>
</linearGradient>
<linearGradient id="paint18_linear_51_126" x1="0.240193" y1="4.41745" x2="19.1596" y2="5.91973" gradientUnits="userSpaceOnUse">
<stop offset="0.2" stop-color="#92A961"/>
<stop offset="0.67" stop-color="#749649"/>
<stop offset="0.8" stop-color="white"/>
<stop offset="1" stop-color="#92A961"/>
</linearGradient>
<linearGradient id="paint19_linear_51_126" x1="0.244118" y1="4.53464" x2="19.1547" y2="6.03622" gradientUnits="userSpaceOnUse">
<stop offset="0.2" stop-color="#92A961"/>
<stop offset="0.67" stop-color="#749649"/>
<stop offset="0.8" stop-color="white"/>
<stop offset="1" stop-color="#92A961"/>
</linearGradient>
<linearGradient id="paint20_linear_51_126" x1="0.249366" y1="4.66296" x2="19.1446" y2="6.16333" gradientUnits="userSpaceOnUse">
<stop offset="0.2" stop-color="#92A961"/>
<stop offset="0.67" stop-color="#749649"/>
<stop offset="0.8" stop-color="white"/>
<stop offset="1" stop-color="#92A961"/>
</linearGradient>
<linearGradient id="paint21_linear_51_126" x1="0.254555" y1="4.79129" x2="19.1323" y2="6.29026" gradientUnits="userSpaceOnUse">
<stop offset="0.2" stop-color="#92A961"/>
<stop offset="0.67" stop-color="#749649"/>
<stop offset="0.8" stop-color="white"/>
<stop offset="1" stop-color="#92A961"/>
</linearGradient>
<linearGradient id="paint22_linear_51_126" x1="0.25814" y1="4.91286" x2="19.1249" y2="6.41097" gradientUnits="userSpaceOnUse">
<stop offset="0.2" stop-color="#92A961"/>
<stop offset="0.67" stop-color="#749649"/>
<stop offset="0.8" stop-color="white"/>
<stop offset="1" stop-color="#92A961"/>
</linearGradient>
<linearGradient id="paint23_linear_51_126" x1="0.263112" y1="5.04557" x2="19.1167" y2="6.54263" gradientUnits="userSpaceOnUse">
<stop offset="0.2" stop-color="#92A961"/>
<stop offset="0.67" stop-color="#749649"/>
<stop offset="0.8" stop-color="white"/>
<stop offset="1" stop-color="#92A961"/>
</linearGradient>
<linearGradient id="paint24_linear_51_126" x1="13.5554" y1="4.84178" x2="19.2161" y2="5.29126" gradientUnits="userSpaceOnUse">
<stop offset="0.04" stop-color="white"/>
<stop offset="0.45" stop-color="#F7FFD7"/>
<stop offset="0.64" stop-color="#B4D996"/>
<stop offset="1" stop-color="#82A65E"/>
</linearGradient>
<linearGradient id="paint25_linear_51_126" x1="6.92764" y1="4.07293" x2="6.86338" y2="7.02078" gradientUnits="userSpaceOnUse">
<stop offset="0.1" stop-color="#B4D996"/>
<stop offset="0.82" stop-color="#627E0F"/>
</linearGradient>
<linearGradient id="paint26_linear_51_126" x1="0.206139" y1="1.87419" x2="19.3578" y2="3.39491" gradientUnits="userSpaceOnUse">
<stop offset="0.04" stop-color="#749649"/>
<stop offset="1" stop-color="#92A961"/>
</linearGradient>
<linearGradient id="paint27_linear_51_126" x1="0.206139" y1="1.87419" x2="19.3578" y2="3.39491" gradientUnits="userSpaceOnUse">
<stop offset="0.04" stop-color="#749649"/>
<stop offset="1" stop-color="#92A961"/>
</linearGradient>
<radialGradient id="paint28_radial_51_126" cx="0" cy="0" r="1" gradientUnits="userSpaceOnUse" gradientTransform="translate(4.42359 -1.19156) rotate(4.54) scale(17.8819)">
<stop offset="0.52" stop-color="#B2E6B5"/>
<stop offset="0.83" stop-color="#B5D894"/>
<stop offset="1" stop-color="#92A961"/>
</radialGradient>
<radialGradient id="paint29_radial_51_126" cx="0" cy="0" r="1" gradientUnits="userSpaceOnUse" gradientTransform="translate(9.73433 -5.97225) rotate(4.54) scale(12.0627)">
<stop offset="0.52" stop-color="#B2E6B5"/>
<stop offset="0.83" stop-color="#B5D894"/>
<stop offset="1" stop-color="#92A961"/>
</radialGradient>
<linearGradient id="paint30_linear_51_126" x1="9.39236" y1="0.612184" x2="7.87413" y2="7.67882" gradientUnits="userSpaceOnUse">
<stop offset="0.04" stop-color="#749649"/>
<stop offset="1" stop-color="#92A961"/>
</linearGradient>
<linearGradient id="paint31_linear_51_126" x1="9.20606" y1="0.5974" x2="7.69001" y2="7.66421" gradientUnits="userSpaceOnUse">
<stop offset="0.3" stop-color="#E7FFE7"/>
<stop offset="1" stop-color="#909E81"/>
</linearGradient>
<linearGradient id="paint32_linear_51_126" x1="7.34994" y1="-0.27333" x2="5.8317" y2="6.79331" gradientUnits="userSpaceOnUse">
<stop offset="0.3" stop-color="#E7FFE7"/>
<stop offset="1" stop-color="#909E81"/>
</linearGradient>
<linearGradient id="paint33_linear_51_126" x1="7.25238" y1="0.177633" x2="5.73634" y2="7.24444" gradientUnits="userSpaceOnUse">
<stop offset="0.3" stop-color="#E7FFE7"/>
<stop offset="1" stop-color="#909E81"/>
</linearGradient>
<linearGradient id="paint34_linear_51_126" x1="11.9963" y1="5.56264" x2="12.1256" y2="3.93434" gradientUnits="userSpaceOnUse">
<stop offset="0.55" stop-color="#749649"/>
<stop offset="0.91" stop-color="white"/>
</linearGradient>
<radialGradient id="paint35_radial_51_126" cx="0" cy="0" r="1" gradientUnits="userSpaceOnUse" gradientTransform="translate(22.6723 4.05711) rotate(4.54) scale(7.25258)">
<stop stop-color="#B2E6B5"/>
<stop offset="1" stop-color="#92A961"/>
</radialGradient>
<radialGradient id="paint36_radial_51_126" cx="0" cy="0" r="1" gradientUnits="userSpaceOnUse" gradientTransform="translate(22.7731 2.70443) rotate(4.54) scale(6.97118)">
<stop stop-color="#B5D894"/>
<stop offset="0.83" stop-color="#B5D894"/>
<stop offset="1" stop-color="#92A961"/>
</radialGradient>
<linearGradient id="paint37_linear_51_126" x1="13.164" y1="2.40453" x2="32.3091" y2="3.92474" gradientUnits="userSpaceOnUse">
<stop offset="0.2" stop-color="#92A961"/>
<stop offset="0.67" stop-color="#749649"/>
<stop offset="0.8" stop-color="white"/>
<stop offset="1" stop-color="#92A961"/>
</linearGradient>
<linearGradient id="paint38_linear_51_126" x1="13.1669" y1="2.53489" x2="32.2989" y2="4.05405" gradientUnits="userSpaceOnUse">
<stop offset="0.2" stop-color="#92A961"/>
<stop offset="0.67" stop-color="#749649"/>
<stop offset="0.8" stop-color="white"/>
<stop offset="1" stop-color="#92A961"/>
</linearGradient>
<linearGradient id="paint39_linear_51_126" x1="13.1725" y1="2.65883" x2="32.2913" y2="4.17694" gradientUnits="userSpaceOnUse">
<stop offset="0.2" stop-color="#92A961"/>
<stop offset="0.67" stop-color="#749649"/>
<stop offset="0.8" stop-color="white"/>
<stop offset="1" stop-color="#92A961"/>
</linearGradient>
<linearGradient id="paint40_linear_51_126" x1="13.1783" y1="2.78058" x2="32.2796" y2="4.2973" gradientUnits="userSpaceOnUse">
<stop offset="0.2" stop-color="#92A961"/>
<stop offset="0.67" stop-color="#749649"/>
<stop offset="0.8" stop-color="white"/>
<stop offset="1" stop-color="#92A961"/>
</linearGradient>
<linearGradient id="paint41_linear_51_126" x1="13.1806" y1="2.9175" x2="32.2688" y2="4.43318" gradientUnits="userSpaceOnUse">
<stop offset="0.2" stop-color="#92A961"/>
<stop offset="0.67" stop-color="#749649"/>
<stop offset="0.8" stop-color="white"/>
<stop offset="1" stop-color="#92A961"/>
</linearGradient>
<linearGradient id="paint42_linear_51_126" x1="13.1863" y1="3.04144" x2="32.2612" y2="4.55607" gradientUnits="userSpaceOnUse">
<stop offset="0.2" stop-color="#92A961"/>
<stop offset="0.67" stop-color="#749649"/>
<stop offset="0.8" stop-color="white"/>
<stop offset="1" stop-color="#92A961"/>
</linearGradient>
<linearGradient id="paint43_linear_51_126" x1="13.1917" y1="3.16757" x2="32.2535" y2="4.68116" gradientUnits="userSpaceOnUse">
<stop offset="0.2" stop-color="#92A961"/>
<stop offset="0.67" stop-color="#749649"/>
<stop offset="0.8" stop-color="white"/>
<stop offset="1" stop-color="#92A961"/>
</linearGradient>
<linearGradient id="paint44_linear_51_126" x1="13.1952" y1="3.28915" x2="32.2417" y2="4.80152" gradientUnits="userSpaceOnUse">
<stop offset="0.2" stop-color="#92A961"/>
<stop offset="0.67" stop-color="#749649"/>
<stop offset="0.8" stop-color="white"/>
<stop offset="1" stop-color="#92A961"/>
</linearGradient>
<linearGradient id="paint45_linear_51_126" x1="13.2008" y1="3.41309" x2="32.2342" y2="4.92442" gradientUnits="userSpaceOnUse">
<stop offset="0.2" stop-color="#92A961"/>
<stop offset="0.67" stop-color="#749649"/>
<stop offset="0.8" stop-color="white"/>
<stop offset="1" stop-color="#92A961"/>
</linearGradient>
<linearGradient id="paint46_linear_51_126" x1="13.2061" y1="3.54143" x2="32.2241" y2="5.05154" gradientUnits="userSpaceOnUse">
<stop offset="0.2" stop-color="#92A961"/>
<stop offset="0.67" stop-color="#749649"/>
<stop offset="0.8" stop-color="white"/>
<stop offset="1" stop-color="#92A961"/>
</linearGradient>
<linearGradient id="paint47_linear_51_126" x1="13.2102" y1="3.65644" x2="32.215" y2="5.1655" gradientUnits="userSpaceOnUse">
<stop offset="0.2" stop-color="#92A961"/>
<stop offset="0.67" stop-color="#749649"/>
<stop offset="0.8" stop-color="white"/>
<stop offset="1" stop-color="#92A961"/>
</linearGradient>
<linearGradient id="paint48_linear_51_126" x1="13.2158" y1="3.78038" x2="32.2075" y2="5.2884" gradientUnits="userSpaceOnUse">
<stop offset="0.2" stop-color="#92A961"/>
<stop offset="0.67" stop-color="#749649"/>
<stop offset="0.8" stop-color="white"/>
<stop offset="1" stop-color="#92A961"/>
</linearGradient>
<linearGradient id="paint49_linear_51_126" x1="13.22" y1="3.92185" x2="32.1985" y2="5.42883" gradientUnits="userSpaceOnUse">
<stop offset="0.2" stop-color="#92A961"/>
<stop offset="0.67" stop-color="#749649"/>
<stop offset="0.8" stop-color="white"/>
<stop offset="1" stop-color="#92A961"/>
</linearGradient>
<linearGradient id="paint50_linear_51_126" x1="13.2232" y1="4.04781" x2="32.1886" y2="5.55374" gradientUnits="userSpaceOnUse">
<stop offset="0.2" stop-color="#92A961"/>
<stop offset="0.67" stop-color="#749649"/>
<stop offset="0.8" stop-color="white"/>
<stop offset="1" stop-color="#92A961"/>
</linearGradient>
<linearGradient id="paint51_linear_51_126" x1="13.2288" y1="4.17175" x2="32.1811" y2="5.67664" gradientUnits="userSpaceOnUse">
<stop offset="0.2" stop-color="#92A961"/>
<stop offset="0.67" stop-color="#749649"/>
<stop offset="0.8" stop-color="white"/>
<stop offset="1" stop-color="#92A961"/>
</linearGradient>
<linearGradient id="paint52_linear_51_126" x1="13.2342" y1="4.29788" x2="32.1712" y2="5.80155" gradientUnits="userSpaceOnUse">
<stop offset="0.2" stop-color="#92A961"/>
<stop offset="0.67" stop-color="#749649"/>
<stop offset="0.8" stop-color="white"/>
<stop offset="1" stop-color="#92A961"/>
</linearGradient>
<linearGradient id="paint53_linear_51_126" x1="13.2402" y1="4.41745" x2="32.1596" y2="5.91973" gradientUnits="userSpaceOnUse">
<stop offset="0.2" stop-color="#92A961"/>
<stop offset="0.67" stop-color="#749649"/>
<stop offset="0.8" stop-color="white"/>
<stop offset="1" stop-color="#92A961"/>
</linearGradient>
<linearGradient id="paint54_linear_51_126" x1="13.2441" y1="4.53464" x2="32.1547" y2="6.03622" gradientUnits="userSpaceOnUse">
<stop offset="0.2" stop-color="#92A961"/>
<stop offset="0.67" stop-color="#749649"/>
<stop offset="0.8" stop-color="white"/>
<stop offset="1" stop-color="#92A961"/>
</linearGradient>
<linearGradient id="paint55_linear_51_126" x1="13.2494" y1="4.66296" x2="32.1446" y2="6.16333" gradientUnits="userSpaceOnUse">
<stop offset="0.2" stop-color="#92A961"/>
<stop offset="0.67" stop-color="#749649"/>
<stop offset="0.8" stop-color="white"/>
<stop offset="1" stop-color="#92A961"/>
</linearGradient>
<linearGradient id="paint56_linear_51_126" x1="13.2546" y1="4.79129" x2="32.1323" y2="6.29026" gradientUnits="userSpaceOnUse">
<stop offset="0.2" stop-color="#92A961"/>
<stop offset="0.67" stop-color="#749649"/>
<stop offset="0.8" stop-color="white"/>
<stop offset="1" stop-color="#92A961"/>
</linearGradient>
<linearGradient id="paint57_linear_51_126" x1="13.2581" y1="4.91286" x2="32.1249" y2="6.41097" gradientUnits="userSpaceOnUse">
<stop offset="0.2" stop-color="#92A961"/>
<stop offset="0.67" stop-color="#749649"/>
<stop offset="0.8" stop-color="white"/>
<stop offset="1" stop-color="#92A961"/>
</linearGradient>
<linearGradient id="paint58_linear_51_126" x1="13.2631" y1="5.04557" x2="32.1167" y2="6.54263" gradientUnits="userSpaceOnUse">
<stop offset="0.2" stop-color="#92A961"/>
<stop offset="0.67" stop-color="#749649"/>
<stop offset="0.8" stop-color="white"/>
<stop offset="1" stop-color="#92A961"/>
</linearGradient>
<linearGradient id="paint59_linear_51_126" x1="26.5554" y1="4.84178" x2="32.2161" y2="5.29126" gradientUnits="userSpaceOnUse">
<stop offset="0.04" stop-color="white"/>
<stop offset="0.45" stop-color="#F7FFD7"/>
<stop offset="0.64" stop-color="#B4D996"/>
<stop offset="1" stop-color="#82A65E"/>
</linearGradient>
<linearGradient id="paint60_linear_51_126" x1="19.9276" y1="4.07293" x2="19.8634" y2="7.02078" gradientUnits="userSpaceOnUse">
<stop offset="0.1" stop-color="#B4D996"/>
<stop offset="0.82" stop-color="#627E0F"/>
</linearGradient>
<linearGradient id="paint61_linear_51_126" x1="13.2061" y1="1.87419" x2="32.3578" y2="3.39491" gradientUnits="userSpaceOnUse">
<stop offset="0.04" stop-color="#749649"/>
<stop offset="1" stop-color="#92A961"/>
</linearGradient>
<linearGradient id="paint62_linear_51_126" x1="13.2061" y1="1.87419" x2="32.3578" y2="3.39491" gradientUnits="userSpaceOnUse">
<stop offset="0.04" stop-color="#749649"/>
<stop offset="1" stop-color="#92A961"/>
</linearGradient>
<radialGradient id="paint63_radial_51_126" cx="0" cy="0" r="1" gradientUnits="userSpaceOnUse" gradientTransform="translate(17.4236 -1.19156) rotate(4.54) scale(17.8819)">
<stop offset="0.52" stop-color="#B2E6B5"/>
<stop offset="0.83" stop-color="#B5D894"/>
<stop offset="1" stop-color="#92A961"/>
</radialGradient>
<radialGradient id="paint64_radial_51_126" cx="0" cy="0" r="1" gradientUnits="userSpaceOnUse" gradientTransform="translate(22.7343 -5.97225) rotate(4.54) scale(12.0627)">
<stop offset="0.52" stop-color="#B2E6B5"/>
<stop offset="0.83" stop-color="#B5D894"/>
<stop offset="1" stop-color="#92A961"/>
</radialGradient>
<linearGradient id="paint65_linear_51_126" x1="22.3924" y1="0.612184" x2="20.8741" y2="7.67882" gradientUnits="userSpaceOnUse">
<stop offset="0.04" stop-color="#749649"/>
<stop offset="1" stop-color="#92A961"/>
</linearGradient>
<linearGradient id="paint66_linear_51_126" x1="22.2061" y1="0.5974" x2="20.69" y2="7.66421" gradientUnits="userSpaceOnUse">
<stop offset="0.3" stop-color="#E7FFE7"/>
<stop offset="1" stop-color="#909E81"/>
</linearGradient>
<linearGradient id="paint67_linear_51_126" x1="20.3499" y1="-0.27333" x2="18.8317" y2="6.79331" gradientUnits="userSpaceOnUse">
<stop offset="0.3" stop-color="#E7FFE7"/>
<stop offset="1" stop-color="#909E81"/>
</linearGradient>
<linearGradient id="paint68_linear_51_126" x1="20.2524" y1="0.177633" x2="18.7363" y2="7.24444" gradientUnits="userSpaceOnUse">
<stop offset="0.3" stop-color="#E7FFE7"/>
<stop offset="1" stop-color="#909E81"/>
</linearGradient>
<linearGradient id="paint69_linear_51_126" x1="24.9963" y1="5.56264" x2="25.1256" y2="3.93434" gradientUnits="userSpaceOnUse">
<stop offset="0.55" stop-color="#749649"/>
<stop offset="0.91" stop-color="white"/>
</linearGradient>
</defs>
</svg>
