<svg width="20" height="8" viewBox="0 0 20 8" fill="none" xmlns="http://www.w3.org/2000/svg">
<path d="M0.120911 2.96567C0.120911 2.96567 0.543007 4.06708 0.239625 5.37294C0.239625 5.37294 4.49356 6.14238 6.05004 6.39081C7.60652 6.63923 13.7181 7.97366 13.7181 7.97366C13.7181 7.97366 14.3469 7.46583 15.1713 7.00636C15.9957 6.54689 19.2691 4.65625 19.2691 4.65625C19.2691 4.65625 19.1988 4.27153 19.2933 3.7615C19.3527 3.44053 19.3461 2.89752 19.4076 2.50181C19.4384 2.30395 19.4494 2.16545 19.4494 2.16545L5.86317 0.158295L0.120911 2.96567Z" fill="url(#paint0_radial_48_214)"/>
<path style="mix-blend-mode:multiply" d="M1.84007 3.11736C3.30422 3.26466 9.96542 4.57491 11.1526 4.731C12.3397 4.88709 13.54 5.23664 13.54 5.23664C13.9885 4.85411 16.1166 3.7549 16.8157 3.40975C17.5148 3.0624 19.4494 2.16545 19.4494 2.16545L5.86317 0.158295L0.120911 2.96567C0.120911 2.96567 0.375927 2.97007 1.84007 3.11736Z" fill="url(#paint1_radial_48_214)"/>
<g style="mix-blend-mode:multiply">
<path d="M19.4516 2.16764C18.2007 2.7722 16.941 3.35478 15.7099 3.99892C15.2878 4.21876 14.8679 4.443 14.4524 4.67603C14.2633 4.78375 14.0721 4.89148 13.8896 5.00799C13.7159 5.11571 13.6214 5.2696 13.4213 5.21244C12.4804 4.94863 11.5263 4.79914 10.5634 4.64525C9.83791 4.52874 9.11463 4.39683 8.39135 4.26493C7.28994 4.06487 6.19074 3.86262 5.08933 3.66696C4.30889 3.52846 3.52845 3.38996 2.74802 3.25805C1.87744 3.11076 0.991481 3.07119 0.125305 2.95907C2.09069 3.0536 4.02749 3.42293 5.9599 3.77468C7.37568 4.03189 8.78707 4.3001 10.2028 4.55512C11.324 4.75737 12.4474 4.90906 13.5466 5.21904C13.8236 4.92445 14.371 4.68043 14.7514 4.46718C15.1976 4.21876 15.6483 3.97693 16.1034 3.7439C16.4683 3.55704 16.8355 3.37677 17.2092 3.20089C17.9391 2.85794 18.6975 2.41166 19.456 2.15884L19.4516 2.16764Z" fill="url(#paint2_linear_48_214)"/>
<path d="M17.2993 3.28883C16.9366 3.4603 16.5782 3.63398 16.2221 3.81645C15.3251 4.27592 14.3424 4.72 13.5444 5.33995C11.6384 4.81013 9.64223 4.60128 7.69883 4.23415C6.94917 4.09345 6.19951 3.95495 5.44985 3.81645C3.69551 3.49108 1.94777 3.20968 0.16925 3.07998C0.16925 3.07998 0.16925 3.07998 0.16925 3.08218C0.677085 3.15912 1.2179 3.1877 1.73232 3.24046C2.3171 3.29982 2.89968 3.40754 3.47787 3.50427C4.5463 3.68234 5.61473 3.8802 6.68096 4.06926C7.7362 4.25613 8.78924 4.45179 9.84448 4.64525C10.4842 4.76396 11.1262 4.8563 11.7659 4.97501C12.2825 5.07174 12.797 5.18826 13.307 5.32236C13.5642 5.39051 13.518 5.39711 13.7291 5.26081C13.8984 5.14209 14.0786 5.03657 14.2589 4.93324C15.9341 3.95055 17.6972 3.13054 19.4428 2.28195C18.7195 2.52817 17.9984 2.95467 17.2993 3.28663V3.28883Z" fill="url(#paint3_linear_48_214)"/>
<path d="M17.3916 3.37239C16.8926 3.61202 16.3957 3.85604 15.9055 4.11326C15.1207 4.52436 14.2457 4.91788 13.5488 5.47408C13.1069 5.35536 12.6584 5.25643 12.2122 5.1597C10.3281 4.7508 8.4023 4.49358 6.50726 4.13964C4.41657 3.74612 2.33247 3.36799 0.210999 3.20311V3.20751C0.727626 3.28665 1.27503 3.31743 1.80045 3.37239C2.49076 3.44494 3.18106 3.57684 3.86696 3.69995C5.46302 3.98575 7.06346 4.25835 8.65731 4.55734C9.53668 4.72222 10.4204 4.87611 11.2998 5.03439C11.7065 5.10694 12.111 5.18169 12.5155 5.27182C12.7859 5.33118 13.0541 5.39713 13.3224 5.46528C13.551 5.52244 13.5444 5.53343 13.7357 5.40153C14.9008 4.59031 16.2375 3.97695 17.5103 3.3548C18.1501 3.04263 18.7898 2.72606 19.4318 2.41168C18.7415 2.64911 18.0577 3.06021 17.3894 3.37899L17.3916 3.37239Z" fill="url(#paint4_linear_48_214)"/>
<path d="M17.3917 3.49768C16.8948 3.7373 16.4002 3.98353 15.9121 4.24074C15.1295 4.65404 14.2567 5.04756 13.5598 5.60156C12.5639 5.34215 11.5549 5.16627 10.5392 4.9904C7.11627 4.39683 3.70653 3.601 0.239624 3.31521C0.239624 3.31521 0.239624 3.3196 0.239624 3.3218C0.868371 3.41853 1.5257 3.44931 2.16104 3.53945C2.97445 3.65376 3.78127 3.80326 4.58809 3.94395C5.98848 4.18798 7.38668 4.4386 8.78487 4.70021C9.64445 4.86069 10.5062 5.01238 11.368 5.17067C11.7747 5.24542 12.1792 5.32236 12.5837 5.4125C12.8409 5.46965 13.096 5.53121 13.351 5.59496C13.6126 5.66312 13.5928 5.61695 13.8302 5.46746C15.0262 4.7112 16.2991 4.06926 17.5653 3.44271C18.1765 3.14153 18.858 2.87992 19.4208 2.51718C18.7437 2.84255 18.0644 3.16791 17.3895 3.49548L17.3917 3.49768Z" fill="url(#paint5_linear_48_214)"/>
<path d="M17.6071 3.51746C16.9871 3.82084 16.3694 4.12642 15.7604 4.45398C15.0306 4.8453 14.2193 5.21683 13.5664 5.73346C12.9487 5.57518 12.3243 5.43448 11.6956 5.32236C7.90329 4.65624 4.10443 3.76588 0.263794 3.43172C0.263794 3.43392 0.263794 3.43832 0.263794 3.44051C0.896938 3.53944 1.55646 3.57462 2.194 3.66695C2.85573 3.76368 3.51525 3.8802 4.17478 3.99671C5.19264 4.17479 6.21271 4.35506 7.23058 4.53972C8.46828 4.76396 9.70379 4.99479 10.9415 5.22343C11.368 5.30257 11.7945 5.37072 12.2188 5.46306C12.4606 5.51582 12.7046 5.56638 12.9465 5.62574C13.096 5.66311 13.4081 5.80161 13.5664 5.78183C13.6478 5.77084 13.7731 5.64333 13.839 5.60156C14.0193 5.48944 14.1996 5.38172 14.3842 5.27399C14.7931 5.03656 15.2064 4.80793 15.6241 4.58149C16.2661 4.23194 16.9124 3.89778 17.5653 3.57242C18.1743 3.26904 18.8536 3.00523 19.4142 2.63809C18.8118 2.93048 18.2095 3.22287 17.6071 3.51746Z" fill="url(#paint6_linear_48_214)"/>
<path d="M17.5499 3.67138C16.875 4.00554 16.2023 4.34629 15.5406 4.70683C14.8854 5.06517 14.1622 5.39933 13.5752 5.8632C12.498 5.59059 11.4076 5.40153 10.3149 5.20587C6.98434 4.6123 3.66253 3.86044 0.287964 3.55046C0.287964 3.55486 0.287964 3.55706 0.287964 3.56146C1.09039 3.69336 1.92578 3.73513 2.7326 3.87363C3.37454 3.98355 4.01648 4.09567 4.65622 4.20559C6.04562 4.44742 7.43282 4.70023 8.81782 4.95745C9.56968 5.09595 10.3193 5.23665 11.0712 5.37735C11.4933 5.45649 11.9176 5.53124 12.3375 5.62357C12.6101 5.68293 12.8827 5.74668 13.1553 5.81044C13.2652 5.83682 13.4829 5.93135 13.5906 5.90936C13.6565 5.89617 13.7884 5.77086 13.8434 5.73569C14.0215 5.62357 14.2039 5.51585 14.3864 5.40813C14.7953 5.1707 15.2086 4.94206 15.6219 4.71343C16.2617 4.36388 16.9058 4.02752 17.5565 3.69996C18.1633 3.39438 18.8404 3.12837 19.3988 2.75903C18.781 3.06241 18.1611 3.36799 17.5433 3.67357L17.5499 3.67138Z" fill="url(#paint7_linear_48_214)"/>
<path d="M17.3872 3.87583C16.8442 4.14843 16.3034 4.42323 15.7692 4.71342C15.0437 5.10914 14.2347 5.47847 13.584 5.9929C12.4276 5.69611 11.2493 5.50265 10.0753 5.28941C6.83044 4.70023 3.59437 3.98794 0.307739 3.66698C0.307739 3.67137 0.307739 3.67357 0.307739 3.67797C1.00903 3.79668 1.74111 3.84505 2.4512 3.95277C3.09533 4.0495 3.73507 4.16821 4.37481 4.28033C5.86094 4.53755 7.34487 4.80576 8.8288 5.08276C9.58066 5.22345 10.3303 5.36415 11.0822 5.50705C11.5043 5.58619 11.9286 5.66314 12.3485 5.75547C12.6211 5.81483 12.8959 5.87858 13.1685 5.94234C13.2784 5.96872 13.5004 6.06765 13.6038 6.03907C13.6499 6.02588 13.7269 5.94893 13.7708 5.92255C14.9404 5.12672 16.2485 4.49798 17.506 3.85384C18.1369 3.53067 18.7678 3.20531 19.3966 2.88214C18.7151 3.12836 18.0424 3.55046 17.385 3.88022L17.3872 3.87583Z" fill="url(#paint8_linear_48_214)"/>
<path d="M17.2245 4.08468C16.5496 4.42763 15.8813 4.78158 15.2196 5.15091C14.6744 5.45649 14.0852 5.73789 13.5928 6.12261C12.4342 5.83022 11.258 5.63016 10.0841 5.41692C6.84142 4.82335 3.60755 4.11765 0.325317 3.7835C0.325317 3.78789 0.325317 3.79009 0.325317 3.79449C1.05959 3.922 1.82464 3.97915 2.5655 4.08908C3.21623 4.188 3.86257 4.31112 4.5089 4.42323C6.10495 4.69804 7.69881 4.99043 9.29046 5.29161C10.0489 5.43451 10.8096 5.5796 11.568 5.7247C11.9637 5.79944 12.3572 5.88298 12.753 5.96872C12.9728 6.01709 13.4916 6.25671 13.6741 6.12041C13.9269 5.93135 14.2127 5.78186 14.4853 5.62357C15.4966 5.03879 16.5232 4.48259 17.5609 3.94618C18.1611 3.6362 18.836 3.3636 19.3878 2.99207C18.6667 3.3548 17.9434 3.71974 17.2245 4.08468Z" fill="url(#paint9_linear_48_214)"/>
<path d="M17.3851 4.12864C16.8838 4.38586 16.3826 4.64307 15.8902 4.91348C15.1251 5.33338 14.3051 5.73349 13.6016 6.25231C12.2034 5.90277 10.7788 5.66973 9.36306 5.40812C6.36223 4.85412 3.37018 4.22098 0.33197 3.89781C0.33197 3.90221 0.33197 3.9066 0.33197 3.911C0.90136 4.01433 1.50153 4.0451 2.07531 4.13744C3.02723 4.29353 3.97914 4.45401 4.92886 4.61889C6.51172 4.89369 8.09238 5.18828 9.67084 5.48946C10.3919 5.62796 11.113 5.76646 11.8363 5.90716C12.3243 6.0017 12.808 6.11162 13.2916 6.22593C13.4367 6.26111 13.5598 6.34245 13.683 6.25231C13.7731 6.18636 13.8698 6.1314 13.9644 6.07204C14.3183 5.8588 14.6744 5.64995 15.035 5.44769C15.8704 4.97723 16.7102 4.51776 17.561 4.07368C18.1589 3.76151 18.8316 3.48671 19.3812 3.11298C18.7151 3.45153 18.0512 3.79009 17.3873 4.13084L17.3851 4.12864Z" fill="url(#paint10_linear_48_214)"/>
<path d="M17.3851 4.25615C16.886 4.51556 16.387 4.77498 15.8946 5.04538C15.1295 5.46748 14.3183 5.86979 13.6104 6.38422C12.2122 6.03907 10.7876 5.79944 9.37186 5.53563C6.36662 4.97503 3.37238 4.38366 0.336365 4.01433V4.03191C0.901358 4.15063 1.51252 4.16821 2.08191 4.26275C3.01404 4.41664 3.94397 4.57272 4.8739 4.73321C6.43697 5.00361 7.99785 5.2938 9.55652 5.59279C10.2952 5.73569 11.0339 5.87858 11.7703 6.02368C12.2122 6.10942 12.6519 6.20395 13.0916 6.30727C13.2257 6.33805 13.5027 6.46116 13.6302 6.42599C13.7401 6.34685 13.8544 6.2743 13.9709 6.20395C14.3249 5.9907 14.681 5.78185 15.0394 5.5796C15.8726 5.10914 16.7102 4.64747 17.5566 4.19899C18.1523 3.88462 18.8228 3.60762 19.3703 3.23169C18.7085 3.57244 18.0468 3.9132 17.3851 4.25615Z" fill="url(#paint11_linear_48_214)"/>
<path d="M17.4356 4.35508C16.996 4.58591 16.5541 4.81455 16.121 5.05418C15.2922 5.51145 14.3733 5.94014 13.6192 6.51392C12.5134 6.24352 11.3966 6.04126 10.2776 5.83022C6.97119 5.20806 3.67356 4.54854 0.33197 4.12864C0.33197 4.12864 0.33197 4.12864 0.33197 4.13084C0.33197 4.13524 0.33197 4.13963 0.33197 4.14403C0.85959 4.25615 1.43558 4.27594 1.96979 4.36387C2.83817 4.50897 3.70874 4.65406 4.57711 4.80356C6.32266 5.10474 8.0638 5.42791 9.80275 5.76646C10.504 5.90276 11.2031 6.04126 11.9044 6.17976C12.443 6.28529 12.9795 6.4084 13.5137 6.53811C13.7379 6.59307 14.0061 6.32046 14.2084 6.20175C14.4876 6.03467 14.7668 5.87199 15.0482 5.7137C15.8792 5.24104 16.7146 4.77937 17.5566 4.3265C18.1501 4.00773 18.8185 3.73073 19.3637 3.3504C18.7217 3.68456 18.0776 4.01872 17.4356 4.35508Z" fill="url(#paint12_linear_48_214)"/>
<path d="M17.4004 4.49797C16.9365 4.7442 16.4705 4.98822 16.011 5.24544C15.2152 5.68732 14.3424 6.10282 13.6147 6.65242C13.6257 6.55569 10.5809 6.01708 10.2841 5.95992C6.97772 5.33117 3.6779 4.67824 0.338501 4.24516C0.338501 4.25175 0.338501 4.25615 0.338501 4.26054C0.855129 4.37266 1.42232 4.39465 1.94554 4.48258C2.79413 4.62328 3.64052 4.76618 4.48911 4.91347C6.18629 5.20586 7.87907 5.51584 9.56965 5.8478C10.4094 6.01268 11.2492 6.17976 12.089 6.35564C12.5551 6.45237 13.019 6.55129 13.4806 6.66122C13.7225 6.71837 13.8544 6.55129 14.0654 6.42599C14.3248 6.2721 14.5842 6.11821 14.8459 5.96652C15.7142 5.46528 16.5892 4.97723 17.4708 4.50017C18.0907 4.16601 18.7832 3.86703 19.3548 3.47131C18.7041 3.81427 18.0533 4.15722 17.4026 4.50237L17.4004 4.49797Z" fill="url(#paint13_linear_48_214)"/>
<path d="M17.4005 4.62548C16.9366 4.8717 16.4727 5.11793 16.0155 5.37514C15.5494 5.63675 15.0855 5.90276 14.6261 6.17097C14.3755 6.31826 13.7599 6.57987 13.6456 6.77773C12.443 6.50732 11.2339 6.2677 10.0226 6.03686C6.80191 5.42131 3.58782 4.79476 0.336365 4.35947C0.336365 4.36387 0.336365 4.37046 0.336365 4.37486C0.877175 4.49577 1.46855 4.52435 2.01595 4.61449C2.69087 4.72881 3.36578 4.84092 4.0385 4.95744C5.72248 5.24763 7.40867 5.54222 9.08386 5.87638C9.79395 6.01708 10.5062 6.15118 11.2141 6.30067C11.5835 6.37762 11.9506 6.45456 12.3199 6.53151C12.5596 6.58207 12.8014 6.63044 13.0388 6.6854C13.1883 6.72057 13.4961 6.85907 13.6434 6.82609C13.7489 6.80411 13.9072 6.65242 14.0039 6.59526C15.7583 5.54662 17.5566 4.58151 19.3439 3.59222C18.6821 3.85823 18.0358 4.28692 17.3983 4.62768L17.4005 4.62548Z" fill="url(#paint14_linear_48_214)"/>
<path d="M17.141 4.89149C16.3913 5.2938 15.6505 5.7093 14.9162 6.13799C14.7183 6.25451 14.5183 6.36882 14.3204 6.48534C14.138 6.59526 13.7247 6.78432 13.6521 6.90744C12.5375 6.65901 11.4185 6.43258 10.2973 6.21493C6.98212 5.573 3.67131 4.93326 0.327515 4.47159C0.327515 4.47819 0.327515 4.48478 0.327515 4.48918C0.91669 4.62548 1.55203 4.65626 2.1478 4.75738C2.90406 4.88489 3.65812 5.0146 4.41437 5.14431C6.22367 5.45648 8.02637 5.78624 9.82687 6.14678C10.515 6.28528 11.2009 6.42378 11.8868 6.56888C12.2341 6.64363 12.5837 6.71178 12.9288 6.78872C13.1113 6.82829 13.474 6.99317 13.6543 6.9558C13.762 6.93382 13.9203 6.78213 14.0171 6.72497C14.1468 6.64802 14.2765 6.56888 14.404 6.49413C16.0352 5.54002 17.6906 4.63208 19.3394 3.70874C18.5942 4.01212 17.8599 4.50457 17.1432 4.89149H17.141Z" fill="url(#paint15_linear_48_214)"/>
<path d="M17.9919 4.55513C17.6137 4.76178 17.2356 4.96623 16.8575 5.17288C16.3958 5.4235 15.9363 5.68512 15.4813 5.94893C15.1339 6.14898 14.7866 6.35124 14.4414 6.55349C14.2523 6.66561 14.0655 6.77773 13.8764 6.89205C13.8171 6.92942 13.6478 7.02835 13.6632 7.03934C12.5486 6.79092 11.4296 6.56448 10.3084 6.34464C6.98878 5.69611 3.67137 5.06077 0.323181 4.58591C0.323181 4.5903 0.323181 4.5947 0.323181 4.5991C0.868388 4.731 1.47295 4.76398 2.02915 4.85851C2.70407 4.97503 3.37898 5.08934 4.05389 5.20586C5.74008 5.49605 7.42626 5.78844 9.10366 6.127C9.81374 6.26989 10.526 6.40839 11.2339 6.55789C11.6033 6.63703 11.9704 6.71397 12.3397 6.79312C12.5794 6.84368 12.819 6.89424 13.0608 6.94701C13.2103 6.97998 13.5203 7.11848 13.6654 7.08551C13.7247 7.07232 13.7929 7.00197 13.8434 6.96899C15.6286 5.85 17.5016 4.86511 19.3329 3.82745C18.88 4.01432 18.4315 4.3155 17.9941 4.55513H17.9919Z" fill="url(#paint16_linear_48_214)"/>
<path d="M17.9192 4.71781C17.4356 4.98602 16.9454 5.24543 16.4661 5.52023C16 5.78404 15.5362 6.05225 15.0745 6.32046C14.8481 6.45236 14.6238 6.58646 14.3974 6.71837C14.3226 6.76234 13.6873 7.17784 13.6741 7.16904C12.4012 6.88765 11.1261 6.63263 9.84666 6.37981C6.68094 5.75546 3.50863 5.16629 0.314331 4.70022C0.314331 4.70462 0.314331 4.70902 0.314331 4.71121C0.852943 4.84532 1.45091 4.88049 1.99832 4.97722C2.86889 5.12891 3.73727 5.2828 4.60784 5.4301C6.35778 5.72468 8.10112 6.05005 9.84227 6.404C10.5304 6.54469 11.2163 6.68539 11.9044 6.83049C12.2517 6.90523 12.6013 6.97558 12.9486 7.05253C13.1289 7.0921 13.496 7.25698 13.6741 7.21741C13.7335 7.20422 13.8016 7.13387 13.8544 7.10089C14.0434 6.98438 14.2347 6.87226 14.426 6.76014C16.0484 5.80383 17.6906 4.88269 19.3262 3.94836C18.8514 4.14842 18.3809 4.46719 17.9236 4.72001L17.9192 4.71781Z" fill="url(#paint17_linear_48_214)"/>
<path d="M16.5299 5.61257C16.0528 5.88298 15.5801 6.15998 15.1053 6.43478C14.87 6.57108 14.637 6.70958 14.404 6.84808C14.3292 6.89205 13.6961 7.30755 13.6807 7.29656C12.4078 7.01736 11.1327 6.75794 9.85326 6.50513C6.68315 5.87418 3.50424 5.2894 0.307739 4.81015C0.307739 4.81235 0.307739 4.81674 0.307739 4.81894C0.470422 4.85412 0.652891 4.8739 0.817772 4.90028C4.17695 5.45868 7.52954 6.04786 10.8645 6.73596C11.601 6.88765 12.3397 7.04154 13.0739 7.20642C13.23 7.2416 13.54 7.3757 13.6917 7.33613C13.7555 7.31854 13.8214 7.25259 13.8786 7.21741C14.0347 7.12288 14.1907 7.03055 14.3468 6.93602C14.6062 6.77993 14.8657 6.62824 15.1273 6.47435C15.7736 6.09622 16.4199 5.7159 17.0707 5.34656C17.8093 4.92666 18.6315 4.55073 19.3108 4.05609C18.3853 4.57492 17.4532 5.08495 16.5299 5.60817V5.61257Z" fill="url(#paint18_linear_48_214)"/>
<path d="M17.8907 4.97722C17.4401 5.23224 16.985 5.48286 16.5343 5.74227C15.5736 6.29407 14.6041 6.83928 13.6698 7.43285C13.6698 7.42846 10.5106 6.76234 10.1611 6.69199C6.88766 6.03686 3.60982 5.43229 0.309998 4.92446C0.309998 4.92666 0.309998 4.92886 0.309998 4.93325C0.455093 4.96623 0.617776 4.98382 0.76507 5.008C4.12425 5.58179 7.47684 6.15997 10.8118 6.85247C11.5109 6.99757 12.2078 7.15365 12.9047 7.30534C13.2235 7.37569 13.5664 7.55157 13.85 7.3735C14.1336 7.19542 14.4238 7.02834 14.7118 6.85907C16.2353 5.95552 17.7742 5.07615 19.3043 4.18359C18.8229 4.39024 18.3524 4.71561 17.8907 4.97942V4.97722Z" fill="url(#paint19_linear_48_214)"/>
<path d="M17.9391 5.07175C17.4511 5.35095 16.963 5.63015 16.475 5.90715C15.534 6.44357 14.5931 6.98658 13.6764 7.56256C13.6764 7.55816 10.515 6.88984 10.1677 6.8195C6.89425 6.15777 3.60982 5.562 0.309998 5.03878C0.309998 5.04098 0.309998 5.04317 0.309998 5.04537C0.437506 5.07395 0.580403 5.09154 0.707911 5.11352C4.06489 5.7005 7.41968 6.26989 10.7569 6.96899C11.456 7.11408 12.1529 7.27017 12.8498 7.42186C13.129 7.48342 13.5599 7.69007 13.8171 7.52958C14.0985 7.35591 14.3821 7.19103 14.6657 7.02175C16.2045 6.10721 17.7544 5.21025 19.2955 4.30011C18.8361 4.48478 18.3766 4.82113 17.9391 5.06956V5.07175Z" fill="url(#paint20_linear_48_214)"/>
<path d="M13.6961 7.68567C12.1616 7.35811 10.6249 7.03714 9.08602 6.72496C6.17092 6.13139 3.24043 5.63015 0.305542 5.1531C0.305542 5.15529 0.305542 5.15749 0.305542 5.16189C0.564955 5.23004 0.857344 5.26082 1.12335 5.30698C4.72436 5.93793 8.31657 6.56008 11.889 7.34272C12.2122 7.41307 12.5353 7.48342 12.8585 7.55377C13.0651 7.59773 13.5708 7.81758 13.762 7.70326C14.3688 7.33832 14.9756 6.97778 15.5845 6.61504C16.2594 6.21493 16.9344 5.81482 17.6115 5.41471C18.1633 5.08934 18.781 4.79695 19.2867 4.41663C17.4158 5.49385 15.5428 6.56448 13.6983 7.68787L13.6961 7.68567Z" fill="url(#paint21_linear_48_214)"/>
<path d="M16.8113 5.9753C16.6552 6.06544 13.7269 7.83736 13.7137 7.81977C12.1748 7.49221 10.6359 7.16904 9.09262 6.85247C6.17092 6.2545 3.23384 5.75546 0.292358 5.26521C0.292358 5.26521 0.292358 5.26961 0.292358 5.27181C0.874939 5.43889 1.53666 5.49824 2.13903 5.60597C3.07336 5.77085 4.00548 5.93573 4.94201 6.09621C7.07667 6.45895 9.19375 6.88544 11.3108 7.34491C11.8099 7.45264 12.3067 7.56256 12.8035 7.67248C13.0454 7.72524 13.2872 7.778 13.529 7.83076C13.5774 7.84176 13.6829 7.88792 13.7291 7.85934C14.4436 7.43285 15.1602 7.00416 15.8747 6.57767C16.4507 6.23251 17.0289 5.88736 17.6071 5.54441C18.1567 5.21685 18.7722 4.92006 19.2757 4.53973C18.4535 5.01899 17.6313 5.49824 16.8113 5.9797V5.9753Z" fill="url(#paint22_linear_48_214)"/>
<path d="M17.9984 5.40151C17.6181 5.62575 17.24 5.84999 16.8596 6.07423C15.8066 6.69858 14.7558 7.32513 13.7049 7.95168C13.6895 7.91211 13.2828 7.85495 13.1905 7.83516C12.8805 7.76921 12.5705 7.70106 12.2605 7.63511C11.867 7.55157 11.4735 7.47022 11.0778 7.38668C7.48779 6.63483 3.88678 5.99069 0.270386 5.37294C0.270386 5.37294 0.270386 5.37513 0.270386 5.37733C0.943101 5.57739 1.71255 5.64774 2.40725 5.77525C3.32838 5.94232 4.25172 6.10061 5.17505 6.2567C6.95137 6.55788 8.7167 6.90743 10.4776 7.28995C11.3658 7.48341 12.254 7.67688 13.1421 7.87034C13.2542 7.89452 13.6368 8.04841 13.7423 7.98465C14.1072 7.76701 14.4722 7.54937 14.8371 7.32953C16.3188 6.44356 17.7962 5.55101 19.2713 4.65405C18.8404 4.84751 18.4139 5.15309 18.0006 5.39712L17.9984 5.40151Z" fill="url(#paint23_linear_48_214)"/>
</g>
<path style="mix-blend-mode:multiply" opacity="0.4" d="M15.1691 7.01733C15.9935 6.55787 19.2669 4.66723 19.2669 4.66723C19.2669 4.66723 19.1966 4.2825 19.2911 3.77247C19.3505 3.4515 19.3439 2.90849 19.4054 2.51278C19.4362 2.31492 19.4472 2.17642 19.4472 2.17642C19.4472 2.17642 17.5126 3.07338 16.8135 3.42073C16.1144 3.76808 13.9841 4.86728 13.5378 5.24761C13.5378 5.24761 13.5335 5.24761 13.5247 5.24321C13.5598 6.15116 13.6148 7.0635 13.6763 7.97365C13.7027 7.97804 13.7159 7.98244 13.7159 7.98244C13.7159 7.98244 14.3447 7.4768 15.1691 7.01514V7.01733Z" fill="url(#paint24_linear_48_214)"/>
<path style="mix-blend-mode:multiply" d="M11.1526 4.731C9.96762 4.57491 3.30642 3.26465 1.84007 3.11736C0.375927 2.97006 0.120911 2.96567 0.120911 2.96567C0.120911 2.96567 0.543007 4.06707 0.239625 5.37293C0.239625 5.37293 4.49356 6.14238 6.05004 6.3908C7.53617 6.62603 13.1597 7.85055 13.6785 7.96487C13.617 7.05472 13.562 6.14238 13.5269 5.23443C13.3949 5.19706 12.2672 4.87829 11.1526 4.731Z" fill="url(#paint25_linear_48_214)"/>
<path d="M0.131899 2.82055L6.00827 0.0857239C6.00827 0.0857239 11.3988 1.13877 13.1245 1.29925C14.8503 1.45973 19.4648 2.0577 19.4648 2.0577C19.4648 2.0577 17.7368 2.80077 16.6662 3.41193C15.5978 4.02309 13.7467 4.82771 13.4873 5.17726C13.4873 5.17726 13.2894 5.04535 12.5771 4.94203C11.867 4.8387 7.22839 3.96153 6.63482 3.82083C6.04344 3.68013 0.127502 2.81836 0.127502 2.81836L0.131899 2.82055Z" fill="url(#paint26_linear_48_214)"/>
<path style="mix-blend-mode:multiply" d="M0.131899 2.82055L6.00827 0.0857239C6.00827 0.0857239 11.3988 1.13877 13.1245 1.29925C14.8503 1.45973 19.4648 2.0577 19.4648 2.0577C19.4648 2.0577 17.7368 2.80077 16.6662 3.41193C15.5978 4.02309 13.7467 4.82771 13.4873 5.17726C13.4873 5.17726 13.2894 5.04535 12.5771 4.94203C11.867 4.8387 7.22839 3.96153 6.63482 3.82083C6.04344 3.68013 0.127502 2.81836 0.127502 2.81836L0.131899 2.82055Z" fill="url(#paint27_linear_48_214)"/>
<path d="M5.80601 0C5.80601 0 8.7365 0.488048 9.80274 0.780438C10.869 1.07283 13.0278 1.36082 13.6522 1.36522C14.2787 1.36961 19.4098 1.86865 19.4098 1.86865C19.4098 1.86865 18.6887 2.18303 17.1432 2.96347C15.5978 3.7461 14.2523 4.61228 13.3642 4.70461C12.476 4.79694 11.1877 4.64745 9.7192 4.46059C8.24845 4.27372 3.71532 3.24266 3.25585 3.20529C2.79418 3.16792 0.52322 2.56995 0.0065918 2.64689C0.0065918 2.64689 1.58945 1.98297 2.58094 1.48173C3.57022 0.982692 5.80601 0 5.80601 0Z" fill="url(#paint28_radial_48_214)"/>
<g style="mix-blend-mode:multiply" opacity="0.6">
<path d="M11.9902 4.166C11.3351 4.11324 10.5942 4.0231 9.89071 3.93297C9.01354 3.82305 7.03277 3.40755 5.44111 3.07559C3.933 2.76121 3.34383 2.6403 3.13058 2.62271C2.98988 2.61172 2.53481 2.51279 2.09512 2.41826L1.68402 2.33032L2.00719 2.17863C2.24242 2.06871 2.45347 1.96539 2.63374 1.87305C3.48013 1.44436 5.25645 0.65293 5.78187 0.422097L5.81485 0.406708L5.85002 0.413303C6.53593 0.529819 8.84866 0.929931 9.7588 1.18055C10.7811 1.46195 12.6123 1.71696 13.4873 1.78731C13.661 1.8005 13.8039 1.8093 13.9116 1.8093C13.9732 1.8093 14.16 1.81809 14.7448 1.86426C15.3604 1.91262 16.2705 1.99396 17.4511 2.10389L17.8688 2.14346L17.3016 2.42925C16.8641 2.65129 16.4464 2.87553 16.0441 3.09317C15.057 3.62519 14.1249 4.12863 13.5577 4.18579C13.1685 4.22536 12.6541 4.22096 11.9858 4.166H11.9902ZM2.42928 2.24239C2.74586 2.31054 3.05583 2.37429 3.15036 2.38089C3.3768 2.39847 3.97257 2.51939 5.48948 2.83816C7.07674 3.17012 9.05311 3.58342 9.91929 3.69334C10.6206 3.78128 11.3593 3.87361 12.0078 3.92417C12.6607 3.97694 13.1598 3.98353 13.5357 3.94396C14.0567 3.8912 14.9669 3.39875 15.9298 2.87993C16.2815 2.69086 16.6398 2.4974 17.0158 2.30394C16.0375 2.21381 15.268 2.14566 14.7294 2.10389C14.1315 2.05552 13.96 2.05112 13.9138 2.05112C13.7995 2.05112 13.65 2.04233 13.4719 2.02914C12.586 1.95879 10.7327 1.69938 9.69725 1.41578C8.81349 1.17176 6.5733 0.782637 5.84782 0.659526C5.28723 0.907947 3.56806 1.67519 2.74366 2.09069C2.64693 2.13906 2.5414 2.19182 2.42928 2.24678V2.24239Z" fill="#91AA70"/>
</g>
<path style="mix-blend-mode:multiply" opacity="0.6" d="M10.5458 4.24734C10.3106 4.17479 9.81813 3.99012 10.0995 3.67355C10.3523 3.38996 10.7327 3.21848 11.0668 3.0558C11.4933 2.84695 11.911 2.61392 12.3177 2.36989C12.7926 2.0841 13.263 1.77192 13.6434 1.36522C13.0102 1.36082 10.8624 1.07502 9.80054 0.780436C9.64665 0.738666 9.45319 0.6925 9.23555 0.644135C8.55624 0.936524 7.87253 1.22452 7.18662 1.50372C6.70957 1.69718 6.23031 1.88184 5.76864 2.11048C5.37293 2.30614 4.98161 2.51279 4.57051 2.67327C4.1682 2.82936 3.7461 2.95247 3.31301 2.96346C2.80958 2.97885 2.31493 2.86014 1.82469 2.77C1.56747 2.72384 1.31245 2.68646 1.05304 2.65788C0.877168 2.6403 0.712287 2.61392 0.564993 2.51279C0.529818 2.48861 0.505636 2.46442 0.48585 2.44024C0.193461 2.56775 0 2.64689 0 2.64689C0.516628 2.57215 2.78759 3.17011 3.24926 3.20529C3.71093 3.24266 8.24406 4.27372 9.7126 4.46059C9.74338 4.46498 9.77416 4.46718 9.80494 4.47158C10.3655 4.50236 11.0514 4.51335 11.4867 4.41662C11.168 4.39243 10.8514 4.33967 10.5392 4.24514L10.5458 4.24734Z" fill="url(#paint29_radial_48_214)"/>
<path style="mix-blend-mode:multiply" d="M8.66838 6.89642L8.59363 4.19897C8.59363 4.19897 13.8852 1.3718 13.9446 1.35422C14.0039 1.33443 12.9531 1.14757 11.9814 0.967296C11.0097 0.784827 9.64008 0.655121 9.64008 0.655121C9.64008 0.655121 4.25176 3.24266 4.14184 3.29102C4.03412 3.33939 4.14404 3.40754 4.15503 3.69773C4.16602 3.98792 4.37487 5.45426 4.38587 5.74665C4.39686 6.03684 4.42324 6.14457 4.42324 6.14457C4.42324 6.14457 6.04347 6.46993 6.58428 6.53588C7.12509 6.60184 8.66618 6.89862 8.66618 6.89862L8.66838 6.89642Z" fill="url(#paint30_linear_48_214)"/>
<path d="M8.48369 6.88104L8.40894 4.18579C8.40894 4.18579 13.7005 1.35862 13.7599 1.34103C13.8192 1.32345 12.7684 1.13438 11.7967 0.954114C10.825 0.771645 9.45539 0.63974 9.45539 0.63974C9.45539 0.63974 4.06707 3.22728 3.95715 3.27784C3.84943 3.3262 3.95935 3.39436 3.97034 3.68455C3.98133 3.97474 4.19018 5.44108 4.20337 5.73127C4.21436 6.02146 4.24074 6.12919 4.24074 6.12919C4.24074 6.12919 5.86098 6.45455 6.40179 6.5205C6.9426 6.58646 8.48369 6.88324 8.48369 6.88324V6.88104Z" fill="url(#paint31_linear_48_214)"/>
<path style="mix-blend-mode:multiply" d="M8.40894 4.18358C8.40894 4.18358 8.50567 4.13081 8.67275 4.04288C8.50347 4.09564 8.44851 4.18358 8.28363 4.13961C7.83735 4.01869 7.224 3.93515 6.75353 3.84062C5.85438 3.65596 4.95523 3.50426 4.03849 3.3218C4.0187 3.3174 4.01211 3.29102 4.0231 3.27563C4.03409 3.26024 4.04509 3.24485 4.05388 3.22726C3.99892 3.25365 3.96374 3.27123 3.95715 3.27343C3.84943 3.3218 3.95935 3.38995 3.97034 3.68014C3.98133 3.97033 4.19018 5.43667 4.20337 5.72686C4.21436 6.01705 4.24074 6.12478 4.24074 6.12478C4.24074 6.12478 5.86098 6.45014 6.40179 6.51609C6.9426 6.58205 8.48369 6.87883 8.48369 6.87883L8.40894 4.18358Z" fill="url(#paint32_linear_48_214)"/>
<path style="mix-blend-mode:multiply" opacity="0.4" d="M8.41774 4.49357C8.40455 4.64746 8.38696 4.79695 8.36498 4.94204C8.26385 5.56639 8.01763 6.31605 7.27236 6.34683C6.76453 6.36882 6.28308 6.17096 5.79943 6.04565C5.45208 5.95551 5.05636 5.90715 4.78815 5.64334C4.55292 5.41251 4.48038 5.07615 4.41442 4.76617C4.3045 4.24515 4.1726 3.77029 3.91538 3.31522C3.89779 3.36798 3.96375 3.46031 3.97254 3.68235C3.98353 3.97254 4.19238 5.43889 4.20557 5.72908C4.21657 6.01927 4.24295 6.12699 4.24295 6.12699C4.24295 6.12699 5.86318 6.45236 6.40399 6.51831C6.9448 6.58426 8.48589 6.88105 8.48589 6.88105L8.41994 4.49357H8.41774Z" fill="url(#paint33_linear_48_214)"/>
<path style="mix-blend-mode:multiply" d="M12.6211 4.15939C12.6211 4.15939 12.4057 4.23414 11.5681 4.4232C11.1328 4.52213 10.4447 4.51114 9.8819 4.47817C11.3131 4.65844 12.5662 4.79913 13.4345 4.709C13.6852 4.68262 13.971 4.59468 14.2897 4.46497C13.1817 4.73758 12.6211 4.1572 12.6211 4.1572V4.15939Z" fill="url(#paint34_linear_48_214)"/>
<defs>
<radialGradient id="paint0_radial_48_214" cx="0" cy="0" r="1" gradientUnits="userSpaceOnUse" gradientTransform="translate(9.67233 4.05711) rotate(4.54) scale(7.25258)">
<stop stop-color="#B2E6B5"/>
<stop offset="1" stop-color="#92A961"/>
</radialGradient>
<radialGradient id="paint1_radial_48_214" cx="0" cy="0" r="1" gradientUnits="userSpaceOnUse" gradientTransform="translate(9.77313 2.70443) rotate(4.54) scale(6.97118)">
<stop stop-color="#B5D894"/>
<stop offset="0.83" stop-color="#B5D894"/>
<stop offset="1" stop-color="#92A961"/>
</radialGradient>
<linearGradient id="paint2_linear_48_214" x1="0.164028" y1="2.40453" x2="19.3091" y2="3.92474" gradientUnits="userSpaceOnUse">
<stop offset="0.2" stop-color="#92A961"/>
<stop offset="0.67" stop-color="#749649"/>
<stop offset="0.8" stop-color="white"/>
<stop offset="1" stop-color="#92A961"/>
</linearGradient>
<linearGradient id="paint3_linear_48_214" x1="0.166887" y1="2.53487" x2="19.2988" y2="4.05403" gradientUnits="userSpaceOnUse">
<stop offset="0.2" stop-color="#92A961"/>
<stop offset="0.67" stop-color="#749649"/>
<stop offset="0.8" stop-color="white"/>
<stop offset="1" stop-color="#92A961"/>
</linearGradient>
<linearGradient id="paint4_linear_48_214" x1="0.172461" y1="2.65884" x2="19.2913" y2="4.17695" gradientUnits="userSpaceOnUse">
<stop offset="0.2" stop-color="#92A961"/>
<stop offset="0.67" stop-color="#749649"/>
<stop offset="0.8" stop-color="white"/>
<stop offset="1" stop-color="#92A961"/>
</linearGradient>
<linearGradient id="paint5_linear_48_214" x1="0.178277" y1="2.78057" x2="19.2796" y2="4.29729" gradientUnits="userSpaceOnUse">
<stop offset="0.2" stop-color="#92A961"/>
<stop offset="0.67" stop-color="#749649"/>
<stop offset="0.8" stop-color="white"/>
<stop offset="1" stop-color="#92A961"/>
</linearGradient>
<linearGradient id="paint6_linear_48_214" x1="0.180624" y1="2.91748" x2="19.2688" y2="4.43316" gradientUnits="userSpaceOnUse">
<stop offset="0.2" stop-color="#92A961"/>
<stop offset="0.67" stop-color="#749649"/>
<stop offset="0.8" stop-color="white"/>
<stop offset="1" stop-color="#92A961"/>
</linearGradient>
<linearGradient id="paint7_linear_48_214" x1="0.186208" y1="3.04145" x2="19.2612" y2="4.55609" gradientUnits="userSpaceOnUse">
<stop offset="0.2" stop-color="#92A961"/>
<stop offset="0.67" stop-color="#749649"/>
<stop offset="0.8" stop-color="white"/>
<stop offset="1" stop-color="#92A961"/>
</linearGradient>
<linearGradient id="paint8_linear_48_214" x1="0.191619" y1="3.16759" x2="19.2534" y2="4.68118" gradientUnits="userSpaceOnUse">
<stop offset="0.2" stop-color="#92A961"/>
<stop offset="0.67" stop-color="#749649"/>
<stop offset="0.8" stop-color="white"/>
<stop offset="1" stop-color="#92A961"/>
</linearGradient>
<linearGradient id="paint9_linear_48_214" x1="0.195188" y1="3.28917" x2="19.2417" y2="4.80154" gradientUnits="userSpaceOnUse">
<stop offset="0.2" stop-color="#92A961"/>
<stop offset="0.67" stop-color="#749649"/>
<stop offset="0.8" stop-color="white"/>
<stop offset="1" stop-color="#92A961"/>
</linearGradient>
<linearGradient id="paint10_linear_48_214" x1="0.200841" y1="3.41311" x2="19.2342" y2="4.92444" gradientUnits="userSpaceOnUse">
<stop offset="0.2" stop-color="#92A961"/>
<stop offset="0.67" stop-color="#749649"/>
<stop offset="0.8" stop-color="white"/>
<stop offset="1" stop-color="#92A961"/>
</linearGradient>
<linearGradient id="paint11_linear_48_214" x1="0.206087" y1="3.54143" x2="19.2241" y2="5.05154" gradientUnits="userSpaceOnUse">
<stop offset="0.2" stop-color="#92A961"/>
<stop offset="0.67" stop-color="#749649"/>
<stop offset="0.8" stop-color="white"/>
<stop offset="1" stop-color="#92A961"/>
</linearGradient>
<linearGradient id="paint12_linear_48_214" x1="0.210189" y1="3.65644" x2="19.215" y2="5.1655" gradientUnits="userSpaceOnUse">
<stop offset="0.2" stop-color="#92A961"/>
<stop offset="0.67" stop-color="#749649"/>
<stop offset="0.8" stop-color="white"/>
<stop offset="1" stop-color="#92A961"/>
</linearGradient>
<linearGradient id="paint13_linear_48_214" x1="0.215721" y1="3.78038" x2="19.2074" y2="5.2884" gradientUnits="userSpaceOnUse">
<stop offset="0.2" stop-color="#92A961"/>
<stop offset="0.67" stop-color="#749649"/>
<stop offset="0.8" stop-color="white"/>
<stop offset="1" stop-color="#92A961"/>
</linearGradient>
<linearGradient id="paint14_linear_48_214" x1="0.219986" y1="3.92185" x2="19.1985" y2="5.42883" gradientUnits="userSpaceOnUse">
<stop offset="0.2" stop-color="#92A961"/>
<stop offset="0.67" stop-color="#749649"/>
<stop offset="0.8" stop-color="white"/>
<stop offset="1" stop-color="#92A961"/>
</linearGradient>
<linearGradient id="paint15_linear_48_214" x1="0.22316" y1="4.04781" x2="19.1886" y2="5.55374" gradientUnits="userSpaceOnUse">
<stop offset="0.2" stop-color="#92A961"/>
<stop offset="0.67" stop-color="#749649"/>
<stop offset="0.8" stop-color="white"/>
<stop offset="1" stop-color="#92A961"/>
</linearGradient>
<linearGradient id="paint16_linear_48_214" x1="0.228819" y1="4.17175" x2="19.1811" y2="5.67664" gradientUnits="userSpaceOnUse">
<stop offset="0.2" stop-color="#92A961"/>
<stop offset="0.67" stop-color="#749649"/>
<stop offset="0.8" stop-color="white"/>
<stop offset="1" stop-color="#92A961"/>
</linearGradient>
<linearGradient id="paint17_linear_48_214" x1="0.234185" y1="4.29788" x2="19.1711" y2="5.80155" gradientUnits="userSpaceOnUse">
<stop offset="0.2" stop-color="#92A961"/>
<stop offset="0.67" stop-color="#749649"/>
<stop offset="0.8" stop-color="white"/>
<stop offset="1" stop-color="#92A961"/>
</linearGradient>
<linearGradient id="paint18_linear_48_214" x1="0.240132" y1="4.41745" x2="19.1595" y2="5.91973" gradientUnits="userSpaceOnUse">
<stop offset="0.2" stop-color="#92A961"/>
<stop offset="0.67" stop-color="#749649"/>
<stop offset="0.8" stop-color="white"/>
<stop offset="1" stop-color="#92A961"/>
</linearGradient>
<linearGradient id="paint19_linear_48_214" x1="0.244118" y1="4.53464" x2="19.1547" y2="6.03622" gradientUnits="userSpaceOnUse">
<stop offset="0.2" stop-color="#92A961"/>
<stop offset="0.67" stop-color="#749649"/>
<stop offset="0.8" stop-color="white"/>
<stop offset="1" stop-color="#92A961"/>
</linearGradient>
<linearGradient id="paint20_linear_48_214" x1="0.249366" y1="4.66296" x2="19.1446" y2="6.16333" gradientUnits="userSpaceOnUse">
<stop offset="0.2" stop-color="#92A961"/>
<stop offset="0.67" stop-color="#749649"/>
<stop offset="0.8" stop-color="white"/>
<stop offset="1" stop-color="#92A961"/>
</linearGradient>
<linearGradient id="paint21_linear_48_214" x1="0.254555" y1="4.79129" x2="19.1323" y2="6.29026" gradientUnits="userSpaceOnUse">
<stop offset="0.2" stop-color="#92A961"/>
<stop offset="0.67" stop-color="#749649"/>
<stop offset="0.8" stop-color="white"/>
<stop offset="1" stop-color="#92A961"/>
</linearGradient>
<linearGradient id="paint22_linear_48_214" x1="0.25814" y1="4.91286" x2="19.1249" y2="6.41097" gradientUnits="userSpaceOnUse">
<stop offset="0.2" stop-color="#92A961"/>
<stop offset="0.67" stop-color="#749649"/>
<stop offset="0.8" stop-color="white"/>
<stop offset="1" stop-color="#92A961"/>
</linearGradient>
<linearGradient id="paint23_linear_48_214" x1="0.263051" y1="5.04557" x2="19.1167" y2="6.54263" gradientUnits="userSpaceOnUse">
<stop offset="0.2" stop-color="#92A961"/>
<stop offset="0.67" stop-color="#749649"/>
<stop offset="0.8" stop-color="white"/>
<stop offset="1" stop-color="#92A961"/>
</linearGradient>
<linearGradient id="paint24_linear_48_214" x1="13.5554" y1="4.84178" x2="19.2161" y2="5.29126" gradientUnits="userSpaceOnUse">
<stop offset="0.04" stop-color="white"/>
<stop offset="0.45" stop-color="#F7FFD7"/>
<stop offset="0.64" stop-color="#B4D996"/>
<stop offset="1" stop-color="#82A65E"/>
</linearGradient>
<linearGradient id="paint25_linear_48_214" x1="6.92764" y1="4.07293" x2="6.86338" y2="7.02078" gradientUnits="userSpaceOnUse">
<stop offset="0.1" stop-color="#B4D996"/>
<stop offset="0.82" stop-color="#627E0F"/>
</linearGradient>
<linearGradient id="paint26_linear_48_214" x1="0.206139" y1="1.87417" x2="19.3578" y2="3.3949" gradientUnits="userSpaceOnUse">
<stop offset="0.04" stop-color="#749649"/>
<stop offset="1" stop-color="#92A961"/>
</linearGradient>
<linearGradient id="paint27_linear_48_214" x1="0.206139" y1="1.87417" x2="19.3578" y2="3.3949" gradientUnits="userSpaceOnUse">
<stop offset="0.04" stop-color="#749649"/>
<stop offset="1" stop-color="#92A961"/>
</linearGradient>
<radialGradient id="paint28_radial_48_214" cx="0" cy="0" r="1" gradientUnits="userSpaceOnUse" gradientTransform="translate(4.42359 -1.19156) rotate(4.54) scale(17.8819)">
<stop offset="0.52" stop-color="#B2E6B5"/>
<stop offset="0.83" stop-color="#B5D894"/>
<stop offset="1" stop-color="#92A961"/>
</radialGradient>
<radialGradient id="paint29_radial_48_214" cx="0" cy="0" r="1" gradientUnits="userSpaceOnUse" gradientTransform="translate(9.73433 -5.97225) rotate(4.54) scale(12.0627)">
<stop offset="0.52" stop-color="#B2E6B5"/>
<stop offset="0.83" stop-color="#B5D894"/>
<stop offset="1" stop-color="#92A961"/>
</radialGradient>
<linearGradient id="paint30_linear_48_214" x1="9.39236" y1="0.612184" x2="7.87413" y2="7.67882" gradientUnits="userSpaceOnUse">
<stop offset="0.04" stop-color="#749649"/>
<stop offset="1" stop-color="#92A961"/>
</linearGradient>
<linearGradient id="paint31_linear_48_214" x1="9.20606" y1="0.5974" x2="7.69001" y2="7.66421" gradientUnits="userSpaceOnUse">
<stop offset="0.3" stop-color="#E7FFE7"/>
<stop offset="1" stop-color="#909E81"/>
</linearGradient>
<linearGradient id="paint32_linear_48_214" x1="7.34994" y1="-0.273345" x2="5.8317" y2="6.79329" gradientUnits="userSpaceOnUse">
<stop offset="0.3" stop-color="#E7FFE7"/>
<stop offset="1" stop-color="#909E81"/>
</linearGradient>
<linearGradient id="paint33_linear_48_214" x1="7.25238" y1="0.177633" x2="5.73634" y2="7.24444" gradientUnits="userSpaceOnUse">
<stop offset="0.3" stop-color="#E7FFE7"/>
<stop offset="1" stop-color="#909E81"/>
</linearGradient>
<linearGradient id="paint34_linear_48_214" x1="11.9963" y1="5.56263" x2="12.1256" y2="3.93433" gradientUnits="userSpaceOnUse">
<stop offset="0.55" stop-color="#749649"/>
<stop offset="0.91" stop-color="white"/>
</linearGradient>
</defs>
</svg>
