<svg width="91" height="66" viewBox="0 0 91 66" fill="none" xmlns="http://www.w3.org/2000/svg">
<path opacity="0.31" d="M72.6791 2.62C72.6791 4.07 71.5091 5.24 70.0591 5.24C68.6091 5.24 67.4391 4.07 67.4391 2.62C67.4391 1.17 68.6091 0 70.0591 0C71.5091 0 72.6791 1.17 72.6791 2.62Z" fill="url(#paint0_radial_48_65)"/>
<path opacity="0.31" d="M18.379 61.36C18.379 62.81 17.209 63.98 15.759 63.98C14.309 63.98 13.139 62.81 13.139 61.36C13.139 59.91 14.309 58.74 15.759 58.74C17.209 58.74 18.379 59.91 18.379 61.36Z" fill="url(#paint1_radial_48_65)"/>
<path opacity="0.31" d="M76.389 61.36C76.389 63.41 74.729 65.07 72.679 65.07C70.629 65.07 68.969 63.41 68.969 61.36C68.969 59.31 70.629 57.65 72.679 57.65C74.729 57.65 76.389 59.31 76.389 61.36Z" fill="url(#paint2_radial_48_65)"/>
<path opacity="0.31" d="M22.0891 4.12C22.0891 6.17 20.4291 7.83 18.3791 7.83C16.3291 7.83 14.6691 6.17 14.6691 4.12C14.6691 2.07 16.3291 0.410004 18.3791 0.410004C20.4291 0.410004 22.0891 2.07 22.0891 4.12Z" fill="url(#paint3_radial_48_65)"/>
<path d="M73.779 12.73C73.239 12.1 73.319 11.15 73.949 10.62L79.789 5.67003C80.419 5.13003 81.369 5.21003 81.899 5.84003C82.439 6.47003 82.359 7.42003 81.729 7.95003L75.889 12.9C75.259 13.44 74.309 13.36 73.779 12.73Z" fill="url(#paint4_radial_48_65)"/>
<path d="M78.2891 22.12C77.9591 21.36 78.3091 20.48 79.0691 20.15L86.0991 17.12C86.8591 16.79 87.7391 17.14 88.0691 17.9C88.3991 18.66 88.0491 19.54 87.2891 19.87L80.2591 22.9C79.4991 23.23 78.6191 22.88 78.2891 22.12Z" fill="url(#paint5_radial_48_65)"/>
<path d="M79.839 32.42C79.749 31.6 80.339 30.86 81.169 30.77L88.779 29.93C89.599 29.84 90.339 30.43 90.429 31.26C90.519 32.08 89.929 32.82 89.099 32.91L81.489 33.75C80.669 33.84 79.929 33.25 79.839 32.42Z" fill="url(#paint6_radial_48_65)"/>
<path d="M78.309 42.72C78.459 41.91 79.249 41.37 80.059 41.53L87.579 42.96C88.389 43.11 88.929 43.9 88.769 44.71C88.619 45.52 87.829 46.06 87.019 45.9L79.499 44.47C78.689 44.32 78.149 43.53 78.309 42.72Z" fill="url(#paint7_radial_48_65)"/>
<path d="M73.829 52.13C74.219 51.4 75.119 51.12 75.859 51.5L82.629 55.07C83.359 55.46 83.639 56.36 83.259 57.1C82.869 57.83 81.969 58.11 81.229 57.73L74.459 54.16C73.729 53.77 73.449 52.87 73.829 52.13Z" fill="url(#paint8_radial_48_65)"/>
<path d="M16.6691 12.73C17.2091 12.1 17.1291 11.15 16.4991 10.62L10.6591 5.67003C10.0291 5.13003 9.07905 5.21003 8.54905 5.84003C8.00905 6.47003 8.08906 7.42003 8.71906 7.95003L14.5591 12.9C15.1891 13.44 16.1391 13.36 16.6691 12.73Z" fill="url(#paint9_radial_48_65)"/>
<path d="M12.159 22.12C12.489 21.36 12.139 20.48 11.379 20.15L4.34904 17.12C3.58904 16.79 2.70904 17.14 2.37904 17.9C2.04904 18.66 2.39904 19.54 3.15904 19.87L10.189 22.9C10.949 23.23 11.829 22.88 12.159 22.12Z" fill="url(#paint10_radial_48_65)"/>
<path d="M10.6091 32.42C10.6991 31.6 10.1091 30.86 9.27907 30.77L1.66907 29.93C0.849066 29.84 0.109066 30.43 0.0190656 31.26H0.00906562C-0.0809344 32.08 0.509066 32.82 1.33907 32.91L8.94907 33.75C9.76907 33.84 10.5091 33.25 10.5991 32.42H10.6091Z" fill="url(#paint11_radial_48_65)"/>
<path d="M12.1391 42.72C11.9891 41.91 11.1991 41.37 10.3891 41.53L2.86911 42.96C2.05911 43.11 1.51911 43.9 1.67911 44.71C1.82911 45.52 2.61911 46.06 3.42911 45.9L10.9491 44.47C11.7591 44.32 12.2991 43.53 12.1391 42.72Z" fill="url(#paint12_radial_48_65)"/>
<path d="M16.6091 52.13C16.2191 51.4 15.3191 51.12 14.5791 51.5L7.80912 55.07C7.07912 55.46 6.79912 56.36 7.17912 57.1C7.56912 57.83 8.46912 58.11 9.20912 57.73L15.9791 54.16C16.7091 53.77 16.9891 52.87 16.6091 52.13Z" fill="url(#paint13_radial_48_65)"/>
<defs>
<radialGradient id="paint0_radial_48_65" cx="0" cy="0" r="1" gradientUnits="userSpaceOnUse" gradientTransform="translate(65.0491 -7.78) scale(12.74 12.74)">
<stop stop-color="#A6C5FF"/>
<stop offset="1" stop-color="#8C9EFF"/>
</radialGradient>
<radialGradient id="paint1_radial_48_65" cx="0" cy="0" r="1" gradientUnits="userSpaceOnUse" gradientTransform="translate(10.749 50.96) scale(12.74 12.74)">
<stop stop-color="#A6C5FF"/>
<stop offset="1" stop-color="#8C9EFF"/>
</radialGradient>
<radialGradient id="paint2_radial_48_65" cx="0" cy="0" r="1" gradientUnits="userSpaceOnUse" gradientTransform="translate(65.589 46.65) scale(18.01)">
<stop stop-color="#A6C5FF"/>
<stop offset="1" stop-color="#8C9EFF"/>
</radialGradient>
<radialGradient id="paint3_radial_48_65" cx="0" cy="0" r="1" gradientUnits="userSpaceOnUse" gradientTransform="translate(11.2891 -10.59) scale(18.01)">
<stop stop-color="#A6C5FF"/>
<stop offset="1" stop-color="#8C9EFF"/>
</radialGradient>
<radialGradient id="paint4_radial_48_65" cx="0" cy="0" r="1" gradientUnits="userSpaceOnUse" gradientTransform="translate(73.2105 -6.58528) rotate(-16.05) scale(27.62 27.62)">
<stop stop-color="#A6C5FF"/>
<stop offset="1" stop-color="#8C9EFF"/>
</radialGradient>
<radialGradient id="paint5_radial_48_65" cx="0" cy="0" r="1" gradientUnits="userSpaceOnUse" gradientTransform="translate(83.3958 3.48274) rotate(0.97) scale(27.62 27.62)">
<stop stop-color="#A6C5FF"/>
<stop offset="1" stop-color="#8C9EFF"/>
</radialGradient>
<radialGradient id="paint6_radial_48_65" cx="0" cy="0" r="1" gradientUnits="userSpaceOnUse" gradientTransform="translate(90.1724 16.0962) rotate(18) scale(27.62 27.62)">
<stop stop-color="#A6C5FF"/>
<stop offset="1" stop-color="#8C9EFF"/>
</radialGradient>
<radialGradient id="paint7_radial_48_65" cx="0" cy="0" r="1" gradientUnits="userSpaceOnUse" gradientTransform="translate(92.9692 30.1207) rotate(35.02) scale(27.62 27.62)">
<stop stop-color="#A6C5FF"/>
<stop offset="1" stop-color="#8C9EFF"/>
</radialGradient>
<radialGradient id="paint8_radial_48_65" cx="0" cy="0" r="1" gradientUnits="userSpaceOnUse" gradientTransform="translate(91.5613 44.3591) rotate(52.04) scale(27.62 27.62)">
<stop stop-color="#A6C5FF"/>
<stop offset="1" stop-color="#8C9EFF"/>
</radialGradient>
<radialGradient id="paint9_radial_48_65" cx="0" cy="0" r="1" gradientUnits="userSpaceOnUse" gradientTransform="translate(17.2095 -6.63555) rotate(-163.95) scale(27.62 27.62)">
<stop stop-color="#A6C5FF"/>
<stop offset="1" stop-color="#8C9EFF"/>
</radialGradient>
<radialGradient id="paint10_radial_48_65" cx="0" cy="0" r="1" gradientUnits="userSpaceOnUse" gradientTransform="translate(7.08275 3.43367) rotate(179.03) scale(27.62 27.62)">
<stop stop-color="#A6C5FF"/>
<stop offset="1" stop-color="#8C9EFF"/>
</radialGradient>
<radialGradient id="paint11_radial_48_65" cx="0" cy="0" r="1" gradientUnits="userSpaceOnUse" gradientTransform="translate(0.298401 16.1166) rotate(162) scale(27.62 27.62)">
<stop stop-color="#A6C5FF"/>
<stop offset="1" stop-color="#8C9EFF"/>
</radialGradient>
<radialGradient id="paint12_radial_48_65" cx="0" cy="0" r="1" gradientUnits="userSpaceOnUse" gradientTransform="translate(-2.47993 30.1155) rotate(144.98) scale(27.62 27.62)">
<stop stop-color="#A6C5FF"/>
<stop offset="1" stop-color="#8C9EFF"/>
</radialGradient>
<radialGradient id="paint13_radial_48_65" cx="0" cy="0" r="1" gradientUnits="userSpaceOnUse" gradientTransform="translate(-1.08332 44.3325) rotate(127.96) scale(27.62)">
<stop stop-color="#A6C5FF"/>
<stop offset="1" stop-color="#8C9EFF"/>
</radialGradient>
</defs>
</svg>
