<svg width="29" height="17" viewBox="0 0 29 17" fill="none" xmlns="http://www.w3.org/2000/svg">
<path d="M0.573486 1.06584L7.31405 6.00362L9.65767 1.2181L14.1183 6.55468L18.5082 1.1601L20.9155 5.90936L27.5924 0.877317L24.3708 15.3426L3.98625 15.3716L0.573486 1.06584Z" fill="#B3B4BD"/>
<path d="M27.0331 1.74744L24.0876 14.9801L4.26241 15.0091L1.13995 1.92871L7.44152 6.54021L9.73558 1.86345L14.1184 7.11302L18.4303 1.80545L20.7881 6.44595L27.026 1.74019M28.1376 0L26.6011 1.15287L21.0289 5.35108L19.0534 1.45741L18.5649 0.493053L17.8851 1.33414L14.1042 5.9819L10.2737 1.3994L9.57981 0.572812L9.09834 1.54442L7.17247 5.45984L1.55061 1.34139L0 0.203022L0.453147 2.10273L3.57561 15.1831L3.71014 15.7342H4.2695L24.0947 15.7052H24.6611L24.7886 15.1396L27.734 1.90696L28.1588 0.00725078L28.1376 0Z" fill="#777682"/>
<path d="M9.48741 12.4364C9.29141 12.4364 9.11741 12.3944 8.96541 12.3104C8.81341 12.2264 8.69541 12.1144 8.61141 11.9744C8.52741 11.8304 8.48541 11.6744 8.48541 11.5064C8.48541 11.3664 8.51941 11.2324 8.58741 11.1044C8.65541 10.9724 8.75141 10.8604 8.87541 10.7684L10.0754 9.92836C10.1434 9.88036 10.1954 9.83036 10.2314 9.77836C10.2674 9.72236 10.2854 9.66236 10.2854 9.59836C10.2854 9.53436 10.2694 9.48236 10.2374 9.44236C10.2094 9.39836 10.1714 9.36436 10.1234 9.34036C10.0754 9.31636 10.0194 9.30436 9.95541 9.30436H8.63541V8.23636H10.0514C10.3234 8.23636 10.5674 8.29836 10.7834 8.42236C10.9994 8.54236 11.1694 8.70436 11.2934 8.90836C11.4214 9.11236 11.4854 9.34036 11.4854 9.59236C11.4854 9.84036 11.4314 10.0624 11.3234 10.2584C11.2194 10.4504 11.0494 10.6184 10.8134 10.7624L10.0034 11.2784C9.99141 11.2824 9.98141 11.2904 9.97341 11.3024C9.96941 11.3104 9.96741 11.3184 9.96741 11.3264C9.96741 11.3424 9.97341 11.3544 9.98541 11.3624C9.99741 11.3664 10.0154 11.3684 10.0394 11.3684H11.5334V12.4364H9.48741ZM12.2895 12.4364V10.6484C12.2895 10.3804 12.3575 10.1424 12.4935 9.93436C12.6295 9.72236 12.8195 9.55636 13.0635 9.43636C13.3075 9.31636 13.5915 9.25636 13.9155 9.25636C14.2395 9.25636 14.5195 9.31636 14.7555 9.43636C14.9915 9.55636 15.1715 9.72236 15.2955 9.93436C15.4235 10.1424 15.4875 10.3804 15.4875 10.6484V12.4364H14.3355V10.7204C14.3355 10.6444 14.3175 10.5744 14.2815 10.5104C14.2455 10.4424 14.1935 10.3884 14.1255 10.3484C14.0615 10.3044 13.9835 10.2824 13.8915 10.2824C13.7995 10.2824 13.7175 10.3044 13.6455 10.3484C13.5775 10.3884 13.5255 10.4424 13.4895 10.5104C13.4535 10.5744 13.4355 10.6444 13.4355 10.7204V12.4364H12.2895ZM17.9544 12.5144C17.6944 12.5144 17.4584 12.4744 17.2464 12.3944C17.0384 12.3144 16.8584 12.2004 16.7064 12.0524C16.5544 11.9004 16.4364 11.7224 16.3524 11.5184C16.2724 11.3144 16.2324 11.0884 16.2324 10.8404C16.2324 10.5204 16.2984 10.2424 16.4304 10.0064C16.5624 9.77036 16.7384 9.58636 16.9584 9.45436C17.1824 9.32236 17.4324 9.25636 17.7084 9.25636C17.8204 9.25636 17.9224 9.26836 18.0144 9.29236C18.1104 9.31236 18.1984 9.34636 18.2784 9.39436C18.3584 9.44236 18.4284 9.50236 18.4884 9.57436H18.5244V8.05636H19.6764V10.8284C19.6764 11.1684 19.6044 11.4644 19.4604 11.7164C19.3164 11.9684 19.1144 12.1644 18.8544 12.3044C18.5984 12.4444 18.2984 12.5144 17.9544 12.5144ZM17.9544 11.5064C18.0624 11.5064 18.1564 11.4804 18.2364 11.4284C18.3204 11.3764 18.3844 11.3044 18.4284 11.2124C18.4764 11.1164 18.5004 11.0084 18.5004 10.8884C18.5004 10.7724 18.4764 10.6704 18.4284 10.5824C18.3844 10.4944 18.3204 10.4244 18.2364 10.3724C18.1564 10.3204 18.0624 10.2944 17.9544 10.2944C17.8504 10.2944 17.7564 10.3204 17.6724 10.3724C17.5884 10.4244 17.5224 10.4944 17.4744 10.5824C17.4304 10.6704 17.4084 10.7724 17.4084 10.8884C17.4084 11.0084 17.4304 11.1164 17.4744 11.2124C17.5224 11.3044 17.5884 11.3764 17.6724 11.4284C17.7564 11.4804 17.8504 11.5064 17.9544 11.5064Z" fill="#333954"/>
</svg>
