<svg width="29" height="17" viewBox="0 0 29 17" fill="none" xmlns="http://www.w3.org/2000/svg">
<path d="M0.573486 1.04836L7.31405 5.9052L9.65767 1.19813L14.1183 6.44722L18.5082 1.14108L20.9155 5.81248L27.5924 0.862934L24.3708 15.0911L3.98625 15.1196L0.573486 1.04836Z" fill="#733F19"/>
<path d="M27.0331 1.71879L24.0876 14.7345L4.26241 14.7631L1.13995 1.89709L7.44152 6.43299L9.73558 1.8329L14.1184 6.99641L18.4303 1.77585L20.7881 6.34027L27.026 1.71166M28.1376 0L26.6011 1.13397L21.0289 5.26336L19.0534 1.43352L18.5649 0.48497L17.8851 1.31227L14.1042 5.88383L10.2737 1.37646L9.57981 0.563421L9.09834 1.5191L7.17247 5.37033L1.55061 1.3194L0 0.199694L0.453147 2.06826L3.57561 14.9342L3.71014 15.4763H4.2695L24.0947 15.4477H24.6611L24.7886 14.8914L27.734 1.87569L28.1588 0.00713192L28.1376 0Z" fill="#CF7532"/>
<path d="M9.70579 12.3636V11.3016L11.1578 11.3076C11.2258 11.3076 11.2838 11.2976 11.3318 11.2776C11.3838 11.2536 11.4238 11.2216 11.4518 11.1816C11.4798 11.1376 11.4938 11.0836 11.4938 11.0196C11.4938 10.9596 11.4798 10.9096 11.4518 10.8696C11.4238 10.8256 11.3838 10.7936 11.3318 10.7736C11.2838 10.7496 11.2258 10.7376 11.1578 10.7376H9.91579V9.77164H11.1758C11.2358 9.77164 11.2898 9.76164 11.3378 9.74164C11.3858 9.72164 11.4238 9.69164 11.4518 9.65164C11.4798 9.61164 11.4938 9.56164 11.4938 9.50164C11.4938 9.44164 11.4798 9.39164 11.4518 9.35164C11.4238 9.31164 11.3858 9.28164 11.3378 9.26164C11.2898 9.24164 11.2358 9.23164 11.1758 9.23164H9.70579V8.16364H11.4458C11.7018 8.16364 11.9238 8.21764 12.1118 8.32564C12.3038 8.42964 12.4538 8.56764 12.5618 8.73964C12.6698 8.91164 12.7238 9.09964 12.7238 9.30364C12.7238 9.46364 12.6858 9.62364 12.6098 9.78364C12.5378 9.93964 12.4258 10.0776 12.2738 10.1976C12.3778 10.2696 12.4658 10.3536 12.5378 10.4496C12.6098 10.5456 12.6638 10.6496 12.6998 10.7616C12.7398 10.8696 12.7598 10.9876 12.7598 11.1156C12.7598 11.3556 12.7018 11.5696 12.5858 11.7576C12.4698 11.9456 12.3118 12.0936 12.1118 12.2016C11.9158 12.3096 11.6898 12.3636 11.4338 12.3636H9.70579ZM13.5047 12.3636V10.2216C13.5047 9.92564 13.5907 9.69164 13.7627 9.51964C13.9347 9.34764 14.1747 9.26164 14.4827 9.26164H15.4787V10.1316H14.8847C14.8167 10.1316 14.7607 10.1536 14.7167 10.1976C14.6767 10.2376 14.6567 10.2916 14.6567 10.3596V12.3636H13.5047ZM17.7754 12.4416C17.5154 12.4416 17.2794 12.4016 17.0674 12.3216C16.8594 12.2416 16.6794 12.1276 16.5274 11.9796C16.3754 11.8276 16.2574 11.6496 16.1734 11.4456C16.0934 11.2416 16.0534 11.0156 16.0534 10.7676C16.0534 10.4476 16.1194 10.1696 16.2514 9.93364C16.3834 9.69764 16.5594 9.51364 16.7794 9.38164C17.0034 9.24964 17.2534 9.18364 17.5294 9.18364C17.6414 9.18364 17.7434 9.19564 17.8354 9.21964C17.9314 9.23964 18.0194 9.27364 18.0994 9.32164C18.1794 9.36964 18.2494 9.42964 18.3094 9.50164H18.3454V7.98364H19.4974V10.7556C19.4974 11.0956 19.4254 11.3916 19.2814 11.6436C19.1374 11.8956 18.9354 12.0916 18.6754 12.2316C18.4194 12.3716 18.1194 12.4416 17.7754 12.4416ZM17.7754 11.4336C17.8834 11.4336 17.9774 11.4076 18.0574 11.3556C18.1414 11.3036 18.2054 11.2316 18.2494 11.1396C18.2974 11.0436 18.3214 10.9356 18.3214 10.8156C18.3214 10.6996 18.2974 10.5976 18.2494 10.5096C18.2054 10.4216 18.1414 10.3516 18.0574 10.2996C17.9774 10.2476 17.8834 10.2216 17.7754 10.2216C17.6714 10.2216 17.5774 10.2476 17.4934 10.2996C17.4094 10.3516 17.3434 10.4216 17.2954 10.5096C17.2514 10.5976 17.2294 10.6996 17.2294 10.8156C17.2294 10.9356 17.2514 11.0436 17.2954 11.1396C17.3434 11.2316 17.4094 11.3036 17.4934 11.3556C17.5774 11.4076 17.6714 11.4336 17.7754 11.4336Z" fill="#EEC9BD"/>
</svg>
