<svg width="37" height="21" viewBox="0 0 37 21" fill="none" xmlns="http://www.w3.org/2000/svg">
<path d="M0.746582 1.3548L9.52077 7.6313L12.5715 1.54835L18.3779 8.33176L24.0922 1.47462L27.2258 7.51149L35.9171 1.11517L31.7235 19.5023L5.18898 19.5391L0.746582 1.3548Z" fill="#FBE38A"/>
<path d="M35.1889 2.2212L31.3548 19.0415L5.54839 19.0783L1.48387 2.45161L9.68664 8.31336L12.6728 2.36866L18.3779 9.04147L23.9908 2.29493L27.0599 8.19355L35.1797 2.21198M36.6267 0L34.6267 1.46544L27.3733 6.80184L24.8018 1.85253L24.1659 0.626728L23.2811 1.69585L18.3594 7.60369L13.3733 1.7788L12.47 0.728111L11.8433 1.96313L9.33641 6.94009L2.01843 1.70507L0 0.258065L0.589862 2.67281L4.65438 19.2995L4.82949 20H5.5576L31.3641 19.9631H32.1014L32.2673 19.2442L36.1014 2.42396L36.6544 0.00921659L36.6267 0Z" fill="#FFB42A"/>
<path d="M11.4997 17V15.22H12.7697V11.78H11.5997V10H14.7797V15.22H15.9297V17H11.4997ZM17.1009 17V15.64H19.5209C19.5742 15.64 19.6176 15.63 19.6509 15.61C19.6842 15.5833 19.7109 15.5533 19.7309 15.52C19.7509 15.48 19.7609 15.44 19.7609 15.4C19.7609 15.36 19.7509 15.3233 19.7309 15.29C19.7109 15.25 19.6842 15.22 19.6509 15.2C19.6176 15.18 19.5742 15.17 19.5209 15.17H18.7409C18.4009 15.17 18.0909 15.1133 17.8109 15C17.5309 14.88 17.3076 14.6967 17.1409 14.45C16.9809 14.1967 16.9009 13.8733 16.9009 13.48C16.9009 13.1733 16.9742 12.8967 17.1209 12.65C17.2742 12.3967 17.4809 12.1967 17.7409 12.05C18.0009 11.8967 18.2876 11.82 18.6009 11.82H21.2309V13.18H19.0509C18.9842 13.18 18.9276 13.2033 18.8809 13.25C18.8409 13.2967 18.8209 13.35 18.8209 13.41C18.8209 13.47 18.8409 13.5233 18.8809 13.57C18.9276 13.6167 18.9842 13.64 19.0509 13.64H19.7709C20.1576 13.64 20.4909 13.7 20.7709 13.82C21.0576 13.9333 21.2776 14.1133 21.4309 14.36C21.5842 14.6067 21.6609 14.9267 21.6609 15.32C21.6609 15.6267 21.5809 15.9067 21.4209 16.16C21.2676 16.4133 21.0609 16.6167 20.8009 16.77C20.5409 16.9233 20.2476 17 19.9209 17H17.1009ZM24.7793 17C24.2726 17 23.8759 16.8567 23.5893 16.57C23.3026 16.2833 23.1593 15.8933 23.1593 15.4V10.62H25.0793V15.22C25.0793 15.2867 25.1026 15.3433 25.1493 15.39C25.1959 15.43 25.2526 15.45 25.3193 15.45H26.4493V17H24.7793ZM22.3793 13.28V11.82H26.4493V13.28H22.3793Z" fill="#683A3A"/>
</svg>
