<svg width="64" height="64" viewBox="0 0 64 64" fill="none" xmlns="http://www.w3.org/2000/svg">
<path d="M57.932 38.068C61.2833 23.7461 52.3898 9.41924 38.068 6.06799C23.7461 2.71674 9.41923 11.6102 6.06798 25.932C2.71673 40.2539 11.6102 54.5808 25.932 57.932C40.2539 61.2833 54.5808 52.3898 57.932 38.068Z" fill="url(#paint0_radial_48_11)"/>
<mask id="mask0_48_11" style="mask-type:luminance" maskUnits="userSpaceOnUse" x="5" y="21" width="33" height="32">
<path d="M25.3111 21.881C33.7444 23.8543 38.9812 32.2906 37.0078 40.7239C35.0345 49.1572 26.5982 54.394 18.1649 52.4207C9.7316 50.4473 4.49477 42.0111 6.46813 33.5778C8.44148 25.1444 16.8778 19.9076 25.3111 21.881Z" fill="white" stroke="white" stroke-width="0.15"/>
</mask>
<g mask="url(#mask0_48_11)">
<path d="M24.3548 45.4105L36.892 47.9457L24.3478 56.3877H18.7429L6.58323 48.1748L18.7283 45.4105H24.3548Z" fill="#352E7A" stroke="black" stroke-width="0.15"/>
<path d="M24.2956 42.1995V46.6465H24.2496L24.2729 46.7396C24.2772 46.7566 24.2838 46.7741 24.2879 46.7851C24.289 46.788 24.29 46.7904 24.2906 46.7923C24.2948 46.8041 24.2956 46.809 24.2956 46.8127C24.2956 46.9135 24.2358 47.0214 24.1018 47.1303C23.9686 47.2386 23.7711 47.3398 23.5205 47.4264C23.0199 47.5994 22.3232 47.7086 21.5494 47.7086C20.7753 47.7086 20.0787 47.6014 19.5781 47.4295C19.3275 47.3434 19.1302 47.2424 18.997 47.1338C18.8633 47.0248 18.8031 46.9159 18.8031 46.8127L18.8031 46.8128C18.8032 46.8128 18.8032 46.8119 18.8035 46.8099C18.8038 46.8077 18.8043 46.8048 18.8051 46.8013C18.8067 46.7943 18.8091 46.7863 18.8117 46.7784C18.8144 46.7705 18.817 46.7635 18.819 46.7584L18.8213 46.7526L18.8219 46.7512L18.822 46.751L18.822 46.751L18.822 46.751L18.822 46.751L18.822 46.7509L18.822 46.7509L18.8668 46.6465H18.8031V42.1995H24.2956Z" fill="white" stroke="black" stroke-width="0.15"/>
<path d="M28.9438 32.4014L28.9438 32.4014L27.4254 39.9606L27.4254 39.9606C26.9764 42.197 24.8931 43.7671 22.7111 43.7671H22.6945H20.3961C18.2142 43.7671 16.1307 42.1888 15.6818 39.9606L14.1633 32.4014C14.1633 32.4014 14.1633 32.4014 14.1633 32.4014C13.8637 30.9074 14.1088 29.4644 14.7535 28.3974C15.3974 27.3317 16.4389 26.6413 17.7408 26.6413H25.3664C26.6682 26.6413 27.7097 27.3337 28.3537 28.4005C28.9984 29.4686 29.2434 30.9116 28.9438 32.4014Z" fill="white" stroke="black" stroke-width="0.15"/>
<path d="M23.2635 27.2541L23.2761 27.2164L23.252 27.1848L20.8122 23.9826C22.7831 23.8251 24.3521 24.1884 25.5746 24.8706C26.8252 25.5686 27.7178 26.6029 28.3074 27.7652C29.4883 30.093 29.4488 32.9235 28.6438 34.5639L27.7624 36.1521C27.4984 35.9811 27.1756 35.7352 26.92 35.3573C26.6433 34.9483 26.442 34.3796 26.4868 33.5739L26.49 33.5161L26.4349 33.4983C26.058 33.3767 25.618 33.0818 25.1813 32.6627C24.7456 32.2448 24.3178 31.7078 23.9643 31.1087C23.2555 29.9074 22.8545 28.473 23.2635 27.2541Z" fill="#352E7A" stroke="black" stroke-width="0.15"/>
<path d="M29.8324 35.775L29.8325 35.7747C30.0441 34.9484 29.8987 34.3552 29.6407 34.0096C29.3807 33.6612 29.0138 33.5668 28.7532 33.7025L28.7531 33.7025C28.334 33.92 28.0363 34.3202 27.8274 34.7789C27.6187 35.237 27.5019 35.7459 27.4403 36.1691C27.4403 36.1692 27.4403 36.1692 27.4402 36.1692L27.366 36.1584C27.3496 36.2735 27.3319 36.3821 27.3153 36.4842C27.1893 37.2586 27.1241 37.6594 28.1211 37.652C29.1168 37.6354 29.6977 36.6148 29.9051 35.7933L29.8324 35.775ZM29.8324 35.775C29.7306 36.1781 29.5376 36.6277 29.2508 36.9769C28.9647 37.3253 28.5896 37.5691 28.1202 37.577L29.8324 35.775Z" fill="white" stroke="black" stroke-width="0.15"/>
<path d="M23.5651 27.5679C23.6205 27.7238 23.6462 27.8489 23.6421 27.9394C22.7369 29.854 21.2546 31.1738 19.7715 31.9991C18.2835 32.8271 16.8024 33.1533 15.9125 33.0882L15.8335 33.0825L15.832 33.1616C15.8155 34.0385 15.7202 34.6485 15.5273 35.0814C15.3472 35.4857 15.0805 35.7389 14.7017 35.9104C14.6929 35.8894 14.6822 35.8636 14.67 35.8334C14.6314 35.7382 14.5768 35.5987 14.5133 35.4221C14.3862 35.0688 14.2231 34.5674 14.0797 33.9752C13.7925 32.7892 13.5857 31.2462 13.8976 29.8017L13.8976 29.8016C14.2734 28.0506 14.9363 26.5618 16.0889 25.5248C17.2343 24.4941 18.8732 23.9011 21.2219 23.9521L21.2285 23.9605C21.2471 23.9842 21.2743 24.0191 21.309 24.0639C21.3783 24.1534 21.4772 24.2823 21.5957 24.4397C21.8327 24.7546 22.1475 25.1833 22.4594 25.6389C22.7715 26.0949 23.0796 26.5764 23.3037 26.9972C23.4157 27.2076 23.5059 27.4013 23.5651 27.5679Z" fill="#352E7A" stroke="black" stroke-width="0.15"/>
<path d="M23.2344 24.1754C23.6909 23.7749 24.1627 23.5408 24.5293 23.4057C24.7268 23.3329 24.8936 23.2889 25.0105 23.2632C25.0262 23.2598 25.041 23.2567 25.0548 23.2538L24.494 24.4474L23.2344 24.1754Z" fill="#352E7A" stroke="black" stroke-width="0.15"/>
<path d="M15.6829 36.1584L15.6087 36.169C15.6257 36.2882 15.6435 36.397 15.66 36.4985C15.6787 36.6134 15.6959 36.7188 15.7088 36.8191C15.7326 37.0052 15.7377 37.1493 15.7089 37.2597C15.6818 37.364 15.6242 37.4401 15.5102 37.493C15.3907 37.5484 15.2072 37.579 14.9288 37.577C14.4594 37.5691 14.0843 37.3253 13.7982 36.9769C13.5114 36.6277 13.3184 36.1781 13.2166 35.775L13.2165 35.7747C13.0048 34.9484 13.1503 34.3552 13.4083 34.0096C13.6683 33.6612 14.0351 33.5668 14.2958 33.7025L14.2959 33.7025C14.715 33.92 15.0126 34.3202 15.2216 34.7789C15.4303 35.237 15.5471 35.746 15.6087 36.1692L15.6829 36.1584ZM15.6829 36.1584C15.5585 35.3038 15.21 34.0923 14.3304 33.6359L13.1438 35.7933C13.3513 36.6148 13.9321 37.6354 14.9279 37.652C15.9249 37.6594 15.8597 37.2586 15.7337 36.4842C15.717 36.3821 15.6994 36.2735 15.6829 36.1584Z" fill="white" stroke="black" stroke-width="0.15"/>
<path d="M20.4755 50.7869L19.8202 48.758L21.5412 47.5028L23.27 48.758L22.6069 50.7869H20.4755Z" fill="white" stroke="black" stroke-width="0.15"/>
<path d="M22.5815 50.9367L23.9246 58.6944H19.149L20.484 50.9367H22.5815Z" fill="white" stroke="black" stroke-width="0.15"/>
</g>
<mask id="mask1_48_11" style="mask-type:luminance" maskUnits="userSpaceOnUse" x="27" y="21" width="32" height="32">
<path d="M46.3477 21.881C54.7811 23.8543 60.0179 32.2906 58.0445 40.7239C56.0712 49.1572 47.6349 54.394 39.2016 52.4207C30.7683 50.4473 25.5315 42.0111 27.5048 33.5778C29.4782 25.1444 37.9144 19.9076 46.3477 21.881Z" fill="white" stroke="white" stroke-width="0.15"/>
</mask>
<g mask="url(#mask1_48_11)">
<path d="M45.3915 45.4105L57.9287 47.9457L45.3844 56.3877H39.7795L27.6199 48.1748L39.765 45.4105H45.3915Z" fill="#352E7A" stroke="black" stroke-width="0.15"/>
<path d="M45.3323 42.1995V46.6465H45.2864L45.3097 46.7396C45.3139 46.7566 45.3205 46.7741 45.3247 46.7851C45.3258 46.788 45.3267 46.7904 45.3274 46.7923C45.3316 46.8041 45.3323 46.809 45.3323 46.8127C45.3323 46.9135 45.2726 47.0214 45.1386 47.1303C45.0053 47.2386 44.8079 47.3398 44.5572 47.4264C44.0566 47.5994 43.36 47.7086 42.5861 47.7086C41.8121 47.7086 41.1154 47.6014 40.6149 47.4295C40.3643 47.3434 40.1669 47.2424 40.0337 47.1338C39.9 47.0248 39.8399 46.9159 39.8399 46.8127L39.8399 46.8128C39.8399 46.8128 39.8399 46.8119 39.8402 46.8099C39.8405 46.8077 39.8411 46.8048 39.8419 46.8013C39.8435 46.7943 39.8458 46.7863 39.8485 46.7784C39.8511 46.7705 39.8537 46.7635 39.8557 46.7584L39.8581 46.7526L39.8586 46.7512L39.8587 46.751L39.8587 46.751L39.8587 46.751L39.8587 46.751L39.8587 46.7509L39.8588 46.7509L39.9035 46.6465H39.8399V42.1995H45.3323Z" fill="white" stroke="black" stroke-width="0.15"/>
<path d="M49.9805 32.4014L49.9805 32.4014L48.462 39.9606L48.462 39.9606C48.0131 42.197 45.9298 43.7671 43.7478 43.7671H43.7312H41.4327C39.2509 43.7671 37.1674 42.1888 36.7185 39.9606L35.2 32.4014C35.2 32.4014 35.2 32.4014 35.2 32.4014C34.9004 30.9074 35.1455 29.4644 35.7902 28.3974C36.4341 27.3317 37.4755 26.6413 38.7775 26.6413H46.4031C47.7049 26.6413 48.7464 27.3337 49.3903 28.4005C50.0351 29.4686 50.2801 30.9116 49.9805 32.4014Z" fill="white" stroke="black" stroke-width="0.15"/>
<path d="M44.3001 27.2541L44.3128 27.2164L44.2887 27.1848L41.8489 23.9826C43.8198 23.8251 45.3888 24.1884 46.6113 24.8706C47.8618 25.5686 48.7545 26.6029 49.3441 27.7652C50.525 30.093 50.4855 32.9235 49.6805 34.5639L48.7991 36.1521C48.5351 35.9811 48.2123 35.7352 47.9567 35.3573C47.68 34.9483 47.4787 34.3796 47.5234 33.5739L47.5266 33.5161L47.4716 33.4983C47.0947 33.3767 46.6547 33.0818 46.218 32.6627C45.7823 32.2448 45.3545 31.7078 45.001 31.1087C44.2922 29.9074 43.8912 28.473 44.3001 27.2541Z" fill="#352E7A" stroke="black" stroke-width="0.15"/>
<path d="M50.8691 35.775L50.8692 35.7747C51.0808 34.9484 50.9353 34.3552 50.6774 34.0096C50.4173 33.6612 50.0505 33.5668 49.7899 33.7025L49.7898 33.7025C49.3706 33.92 49.073 34.3202 48.8641 34.7789C48.6554 35.237 48.5386 35.7459 48.4769 36.1691C48.4769 36.1692 48.4769 36.1692 48.4769 36.1692L48.4027 36.1584C48.3863 36.2735 48.3686 36.3821 48.352 36.4842C48.226 37.2586 48.1608 37.6594 49.1578 37.652C50.1535 37.6354 50.7344 36.6148 50.9418 35.7933L50.8691 35.775ZM50.8691 35.775C50.7673 36.1781 50.5743 36.6277 50.2875 36.9769C50.0013 37.3253 49.6263 37.5691 49.1569 37.577L50.8691 35.775Z" fill="white" stroke="black" stroke-width="0.15"/>
<path d="M44.6018 27.5679C44.6572 27.7238 44.6828 27.8489 44.6788 27.9394C43.7736 29.854 42.2913 31.1738 40.8082 31.9991C39.3202 32.8271 37.8391 33.1533 36.9491 33.0882L36.8702 33.0825L36.8687 33.1616C36.8521 34.0385 36.7569 34.6485 36.564 35.0814C36.3839 35.4857 36.1172 35.7389 35.7384 35.9104C35.7296 35.8894 35.7189 35.8636 35.7066 35.8334C35.6681 35.7382 35.6135 35.5987 35.55 35.4221C35.4228 35.0688 35.2598 34.5674 35.1164 33.9752C34.8292 32.7892 34.6224 31.2462 34.9343 29.8017L34.9343 29.8016C35.3101 28.0506 35.9729 26.5618 37.1256 25.5248C38.271 24.4941 39.9099 23.9011 42.2586 23.9521L42.2652 23.9605C42.2838 23.9842 42.311 24.0191 42.3457 24.0639C42.415 24.1534 42.5139 24.2823 42.6324 24.4397C42.8693 24.7546 43.1842 25.1833 43.4961 25.6389C43.8082 26.0949 44.1163 26.5764 44.3403 26.9972C44.4524 27.2076 44.5426 27.4013 44.6018 27.5679Z" fill="#352E7A" stroke="black" stroke-width="0.15"/>
<path d="M44.2711 24.1754C44.7276 23.7749 45.1993 23.5408 45.5659 23.4057C45.7635 23.3329 45.9303 23.2889 46.0472 23.2632C46.0629 23.2598 46.0777 23.2567 46.0915 23.2538L45.5307 24.4474L44.2711 24.1754Z" fill="#352E7A" stroke="black" stroke-width="0.15"/>
<path d="M36.7196 36.1584L36.6454 36.169C36.6624 36.2882 36.6801 36.397 36.6967 36.4985C36.7154 36.6134 36.7326 36.7188 36.7455 36.8191C36.7693 37.0052 36.7743 37.1493 36.7456 37.2597C36.7184 37.364 36.6609 37.4401 36.5469 37.493C36.4274 37.5484 36.2439 37.579 35.9655 37.577C35.496 37.5691 35.121 37.3253 34.8349 36.9769C34.5481 36.6277 34.355 36.1781 34.2532 35.775L34.2532 35.7747C34.0415 34.9484 34.187 34.3552 34.445 34.0096C34.705 33.6612 35.0718 33.5668 35.3325 33.7025L35.3326 33.7025C35.7517 33.92 36.0493 34.3202 36.2583 34.7789C36.467 35.237 36.5838 35.746 36.6454 36.1692L36.7196 36.1584ZM36.7196 36.1584C36.5952 35.3038 36.2467 34.0923 35.3671 33.6359L34.1805 35.7933C34.388 36.6148 34.9688 37.6354 35.9645 37.652C36.9615 37.6594 36.8964 37.2586 36.7703 36.4842C36.7537 36.3821 36.7361 36.2735 36.7196 36.1584Z" fill="white" stroke="black" stroke-width="0.15"/>
<path d="M41.5122 50.7869L40.857 48.758L42.5779 47.5028L44.3068 48.758L43.6436 50.7869H41.5122Z" fill="white" stroke="black" stroke-width="0.15"/>
<path d="M43.6183 50.9367L44.9614 58.6944H40.1858L41.5208 50.9367H43.6183Z" fill="white" stroke="black" stroke-width="0.15"/>
</g>
<mask id="mask2_48_11" style="mask-type:luminance" maskUnits="userSpaceOnUse" x="5" y="5" width="54" height="54">
<path d="M38.0509 6.14102C52.3324 9.48284 61.2008 23.7694 57.859 38.0509C54.5172 52.3324 40.2306 61.2008 25.9491 57.859C11.6676 54.5172 2.79919 40.2306 6.141 25.9491C9.48282 11.6676 23.7694 2.79921 38.0509 6.14102Z" fill="white" stroke="white" stroke-width="0.15"/>
</mask>
<g mask="url(#mask2_48_11)">
<path d="M36.4281 45.9084L57.7444 50.219L36.4268 64.5653H26.9219L6.25803 50.6084L26.9074 45.9084H36.4281Z" fill="#352E7A" stroke="black" stroke-width="0.15"/>
<path d="M36.3746 40.481V48.1005H36.3115L36.3348 48.1937C36.3411 48.2189 36.3505 48.2439 36.3576 48.2627C36.3597 48.2684 36.3616 48.2735 36.3632 48.2779C36.371 48.2997 36.3746 48.3146 36.3746 48.3298C36.3746 48.5222 36.2604 48.7178 36.028 48.9066C35.7963 49.095 35.4564 49.2685 35.0297 49.4159C34.1769 49.7106 32.9935 49.8957 31.6813 49.8957C30.3689 49.8957 29.1855 49.714 28.3328 49.4211C27.906 49.2746 27.5663 49.1015 27.3346 48.9126C27.1025 48.7233 26.988 48.5261 26.988 48.3298C26.988 48.3151 26.9946 48.2869 27.0052 48.2553C27.0099 48.2411 27.0147 48.2283 27.0183 48.2191L27.0226 48.2084L27.0237 48.2057L27.024 48.2051L27.024 48.2051L27.024 48.2051L27.024 48.205L27.024 48.205L27.024 48.205L27.0688 48.1005H26.988V40.481H36.3746Z" fill="white" stroke="black" stroke-width="0.15"/>
<path d="M33.6167 43.234H29.7319C26.021 43.234 22.4772 40.5505 21.7133 36.7588L19.1468 23.9826C18.6382 21.4463 19.0536 18.9939 20.1508 17.1781C21.2471 15.3636 23.023 14.185 25.2441 14.185H38.1326C40.3536 14.185 42.1295 15.3671 43.2259 17.1834C44.323 19.001 44.7384 21.4533 44.2298 23.9825L41.6633 36.7588C40.8994 40.5644 37.3558 43.234 33.6447 43.234H33.6167Z" fill="white" stroke="black" stroke-width="0.15"/>
<path d="M34.5293 15.2559L34.542 15.2182L34.5179 15.1865L30.3369 9.69903C33.721 9.41282 36.4139 10.0289 38.5098 11.1986C40.6337 12.384 42.1491 14.1404 43.1496 16.1127C45.1523 20.0605 45.087 24.8624 43.718 27.651L42.2007 30.3848C41.7439 30.0931 41.1685 29.6665 40.7156 28.9971C40.2413 28.2959 39.8983 27.3236 39.9746 25.9509L39.9778 25.8931L39.9227 25.8753C39.2753 25.6664 38.5249 25.162 37.784 24.4511C37.0441 23.7413 36.3181 22.8299 35.7184 21.8134C34.5171 19.7775 33.8311 17.3366 34.5293 15.2559Z" fill="#352E7A" stroke="black" stroke-width="0.15"/>
<path d="M45.7313 29.687L45.7313 29.6867C46.0919 28.2792 45.8462 27.2592 45.3985 26.6596C44.9488 26.0571 44.3028 25.881 43.8331 26.1255L43.833 26.1255C43.1104 26.5005 42.6008 27.1885 42.2451 27.9693C41.8897 28.7495 41.6913 29.615 41.5867 30.3331C41.5867 30.3332 41.5867 30.3332 41.5867 30.3332L41.5125 30.3224C41.4847 30.5168 41.4548 30.7004 41.4268 30.873C41.2138 32.1819 41.1036 32.8592 42.7887 32.8468C44.4717 32.8188 45.4534 31.0938 45.804 29.7053L45.7313 29.687ZM45.7313 29.687C45.5579 30.3735 45.2289 31.141 44.738 31.7386C44.2479 32.3354 43.6008 32.7582 42.7878 32.7718L45.7313 29.687Z" fill="white" stroke="black" stroke-width="0.15"/>
<path d="M35.1369 15.7855C35.2332 16.0563 35.2793 16.2791 35.2695 16.4436C33.7344 19.6963 31.218 21.9372 28.7014 23.3376C26.1805 24.7404 23.6672 25.2956 22.1501 25.1848L22.0712 25.179L22.0697 25.2582C22.0417 26.742 21.8805 27.7816 21.5502 28.5231C21.2326 29.236 20.757 29.6769 20.0803 29.9718C20.0626 29.9302 20.0374 29.8699 20.0059 29.7923C19.9405 29.6309 19.848 29.3945 19.7403 29.0953C19.525 28.4969 19.2489 27.6475 19.0059 26.6444C18.5198 24.6367 18.1683 22.0198 18.6978 19.5674L18.6978 19.5674C19.3342 16.6022 20.4581 14.0741 22.4175 12.3111C24.3697 10.5547 27.161 9.54924 31.1534 9.64033L31.1797 9.6739C31.2111 9.71401 31.2572 9.77307 31.3158 9.84879C31.4331 10.0002 31.6005 10.2183 31.8008 10.4845C32.2017 11.0171 32.7343 11.7424 33.262 12.5134C33.79 13.2847 34.3119 14.1003 34.6919 14.8139C34.882 15.1708 35.0357 15.5006 35.1369 15.7855Z" fill="#352E7A" stroke="black" stroke-width="0.15"/>
<path d="M34.4188 10.0983C35.2197 9.37467 36.0553 8.95725 36.6999 8.71966C37.0364 8.59565 37.3206 8.52074 37.5202 8.47689C37.5895 8.46166 37.6486 8.45017 37.6962 8.44169L36.6876 10.5882L34.4188 10.0983Z" fill="#352E7A" stroke="black" stroke-width="0.15"/>
<path d="M21.6919 30.3331C21.7202 30.5316 21.7501 30.7154 21.7781 30.8873C21.81 31.083 21.8394 31.2633 21.8611 31.4324C21.9015 31.7475 21.9113 31.9998 21.86 32.1968C21.8104 32.3877 21.7029 32.5289 21.4959 32.625C21.2835 32.7235 20.9639 32.7753 20.4908 32.7718C19.6778 32.7582 19.0307 32.3354 18.5406 31.7386C18.0497 31.141 17.7207 30.3735 17.5473 29.687L17.5472 29.6867C17.1867 28.2792 17.4324 27.2592 17.88 26.6596C18.3298 26.0571 18.9758 25.881 19.4455 26.1255L19.4456 26.1255C20.1682 26.5005 20.6777 27.1885 21.0334 27.9693C21.3888 28.7495 21.5873 29.615 21.6919 30.3331ZM21.6919 30.3331C21.6918 30.3331 21.6918 30.3331 21.6918 30.333L21.7661 30.3224M21.6919 30.3331C21.6919 30.3332 21.6919 30.3332 21.6919 30.3332L21.7661 30.3224M21.7661 30.3224C21.5557 28.8779 20.9667 26.8303 19.4801 26.059L17.4746 29.7053C17.8252 31.0938 18.8069 32.8188 20.4899 32.8468C22.175 32.8592 22.0648 32.1819 21.8518 30.873C21.8237 30.7004 21.7939 30.5168 21.7661 30.3224Z" fill="white" stroke="black" stroke-width="0.15"/>
<path d="M29.8286 55.0987L28.698 51.598L31.6674 49.4323L34.6504 51.598L33.5062 55.0987H29.8286Z" fill="white" stroke="black" stroke-width="0.15"/>
<path d="M33.4694 55.2487L35.7575 68.4641H27.563L29.8372 55.2487H33.4694Z" fill="white" stroke="black" stroke-width="0.15"/>
</g>
<path fill-rule="evenodd" clip-rule="evenodd" d="M38.4618 3.76934C53.991 7.40024 63.6365 22.9325 60.0056 38.4617C56.3747 53.9909 40.8424 63.6364 25.3132 60.0055C9.78402 56.3746 0.138562 40.8423 3.76946 25.3131C7.40036 9.7839 22.9327 0.138439 38.4618 3.76934ZM38.068 6.06794C52.3899 9.41919 61.2833 23.7461 57.932 38.0679C54.5808 52.3898 40.2539 61.2832 25.932 57.932C11.6102 54.5807 2.71676 40.2538 6.06801 25.932C9.41926 11.6101 23.7461 2.71669 38.068 6.06794Z" fill="white"/>
<defs>
<radialGradient id="paint0_radial_48_11" cx="0" cy="0" r="1" gradientUnits="userSpaceOnUse" gradientTransform="translate(30.0511 -42.9788) scale(106.74)">
<stop stop-color="#FAFAFA"/>
<stop offset="1" stop-color="#8C9EFF"/>
</radialGradient>
</defs>
</svg>
