<svg width="300" height="113" viewBox="0 0 300 113" fill="none" xmlns="http://www.w3.org/2000/svg">
<rect y="6" width="300" height="105" rx="12" fill="#504D4D"/>
<rect x="135" y="16" width="31" height="85" rx="14" fill="white"/>
<g filter="url(#filter0_d_8_12)">
<path d="M43.7869 25.5455V91H35.8608V33.8551H35.4773L19.4972 44.4659V36.4119L35.8608 25.5455H43.7869ZM62.6115 91V85.2472L84.2166 61.5966C86.7521 58.8267 88.8402 56.419 90.4808 54.3736C92.1214 52.3068 93.3359 50.3679 94.1243 48.5568C94.934 46.7244 95.3388 44.8068 95.3388 42.804C95.3388 40.5028 94.7848 38.5107 93.6768 36.8274C92.5902 35.1442 91.0987 33.8445 89.2024 32.9283C87.3061 32.0121 85.1754 31.554 82.8104 31.554C80.2962 31.554 78.1016 32.076 76.2266 33.12C74.3729 34.1428 72.9347 35.581 71.9119 37.4347C70.9105 39.2884 70.4098 41.4616 70.4098 43.9545H62.8672C62.8672 40.1193 63.7514 36.7528 65.5199 33.8551C67.2884 30.9574 69.696 28.6989 72.7429 27.0795C75.8111 25.4602 79.2521 24.6506 83.0661 24.6506C86.9013 24.6506 90.2997 25.4602 93.2614 27.0795C96.223 28.6989 98.5455 30.8828 100.229 33.6314C101.912 36.38 102.754 39.4375 102.754 42.804C102.754 45.2116 102.317 47.5661 101.443 49.8672C100.591 52.147 99.0994 54.6932 96.9688 57.5057C94.8594 60.2969 91.9297 63.706 88.1797 67.733L73.478 83.4574V83.9688H103.904V91H62.6115Z" fill="white"/>
</g>
<g filter="url(#filter1_d_8_12)">
<path d="M202.125 91.8949C197.31 91.8949 193.208 90.5845 189.82 87.9638C186.433 85.3217 183.844 81.4972 182.054 76.4901C180.264 71.4616 179.369 65.3892 179.369 58.2727C179.369 51.1989 180.264 45.1584 182.054 40.1513C183.865 35.1229 186.464 31.2876 189.852 28.6456C193.261 25.9822 197.352 24.6506 202.125 24.6506C206.898 24.6506 210.978 25.9822 214.366 28.6456C217.775 31.2876 220.374 35.1229 222.164 40.1513C223.975 45.1584 224.881 51.1989 224.881 58.2727C224.881 65.3892 223.986 71.4616 222.196 76.4901C220.406 81.4972 217.817 85.3217 214.43 87.9638C211.042 90.5845 206.94 91.8949 202.125 91.8949ZM202.125 84.8636C206.898 84.8636 210.605 82.5625 213.247 77.9602C215.889 73.358 217.21 66.7955 217.21 58.2727C217.21 52.6051 216.603 47.7791 215.388 43.7947C214.195 39.8104 212.469 36.7741 210.211 34.6861C207.974 32.598 205.278 31.554 202.125 31.554C197.395 31.554 193.698 33.8871 191.035 38.5533C188.371 43.1982 187.04 49.7713 187.04 58.2727C187.04 63.9403 187.636 68.7557 188.83 72.7188C190.023 76.6818 191.738 79.6967 193.975 81.7635C196.234 83.8303 198.95 84.8636 202.125 84.8636ZM258.375 91.8949C253.56 91.8949 249.458 90.5845 246.07 87.9638C242.683 85.3217 240.094 81.4972 238.304 76.4901C236.514 71.4616 235.619 65.3892 235.619 58.2727C235.619 51.1989 236.514 45.1584 238.304 40.1513C240.115 35.1229 242.714 31.2876 246.102 28.6456C249.511 25.9822 253.602 24.6506 258.375 24.6506C263.148 24.6506 267.228 25.9822 270.616 28.6456C274.025 31.2876 276.624 35.1229 278.414 40.1513C280.225 45.1584 281.131 51.1989 281.131 58.2727C281.131 65.3892 280.236 71.4616 278.446 76.4901C276.656 81.4972 274.067 85.3217 270.68 87.9638C267.292 90.5845 263.19 91.8949 258.375 91.8949ZM258.375 84.8636C263.148 84.8636 266.855 82.5625 269.497 77.9602C272.139 73.358 273.46 66.7955 273.46 58.2727C273.46 52.6051 272.853 47.7791 271.638 43.7947C270.445 39.8104 268.719 36.7741 266.461 34.6861C264.224 32.598 261.528 31.554 258.375 31.554C253.645 31.554 249.948 33.8871 247.285 38.5533C244.621 43.1982 243.29 49.7713 243.29 58.2727C243.29 63.9403 243.886 68.7557 245.08 72.7188C246.273 76.6818 247.988 79.6967 250.225 81.7635C252.484 83.8303 255.2 84.8636 258.375 84.8636Z" fill="white"/>
</g>
<circle cx="150.5" cy="44.5" r="7.5" fill="#504D4D"/>
<circle cx="150.5" cy="71.5" r="7.5" fill="#504D4D"/>
<path d="M226 2C226 0.89543 226.895 0 228 0H275C276.105 0 277 0.895431 277 2V6H226V2Z" fill="black"/>
<defs>
<filter id="filter0_d_8_12" x="19.4972" y="24.6506" width="94.407" height="77.3494" filterUnits="userSpaceOnUse" color-interpolation-filters="sRGB">
<feFlood flood-opacity="0" result="BackgroundImageFix"/>
<feColorMatrix in="SourceAlpha" type="matrix" values="0 0 0 0 0 0 0 0 0 0 0 0 0 0 0 0 0 0 127 0" result="hardAlpha"/>
<feOffset dx="5" dy="6"/>
<feGaussianBlur stdDeviation="2.5"/>
<feComposite in2="hardAlpha" operator="out"/>
<feColorMatrix type="matrix" values="0 0 0 0 0 0 0 0 0 0 0 0 0 0 0 0 0 0 0.46 0"/>
<feBlend mode="normal" in2="BackgroundImageFix" result="effect1_dropShadow_8_12"/>
<feBlend mode="normal" in="SourceGraphic" in2="effect1_dropShadow_8_12" result="shape"/>
</filter>
<filter id="filter1_d_8_12" x="179.369" y="24.6506" width="111.761" height="78.2443" filterUnits="userSpaceOnUse" color-interpolation-filters="sRGB">
<feFlood flood-opacity="0" result="BackgroundImageFix"/>
<feColorMatrix in="SourceAlpha" type="matrix" values="0 0 0 0 0 0 0 0 0 0 0 0 0 0 0 0 0 0 127 0" result="hardAlpha"/>
<feOffset dx="5" dy="6"/>
<feGaussianBlur stdDeviation="2.5"/>
<feComposite in2="hardAlpha" operator="out"/>
<feColorMatrix type="matrix" values="0 0 0 0 0 0 0 0 0 0 0 0 0 0 0 0 0 0 0.46 0"/>
<feBlend mode="normal" in2="BackgroundImageFix" result="effect1_dropShadow_8_12"/>
<feBlend mode="normal" in="SourceGraphic" in2="effect1_dropShadow_8_12" result="shape"/>
</filter>
</defs>
</svg>
