<svg width="300" height="113" viewBox="0 0 300 113" fill="none" xmlns="http://www.w3.org/2000/svg">
<rect y="6" width="300" height="105" rx="12" fill="#504D4D"/>
<rect x="135" y="16" width="31" height="85" rx="14" fill="white"/>
<g filter="url(#filter0_d_8_13)">
<path d="M42.125 91.8949C37.3097 91.8949 33.2081 90.5845 29.8203 87.9638C26.4325 85.3217 23.8438 81.4972 22.054 76.4901C20.2642 71.4616 19.3693 65.3892 19.3693 58.2727C19.3693 51.1989 20.2642 45.1584 22.054 40.1513C23.8651 35.1229 26.4645 31.2876 29.8523 28.6456C33.2614 25.9822 37.3523 24.6506 42.125 24.6506C46.8977 24.6506 50.978 25.9822 54.3658 28.6456C57.7749 31.2876 60.3743 35.1229 62.1641 40.1513C63.9751 45.1584 64.8807 51.1989 64.8807 58.2727C64.8807 65.3892 63.9858 71.4616 62.196 76.4901C60.4062 81.4972 57.8175 85.3217 54.4297 87.9638C51.0419 90.5845 46.9403 91.8949 42.125 91.8949ZM42.125 84.8636C46.8977 84.8636 50.6051 82.5625 53.2472 77.9602C55.8892 73.358 57.2102 66.7955 57.2102 58.2727C57.2102 52.6051 56.603 47.7791 55.3885 43.7947C54.1953 39.8104 52.4695 36.7741 50.2109 34.6861C47.9737 32.598 45.2784 31.554 42.125 31.554C37.3949 31.554 33.6982 33.8871 31.0348 38.5533C28.3714 43.1982 27.0398 49.7713 27.0398 58.2727C27.0398 63.9403 27.6364 68.7557 28.8295 72.7188C30.0227 76.6818 31.7379 79.6967 33.9751 81.7635C36.2337 83.8303 38.9503 84.8636 42.125 84.8636ZM97.8636 24.6506C100.548 24.6719 103.233 25.1832 105.918 26.1847C108.602 27.1861 111.053 28.848 113.268 31.1705C115.484 33.4716 117.263 36.6143 118.606 40.5987C119.948 44.5831 120.619 49.5795 120.619 55.5881C120.619 61.4048 120.065 66.5717 118.957 71.0888C117.871 75.5845 116.294 79.3771 114.227 82.4666C112.182 85.5561 109.689 87.8999 106.749 89.4979C103.83 91.0959 100.527 91.8949 96.8409 91.8949C93.1761 91.8949 89.9055 91.1705 87.0291 89.7216C84.174 88.2514 81.8303 86.2166 79.9979 83.6172C78.1868 80.9964 77.0256 77.9602 76.5142 74.5085H84.3125C85.0156 77.5128 86.4112 79.995 88.4993 81.9553C90.6087 83.8942 93.3892 84.8636 96.8409 84.8636C101.891 84.8636 105.875 82.6584 108.794 78.2479C111.734 73.8374 113.205 67.6051 113.205 59.5511H112.693C111.5 61.3409 110.083 62.8857 108.442 64.1854C106.802 65.4851 104.98 66.4865 102.977 67.1896C100.974 67.8928 98.8438 68.2443 96.5852 68.2443C92.8352 68.2443 89.3942 67.3175 86.2621 65.4638C83.1513 63.5888 80.6584 61.0213 78.7834 57.7614C76.9297 54.4801 76.0028 50.7301 76.0028 46.5114C76.0028 42.5057 76.8977 38.8409 78.6875 35.517C80.4986 32.1719 83.0341 29.5085 86.294 27.527C89.5753 25.5455 93.4318 24.5866 97.8636 24.6506ZM97.8636 31.6818C95.179 31.6818 92.7607 32.353 90.6087 33.6953C88.478 35.0163 86.7841 36.8061 85.527 39.0646C84.2912 41.3018 83.6733 43.7841 83.6733 46.5114C83.6733 49.2386 84.2699 51.7209 85.4631 53.9581C86.6776 56.174 88.3288 57.9425 90.4169 59.2635C92.5263 60.5632 94.9233 61.2131 97.608 61.2131C99.6321 61.2131 101.518 60.8189 103.265 60.0305C105.012 59.2209 106.536 58.1236 107.835 56.7386C109.156 55.3324 110.19 53.745 110.935 51.9766C111.681 50.1868 112.054 48.3224 112.054 46.3835C112.054 43.8267 111.436 41.4297 110.2 39.1925C108.986 36.9553 107.303 35.1442 105.151 33.7592C103.02 32.3743 100.591 31.6818 97.8636 31.6818Z" fill="white"/>
</g>
<g filter="url(#filter1_d_8_13)">
<path d="M202.892 91.8949C198.673 91.8949 194.913 91.1705 191.61 89.7216C188.329 88.2727 185.719 86.2592 183.78 83.6811C181.862 81.0817 180.818 78.0668 180.648 74.6364H188.702C188.872 76.7457 189.597 78.5675 190.875 80.1016C192.153 81.6143 193.826 82.7862 195.893 83.6172C197.96 84.4482 200.25 84.8636 202.764 84.8636C205.577 84.8636 208.07 84.3736 210.243 83.3935C212.416 82.4134 214.121 81.0497 215.357 79.3026C216.592 77.5554 217.21 75.5312 217.21 73.2301C217.21 70.8224 216.614 68.7024 215.42 66.87C214.227 65.0163 212.48 63.5675 210.179 62.5234C207.878 61.4794 205.065 60.9574 201.741 60.9574H196.5V53.9261H201.741C204.341 53.9261 206.621 53.4574 208.581 52.5199C210.563 51.5824 212.107 50.2614 213.215 48.5568C214.344 46.8523 214.909 44.8494 214.909 42.5483C214.909 40.3324 214.419 38.4041 213.439 36.7635C212.459 35.1229 211.074 33.8445 209.284 32.9283C207.516 32.0121 205.428 31.554 203.02 31.554C200.761 31.554 198.631 31.9695 196.628 32.8004C194.646 33.6101 193.027 34.7926 191.77 36.348C190.513 37.8821 189.831 39.7358 189.724 41.9091H182.054C182.182 38.4787 183.215 35.4744 185.154 32.8963C187.093 30.2969 189.629 28.2727 192.761 26.8239C195.914 25.375 199.376 24.6506 203.148 24.6506C207.196 24.6506 210.669 25.4709 213.567 27.1115C216.464 28.7308 218.691 30.8722 220.246 33.5355C221.802 36.1989 222.58 39.0753 222.58 42.1648C222.58 45.8509 221.61 48.9936 219.671 51.593C217.754 54.1925 215.143 55.9929 211.841 56.9943V57.5057C215.974 58.1875 219.202 59.9453 221.525 62.7791C223.847 65.5916 225.009 69.0753 225.009 73.2301C225.009 76.7884 224.039 79.9844 222.1 82.8182C220.183 85.6307 217.562 87.8466 214.238 89.4659C210.914 91.0852 207.132 91.8949 202.892 91.8949ZM259.43 91.8949C254.614 91.8949 250.513 90.5845 247.125 87.9638C243.737 85.3217 241.148 81.4972 239.359 76.4901C237.569 71.4616 236.674 65.3892 236.674 58.2727C236.674 51.1989 237.569 45.1584 239.359 40.1513C241.17 35.1229 243.769 31.2876 247.157 28.6456C250.566 25.9822 254.657 24.6506 259.43 24.6506C264.202 24.6506 268.283 25.9822 271.67 28.6456C275.08 31.2876 277.679 35.1229 279.469 40.1513C281.28 45.1584 282.185 51.1989 282.185 58.2727C282.185 65.3892 281.29 71.4616 279.501 76.4901C277.711 81.4972 275.122 85.3217 271.734 87.9638C268.347 90.5845 264.245 91.8949 259.43 91.8949ZM259.43 84.8636C264.202 84.8636 267.91 82.5625 270.552 77.9602C273.194 73.358 274.515 66.7955 274.515 58.2727C274.515 52.6051 273.908 47.7791 272.693 43.7947C271.5 39.8104 269.774 36.7741 267.516 34.6861C265.278 32.598 262.583 31.554 259.43 31.554C254.7 31.554 251.003 33.8871 248.339 38.5533C245.676 43.1982 244.344 49.7713 244.344 58.2727C244.344 63.9403 244.941 68.7557 246.134 72.7188C247.327 76.6818 249.043 79.6967 251.28 81.7635C253.538 83.8303 256.255 84.8636 259.43 84.8636Z" fill="white"/>
</g>
<circle cx="150.5" cy="44.5" r="7.5" fill="#504D4D"/>
<circle cx="150.5" cy="71.5" r="7.5" fill="#504D4D"/>
<path d="M226 2C226 0.89543 226.895 0 228 0H275C276.105 0 277 0.895431 277 2V6H226V2Z" fill="black"/>
<defs>
<filter id="filter0_d_8_13" x="19.3693" y="24.5547" width="111.25" height="78.3402" filterUnits="userSpaceOnUse" color-interpolation-filters="sRGB">
<feFlood flood-opacity="0" result="BackgroundImageFix"/>
<feColorMatrix in="SourceAlpha" type="matrix" values="0 0 0 0 0 0 0 0 0 0 0 0 0 0 0 0 0 0 127 0" result="hardAlpha"/>
<feOffset dx="5" dy="6"/>
<feGaussianBlur stdDeviation="2.5"/>
<feComposite in2="hardAlpha" operator="out"/>
<feColorMatrix type="matrix" values="0 0 0 0 0 0 0 0 0 0 0 0 0 0 0 0 0 0 0.46 0"/>
<feBlend mode="normal" in2="BackgroundImageFix" result="effect1_dropShadow_8_13"/>
<feBlend mode="normal" in="SourceGraphic" in2="effect1_dropShadow_8_13" result="shape"/>
</filter>
<filter id="filter1_d_8_13" x="180.648" y="24.6506" width="111.538" height="78.2443" filterUnits="userSpaceOnUse" color-interpolation-filters="sRGB">
<feFlood flood-opacity="0" result="BackgroundImageFix"/>
<feColorMatrix in="SourceAlpha" type="matrix" values="0 0 0 0 0 0 0 0 0 0 0 0 0 0 0 0 0 0 127 0" result="hardAlpha"/>
<feOffset dx="5" dy="6"/>
<feGaussianBlur stdDeviation="2.5"/>
<feComposite in2="hardAlpha" operator="out"/>
<feColorMatrix type="matrix" values="0 0 0 0 0 0 0 0 0 0 0 0 0 0 0 0 0 0 0.46 0"/>
<feBlend mode="normal" in2="BackgroundImageFix" result="effect1_dropShadow_8_13"/>
<feBlend mode="normal" in="SourceGraphic" in2="effect1_dropShadow_8_13" result="shape"/>
</filter>
</defs>
</svg>
