<svg width="54" height="53" viewBox="0 0 54 53" fill="none" xmlns="http://www.w3.org/2000/svg">
<path d="M14.9053 52.4213C13.1172 52.2637 11.3169 51.8213 9.6136 51.2454C4.58253 49.53 1.87907 45.8507 1.31536 40.6498C0.915293 36.9523 0.721327 33.2305 0.497047 29.5087C0.272767 25.8172 0 22.1257 0 18.4342C0 15.2943 0.375813 12.1545 1.63053 9.20854C3.04893 5.89287 5.50387 3.65613 8.83773 2.359C11.5048 1.32247 14.3113 0.983 17.1239 0.655674C22.5187 0.0373937 27.9256 -0.186879 33.3446 0.170747C37.6059 0.449581 41.8429 0.952694 45.7829 2.72873C48.4257 3.92287 50.2988 5.91107 51.2323 8.7236C52.2749 11.8514 52.6628 15.0822 52.9295 18.3433C53.3356 23.3623 53.4447 28.3873 53.2144 33.4184C53.0568 36.7825 52.5113 40.074 51.1717 43.1653C49.0743 48.0085 45.6314 51.3667 40.2427 52.2395C38.3636 52.5426 36.4421 52.6457 34.5387 52.6941C31.7141 52.7669 28.8833 52.7123 26.0526 52.7123L14.9053 52.4213ZM27.5498 48.5419C31.514 48.3662 35.0419 48.2449 38.5697 48.0328C41.3398 47.8691 43.625 46.6871 45.3647 44.4807C47.7529 41.4499 48.5349 37.8675 48.7652 34.1639C49.141 28.1145 48.9531 22.0711 48.2803 16.0459C48.0378 13.8699 47.7045 11.7301 46.4679 9.83893C46.1405 9.3358 45.8799 8.7842 45.5769 8.26293C44.7888 6.9112 43.7644 5.70493 42.243 5.29273C38.8727 4.3714 35.3995 3.92287 31.9141 3.92893C28.0468 3.935 24.1674 4.01987 20.3183 4.34107C17.4149 4.58353 14.5235 5.14727 11.6745 5.77767C8.14067 6.5596 6.07367 8.96607 5.17053 12.3969C4.23093 15.9732 4.237 19.6283 4.45527 23.2895C4.6674 26.7871 4.9462 30.2845 5.20687 33.7821C5.3766 36.0006 5.4918 38.2252 5.7706 40.4316C6.207 43.8079 8.00127 46.184 11.3412 47.1478C12.9353 47.6085 14.5901 48.0146 16.2329 48.1177C20.1425 48.3662 24.0583 48.4207 27.5498 48.5419Z" fill="black"/>
<path d="M20.2943 37.8553C20.5974 36.6551 20.8277 35.6429 21.1066 34.6488C22.9796 27.9205 24.8647 21.1921 26.7378 14.4577C26.8893 13.9243 26.9984 13.3727 27.1499 12.8393C27.4833 11.6633 28.5926 11.0027 29.6534 11.33C30.7384 11.6633 31.2718 12.7787 30.9263 13.9607C28.8229 21.1557 26.7256 28.3508 24.6162 35.5398C24.3434 36.4673 24.0525 37.3947 23.6706 38.2797C23.1614 39.4677 21.8582 39.8496 21.0096 39.0677C20.658 38.7403 20.4944 38.2069 20.2943 37.8553Z" fill="black"/>
<path d="M11.2808 25.0657C12.2627 25.8718 13.1295 26.6053 14.0206 27.2963C15.1662 28.1813 16.3482 29.0299 17.4999 29.9088C18.2334 30.4665 18.591 31.2121 18.3424 32.1334C18.0272 33.3215 16.627 33.9701 15.5481 33.2609C12.881 31.5091 10.1715 29.7937 8.05603 27.3509C7.60136 26.8235 7.2983 26.1143 7.10436 25.4354C6.88003 24.6353 7.20736 23.8897 7.8499 23.3623C10.4079 21.259 12.978 19.1677 15.5663 17.1007C16.0694 16.7007 16.6634 16.3794 17.2574 16.1309C18.203 15.7369 19.1305 16.0521 19.5245 16.8159C19.9185 17.5796 19.6457 18.3615 18.8213 19.0162C16.3543 20.9923 13.8933 22.9744 11.2808 25.0657Z" fill="black"/>
<path d="M41.5942 25.0291C40.2182 23.9987 38.8968 22.9925 37.5572 22.0045C36.5631 21.271 35.5387 20.58 34.5688 19.8223C33.8354 19.2525 33.6838 18.3311 34.1203 17.6159C34.5749 16.8764 35.4902 16.6218 36.357 17.0219C36.6419 17.1552 36.9026 17.331 37.1572 17.5129C38.3149 18.3493 39.4787 19.1737 40.6122 20.0405C42.0124 21.1134 43.4006 22.2045 44.7704 23.3198C46.007 24.326 46.0979 25.5626 44.8856 26.587C41.8427 29.1631 38.7513 31.6908 35.6478 34.1882C34.6598 34.9823 33.4596 34.7883 32.8352 33.8791C32.2291 32.9941 32.4898 31.9151 33.496 31.1635C35.9751 29.3147 38.4543 27.4599 40.9274 25.605C41.1396 25.4535 41.3275 25.2655 41.5942 25.0291Z" fill="black"/>
</svg>
