<svg width="565" height="108" viewBox="0 0 565 108" fill="none" xmlns="http://www.w3.org/2000/svg">
<g clip-path="url(#clip0_36_2)">
<path d="M85.9546 6.90909V100H68.9545L28.4545 41.4091H27.7727V100H8.09091V6.90909H25.3636L65.5455 65.4545H66.3636V6.90909H85.9546ZM121.898 6.90909V100H102.216V6.90909H121.898ZM138.091 100V6.90909H174.818C181.848 6.90909 187.848 8.16666 192.818 10.6818C197.818 13.1667 201.621 16.697 204.227 21.2727C206.864 25.8182 208.182 31.1667 208.182 37.3182C208.182 43.5 206.848 48.8182 204.182 53.2727C201.515 57.697 197.652 61.0909 192.591 63.4545C187.561 65.8182 181.47 67 174.318 67H149.727V51.1818H171.136C174.894 51.1818 178.015 50.6667 180.5 49.6364C182.985 48.6061 184.833 47.0606 186.045 45C187.288 42.9394 187.909 40.3788 187.909 37.3182C187.909 34.2273 187.288 31.6212 186.045 29.5C184.833 27.3788 182.97 25.7727 180.455 24.6818C177.97 23.5606 174.833 23 171.045 23H157.773V100H138.091ZM188.364 57.6364L211.5 100H189.773L167.136 57.6364H188.364ZM255.091 100H222.091V6.90909H255.364C264.727 6.90909 272.788 8.77273 279.545 12.5C286.303 16.197 291.5 21.5151 295.136 28.4545C298.803 35.3939 300.636 43.697 300.636 53.3636C300.636 63.0606 298.803 71.3939 295.136 78.3636C291.5 85.3333 286.273 90.6818 279.455 94.4091C272.667 98.1364 264.545 100 255.091 100ZM241.773 83.1364H254.273C260.091 83.1364 264.985 82.1061 268.955 80.0455C272.955 77.9545 275.955 74.7273 277.955 70.3636C279.985 65.9697 281 60.303 281 53.3636C281 46.4848 279.985 40.8636 277.955 36.5C275.955 32.1364 272.97 28.9242 269 26.8636C265.03 24.803 260.136 23.7727 254.318 23.7727H241.773V83.1364ZM315.216 100V6.90909H377.943V23.1364H334.898V45.3182H374.716V61.5455H334.898V83.7727H378.125V100H315.216ZM444.091 33.6818C443.727 30.0151 442.167 27.1667 439.409 25.1364C436.652 23.1061 432.909 22.0909 428.182 22.0909C424.97 22.0909 422.258 22.5455 420.045 23.4545C417.833 24.3333 416.136 25.5606 414.955 27.1364C413.803 28.7121 413.227 30.5 413.227 32.5C413.167 34.1667 413.515 35.6212 414.273 36.8636C415.061 38.1061 416.136 39.1818 417.5 40.0909C418.864 40.9697 420.439 41.7424 422.227 42.4091C424.015 43.0455 425.924 43.5909 427.955 44.0455L436.318 46.0455C440.379 46.9545 444.106 48.1667 447.5 49.6818C450.894 51.197 453.833 53.0606 456.318 55.2727C458.803 57.4848 460.727 60.0909 462.091 63.0909C463.485 66.0909 464.197 69.5303 464.227 73.4091C464.197 79.1061 462.742 84.0455 459.864 88.2273C457.015 92.3788 452.894 95.6061 447.5 97.9091C442.136 100.182 435.667 101.318 428.091 101.318C420.576 101.318 414.03 100.167 408.455 97.8636C402.909 95.5606 398.576 92.1515 395.455 87.6364C392.364 83.0909 390.742 77.4697 390.591 70.7727H409.636C409.848 73.8939 410.742 76.5 412.318 78.5909C413.924 80.6515 416.061 82.2121 418.727 83.2727C421.424 84.303 424.47 84.8182 427.864 84.8182C431.197 84.8182 434.091 84.3333 436.545 83.3636C439.03 82.3939 440.955 81.0455 442.318 79.3182C443.682 77.5909 444.364 75.6061 444.364 73.3636C444.364 71.2727 443.742 69.5152 442.5 68.0909C441.288 66.6667 439.5 65.4545 437.136 64.4545C434.803 63.4545 431.939 62.5455 428.545 61.7273L418.409 59.1818C410.561 57.2727 404.364 54.2879 399.818 50.2273C395.273 46.1667 393.015 40.697 393.045 33.8182C393.015 28.1818 394.515 23.2576 397.545 19.0455C400.606 14.8333 404.803 11.5455 410.136 9.18182C415.47 6.81818 421.53 5.63636 428.318 5.63636C435.227 5.63636 441.258 6.81818 446.409 9.18182C451.591 11.5455 455.621 14.8333 458.5 19.0455C461.379 23.2576 462.864 28.1364 462.955 33.6818H444.091ZM477.466 100V6.90909H497.148V45.3182H537.102V6.90909H556.739V100H537.102V61.5455H497.148V100H477.466Z" fill="#EE9106"/>
</g>
<defs>
<clipPath id="clip0_36_2">
<rect width="565" height="108" fill="white"/>
</clipPath>
</defs>
</svg>
