<svg width="118" height="118" viewBox="0 0 118 118" fill="none" xmlns="http://www.w3.org/2000/svg">
<path d="M59 10.0299C31.9583 10.0299 9.83334 32.1057 9.83334 59.295C9.83334 83.8783 27.8283 104.282 51.33 107.97V73.5533H38.8417V59.295H51.33V48.4291C51.33 36.0882 58.6558 29.3032 69.915 29.3032C75.2742 29.3032 80.8792 30.2374 80.8792 30.2374V42.3816H74.6842C68.5875 42.3816 66.67 46.1674 66.67 50.0517V59.295H80.3383L78.1258 73.5533H66.67V107.97C78.2556 106.14 88.8058 100.229 96.4153 91.3025C104.025 82.3768 108.193 71.0242 108.167 59.295C108.167 32.1057 86.0417 10.0299 59 10.0299Z" fill="#413A3E"/>
</svg>
