<svg width="619" height="175" viewBox="0 0 619 175" fill="none" xmlns="http://www.w3.org/2000/svg">
<g clip-path="url(#clip0_36_2)">
<path d="M35.15 83.05L29.214 79.34L29.1921 79.3751L29.1706 79.4104L35.15 83.05ZM29.45 88.45L26.116 82.295L14.7529 88.45L26.116 94.605L29.45 88.45ZM35.15 94L29.1035 97.5271L29.1914 97.6778L29.2867 97.8239L35.15 94ZM39.8 151.45L34.8503 156.4L34.8503 156.4L39.8 151.45ZM48.5 153.85H55.5V146.85H48.5V153.85ZM48.5 165.1L49.5185 172.026L55.5 171.146V165.1H48.5ZM43.4 165.85L42.3815 158.924L42.3153 158.934L42.2492 158.945L43.4 165.85ZM28.55 160.9L23.6003 165.85L23.6361 165.886L23.6725 165.921L28.55 160.9ZM21.2 98.65L15.4654 102.664L15.5809 102.829L15.7058 102.988L21.2 98.65ZM15.5 94.45H8.5V99.4953L13.2864 101.091L15.5 94.45ZM15.5 82.45L13.2864 75.8092L8.5 77.4047V82.45H15.5ZM21.2 78.4L15.6 74.2L15.5822 74.2237L15.5646 74.2476L21.2 78.4ZM28.55 16.15L33.4997 21.0997L33.4998 21.0997L28.55 16.15ZM43.4 11.2L42.2492 18.1047L42.4151 18.1324L42.5821 18.1521L43.4 11.2ZM48.5 11.8H55.5V5.57523L49.3179 4.84793L48.5 11.8ZM48.5 23.05V30.05H55.5V23.05H48.5ZM39.8 25.45L34.8503 20.5002L34.8502 20.5002L39.8 25.45ZM30.4 75.4C30.4 76.7233 30.0538 77.9963 29.214 79.34L41.086 86.76C43.2462 83.3037 44.4 79.4767 44.4 75.4H30.4ZM29.1706 79.4104C28.4236 80.6376 27.4429 81.5762 26.116 82.295L32.784 94.605C36.2571 92.7238 39.0764 90.0624 41.1294 86.6896L29.1706 79.4104ZM26.116 94.605C27.367 95.2827 28.3376 96.2141 29.1035 97.5271L41.1965 90.4729C39.1624 86.9859 36.333 84.2173 32.784 82.295L26.116 94.605ZM29.2867 97.8239C30.0583 99.007 30.4 100.182 30.4 101.5H44.4C44.4 97.4178 43.2417 93.593 41.0133 90.1761L29.2867 97.8239ZM30.4 101.5V145.6H44.4V101.5H30.4ZM30.4 145.6C30.4 149.722 31.9134 153.463 34.8503 156.4L44.7497 146.5C44.5566 146.307 44.499 146.186 44.4762 146.131C44.4524 146.073 44.4 145.922 44.4 145.6H30.4ZM34.8503 156.4C37.7211 159.271 41.3851 160.85 45.5 160.85V146.85C45.2695 146.85 45.1749 146.813 45.1414 146.799C45.104 146.783 44.9722 146.723 44.7497 146.5L34.8503 156.4ZM45.5 160.85H48.5V146.85H45.5V160.85ZM41.5 153.85V165.1H55.5V153.85H41.5ZM47.4815 158.174L42.3815 158.924L44.4185 172.776L49.5185 172.026L47.4815 158.174ZM42.2492 158.945C42.2526 158.945 42.2268 158.949 42.1668 158.955C42.1075 158.962 42.024 158.969 41.9134 158.976C41.689 158.99 41.3882 159 41 159V173C42.1738 173 43.407 172.945 44.5508 172.755L42.2492 158.945ZM41 159C38.0548 159 35.6452 158.033 33.4275 155.879L23.6725 165.921C28.4548 170.567 34.3452 173 41 173V159ZM33.4997 155.95C31.4403 153.891 30.45 151.533 30.45 148.45H16.45C16.45 155.167 18.8597 161.109 23.6003 165.85L33.4997 155.95ZM30.45 148.45V105.25H16.45V148.45H30.45ZM30.45 105.25C30.45 101.232 29.2035 97.4909 26.6942 94.3125L15.7058 102.988C16.1965 103.609 16.45 104.268 16.45 105.25H30.45ZM26.9346 94.6358C24.6403 91.3582 21.4833 89.0658 17.7136 87.8092L13.2864 101.091C14.3167 101.434 14.9597 101.942 15.4654 102.664L26.9346 94.6358ZM22.5 94.45V82.45H8.5V94.45H22.5ZM17.7136 89.0908C21.3796 87.8688 24.516 85.7002 26.8354 82.5524L15.5646 74.2476C15.084 74.8998 14.4204 75.4312 13.2864 75.8092L17.7136 89.0908ZM26.8 82.6C29.2088 79.3883 30.45 75.6646 30.45 71.65H16.45C16.45 72.6354 16.1912 73.4117 15.6 74.2L26.8 82.6ZM30.45 71.65V28.6H16.45V71.65H30.45ZM30.45 28.6C30.45 25.5168 31.4403 23.1592 33.4997 21.0997L23.6003 11.2002C18.8597 15.9408 16.45 21.8832 16.45 28.6H30.45ZM33.4998 21.0997C35.5896 19.0099 37.9101 18.05 40.85 18.05V4.04999C34.1899 4.04999 28.3104 6.49006 23.6003 11.2003L33.4998 21.0997ZM40.85 18.05C41.3001 18.05 41.646 18.0604 41.9014 18.0754C42.1682 18.0911 42.2691 18.1081 42.2492 18.1047L44.5508 4.29525C43.3822 4.10046 42.0804 4.04999 40.85 4.04999V18.05ZM42.5821 18.1521L47.6821 18.752L49.3179 4.84793L44.2179 4.24794L42.5821 18.1521ZM41.5 11.8V23.05H55.5V11.8H41.5ZM48.5 16.05H45.5V30.05H48.5V16.05ZM45.5 16.05C41.3851 16.05 37.7211 17.6294 34.8503 20.5002L44.7497 30.3997C44.9721 30.1773 45.104 30.1172 45.1414 30.1014C45.1749 30.0873 45.2695 30.05 45.5 30.05V16.05ZM34.8502 20.5002C31.9134 23.4371 30.4 27.1778 30.4 31.3H44.4C44.4 30.9777 44.4524 30.8273 44.4762 30.7694C44.499 30.7138 44.5566 30.5929 44.7498 30.3997L34.8502 20.5002ZM30.4 31.3V75.4H44.4V31.3H30.4ZM138.863 46.4H145.863V39.4H138.863V46.4ZM138.863 139.072L133.772 143.877L145.863 156.687V139.072H138.863ZM76.5269 73.024L81.6176 68.2194L69.5269 55.4087V73.024H76.5269ZM76.5269 136V143H83.5269V136H76.5269ZM64.3669 136H57.3669V143H64.3669V136ZM64.3669 43.328L69.4573 38.5231L57.3669 25.7141V43.328H64.3669ZM126.831 109.504L121.74 114.309L133.831 127.118V109.504H126.831ZM126.831 46.4V39.4H119.831V46.4H126.831ZM131.863 46.4V139.072H145.863V46.4H131.863ZM143.954 134.267L81.6176 68.2194L71.4361 77.8286L133.772 143.877L143.954 134.267ZM69.5269 73.024V136H83.5269V73.024H69.5269ZM76.5269 129H64.3669V143H76.5269V129ZM71.3669 136V43.328H57.3669V136H71.3669ZM59.2764 48.1329L121.74 114.309L131.921 104.699L69.4573 38.5231L59.2764 48.1329ZM133.831 109.504V46.4H119.831V109.504H133.831ZM126.831 53.4H138.863V39.4H126.831V53.4ZM167.652 46.4H174.652V39.4H167.652V46.4ZM167.652 136V143H174.652V136H167.652ZM155.492 136H148.492V143H155.492V136ZM155.492 46.4V39.4H148.492V46.4H155.492ZM160.652 46.4V136H174.652V46.4H160.652ZM167.652 129H155.492V143H167.652V129ZM162.492 136V46.4H148.492V136H162.492ZM155.492 53.4H167.652V39.4H155.492V53.4ZM235.954 49.984L232.371 55.9977L232.399 56.0142L232.427 56.0304L235.954 49.984ZM245.682 59.712L239.635 63.2391L239.652 63.2669L239.668 63.2946L245.682 59.712ZM244.914 87.36L250.702 91.2962L250.72 91.2696L250.738 91.2429L244.914 87.36ZM233.394 96.832L230.636 90.398L223.92 93.2765L227.084 99.8631L233.394 96.832ZM252.21 136V143H263.338L258.52 132.969L252.21 136ZM238.77 136L232.465 139.042L234.375 143H238.77V136ZM221.106 99.392L227.41 96.35L225.501 92.392H221.106V99.392ZM196.402 99.392V92.392H189.402V99.392H196.402ZM196.402 136V143H203.402V136H196.402ZM184.242 136H177.242V143H184.242V136ZM184.242 46.4V39.4H177.242V46.4H184.242ZM232.37 61.76L227.351 66.6395L227.385 66.6749L227.42 66.7097L232.37 61.76ZM196.402 57.152V50.152H189.402V57.152H196.402ZM196.402 88.512H189.402V95.512H196.402V88.512ZM222.642 53.4C226.3 53.4 229.491 54.2816 232.371 55.9977L239.537 43.9703C234.396 40.9077 228.712 39.4 222.642 39.4V53.4ZM232.427 56.0304C235.48 57.8113 237.855 60.1861 239.635 63.2391L251.728 56.1849C248.731 51.0459 244.62 46.9353 239.481 43.9375L232.427 56.0304ZM239.668 63.2946C241.396 66.1952 242.266 69.3473 242.266 72.896H256.266C256.266 66.8873 254.746 61.2501 251.696 56.1294L239.668 63.2946ZM242.266 72.896C242.266 76.8216 241.215 80.289 239.09 83.4771L250.738 91.2429C254.415 85.727 256.266 79.5517 256.266 72.896H242.266ZM239.125 83.4238C236.981 86.5768 234.197 88.872 230.636 90.398L236.151 103.266C242.148 100.696 247.044 96.6766 250.702 91.2962L239.125 83.4238ZM227.084 99.8631L245.9 139.031L258.52 132.969L239.704 93.8009L227.084 99.8631ZM252.21 129H238.77V143H252.21V129ZM245.074 132.958L227.41 96.35L214.801 102.434L232.465 139.042L245.074 132.958ZM221.106 92.392H196.402V106.392H221.106V92.392ZM189.402 99.392V136H203.402V99.392H189.402ZM196.402 129H184.242V143H196.402V129ZM191.242 136V46.4H177.242V136H191.242ZM184.242 53.4H222.642V39.4H184.242V53.4ZM221.362 95.512C227.507 95.512 232.976 93.3251 237.32 88.9817L227.42 79.0823C225.79 80.7123 223.92 81.512 221.362 81.512V95.512ZM237.32 88.9817C241.707 84.5944 243.978 79.1009 243.978 72.896H229.978C229.978 75.3951 229.177 77.3256 227.42 79.0823L237.32 88.9817ZM243.978 72.896C243.978 66.6911 241.707 61.1976 237.32 56.8102L227.42 66.7097C229.177 68.4664 229.978 70.3969 229.978 72.896H243.978ZM237.389 56.8804C233.061 52.4289 227.571 50.152 221.362 50.152V64.152C223.857 64.152 225.705 64.947 227.351 66.6395L237.389 56.8804ZM221.362 50.152H196.402V64.152H221.362V50.152ZM189.402 57.152V88.512H203.402V57.152H189.402ZM196.402 95.512H221.362V81.512H196.402V95.512ZM312.864 52.032L309.49 58.1655L309.49 58.1655L312.864 52.032ZM328.992 67.904L322.924 71.3933L322.949 71.4384L322.976 71.4831L328.992 67.904ZM328.992 114.624L322.956 111.078L322.949 111.09L322.943 111.102L328.992 114.624ZM312.864 130.368L309.49 124.234L309.49 124.234L312.864 130.368ZM264.992 136H257.992V143H264.992V136ZM264.992 46.4V39.4H257.992V46.4H264.992ZM306.336 120L309.863 126.046L309.863 126.046L306.336 120ZM318.496 107.968L324.516 111.539L324.529 111.517L324.542 111.495L318.496 107.968ZM318.496 74.688L312.449 78.2151L312.462 78.2373L312.475 78.2594L318.496 74.688ZM306.336 62.528L302.809 68.5745L302.809 68.5745L306.336 62.528ZM277.024 58.048V51.048H270.024V58.048H277.024ZM277.024 124.48H270.024V131.48H277.024V124.48ZM290.208 53.4C297.382 53.4 303.762 55.0148 309.49 58.1655L316.237 45.8985C308.312 41.5398 299.589 39.4 290.208 39.4V53.4ZM309.49 58.1655C315.181 61.2953 319.63 65.6656 322.924 71.3933L335.06 64.4147C330.503 56.489 324.2 50.2781 316.237 45.8985L309.49 58.1655ZM322.976 71.4831C326.267 77.0154 328.008 83.515 328.008 91.2H342.008C342.008 81.3063 339.738 72.2753 335.008 64.3249L322.976 71.4831ZM328.008 91.2C328.008 98.8834 326.268 105.442 322.956 111.078L335.027 118.17C339.737 110.153 342.008 101.095 342.008 91.2H328.008ZM322.943 111.102C319.655 116.748 315.203 121.092 309.49 124.234L316.237 136.502C324.178 132.134 330.478 125.983 335.041 118.146L322.943 111.102ZM309.49 124.234C303.762 127.385 297.382 129 290.208 129V143C299.589 143 308.312 140.86 316.237 136.502L309.49 124.234ZM290.208 129H264.992V143H290.208V129ZM271.992 136V46.4H257.992V136H271.992ZM264.992 53.4H290.208V39.4H264.992V53.4ZM289.696 131.48C296.898 131.48 303.664 129.663 309.863 126.046L302.809 113.954C298.768 116.311 294.44 117.48 289.696 117.48V131.48ZM309.863 126.046C315.997 122.468 320.914 117.611 324.516 111.539L312.475 104.397C310.104 108.394 306.914 111.559 302.809 113.954L309.863 126.046ZM324.542 111.495C328.168 105.28 329.976 98.4693 329.976 91.2H315.976C315.976 96.0481 314.797 100.416 312.449 104.441L324.542 111.495ZM329.976 91.2C329.976 83.9968 328.158 77.2551 324.516 71.1166L312.475 78.2594C314.807 82.1902 315.976 86.4565 315.976 91.2H329.976ZM324.542 71.1609C320.947 64.9979 316.026 60.0766 309.863 56.4815L302.809 68.5745C306.886 70.9527 310.071 74.1381 312.449 78.2151L324.542 71.1609ZM309.863 56.4815C303.664 52.8653 296.898 51.048 289.696 51.048V65.048C294.44 65.048 298.768 66.2173 302.809 68.5745L309.863 56.4815ZM289.696 51.048H277.024V65.048H289.696V51.048ZM270.024 58.048V124.48H284.024V58.048H270.024ZM277.024 131.48H289.696V117.48H277.024V131.48ZM361.902 57.28V50.28H354.902V57.28H361.902ZM361.902 84.16H354.902V91.16H361.902V84.16ZM403.758 84.16H410.758V77.16H403.758V84.16ZM403.758 94.528V101.528H410.758V94.528H403.758ZM361.902 94.528V87.528H354.902V94.528H361.902ZM361.902 125.12H354.902V132.12H361.902V125.12ZM405.678 125.12H412.678V118.12H405.678V125.12ZM405.678 136V143H412.678V136H405.678ZM349.742 136H342.742V143H349.742V136ZM349.742 46.4V39.4H342.742V46.4H349.742ZM405.678 46.4H412.678V39.4H405.678V46.4ZM405.678 57.28V64.28H412.678V57.28H405.678ZM354.902 57.28V84.16H368.902V57.28H354.902ZM361.902 91.16H403.758V77.16H361.902V91.16ZM396.758 84.16V94.528H410.758V84.16H396.758ZM403.758 87.528H361.902V101.528H403.758V87.528ZM354.902 94.528V125.12H368.902V94.528H354.902ZM361.902 132.12H405.678V118.12H361.902V132.12ZM398.678 125.12V136H412.678V125.12H398.678ZM405.678 129H349.742V143H405.678V129ZM356.742 136V46.4H342.742V136H356.742ZM349.742 53.4H405.678V39.4H349.742V53.4ZM398.678 46.4V57.28H412.678V46.4H398.678ZM405.678 50.28H361.902V64.28H405.678V50.28ZM452.575 84.416L454.57 77.7062L454.546 77.6991L454.521 77.692L452.575 84.416ZM468.831 90.56L465.748 96.8445L465.796 96.8681L465.845 96.891L468.831 90.56ZM479.967 99.136L474.526 103.54L474.552 103.573L474.579 103.604L479.967 99.136ZM479.839 126.4L485.453 130.581L485.474 130.553L485.495 130.524L479.839 126.4ZM467.551 135.744L464.806 129.305L464.806 129.305L467.551 135.744ZM430.687 133.568L426.884 139.445L426.934 139.477L426.985 139.509L430.687 133.568ZM417.247 118.976L414.204 112.672L407.665 115.828L411.058 122.247L417.247 118.976ZM428.383 113.6L434.508 110.212L431.303 104.417L425.34 107.296L428.383 113.6ZM437.727 123.712L433.787 129.498L433.83 129.527L433.873 129.555L437.727 123.712ZM460.895 125.888L458.53 119.3L458.502 119.31L458.475 119.32L460.895 125.888ZM468.959 120.512L463.737 115.85L463.69 115.903L463.644 115.956L468.959 120.512ZM450.911 95.808L449.048 102.555L449.063 102.56L449.079 102.564L450.911 95.808ZM436.063 47.04L439.149 53.3229L439.193 53.3012L439.237 53.2789L436.063 47.04ZM470.623 48.192L466.965 54.1602L467.021 54.1946L467.078 54.228L470.623 48.192ZM482.399 60.48L485.347 66.8291L491.838 63.8152L488.681 57.3922L482.399 60.48ZM471.647 65.472L465.735 69.2208L469.024 74.4073L474.595 71.8211L471.647 65.472ZM463.583 57.536L459.933 63.509L460.029 63.568L460.128 63.6238L463.583 57.536ZM442.591 56.768L445.348 63.202L445.391 63.1836L445.434 63.1647L442.591 56.768ZM435.295 62.272L429.791 57.9472L429.78 57.9608L429.769 57.9744L435.295 62.272ZM437.727 78.656L434.125 84.6584L434.181 84.6919L434.238 84.7243L437.727 78.656ZM450.58 91.1258C456.628 92.9237 461.663 94.8407 465.748 96.8445L471.914 84.2755C466.953 81.842 461.151 79.663 454.57 77.7062L450.58 91.1258ZM465.845 96.891C469.496 98.6136 472.342 100.843 474.526 103.54L485.408 94.7316C481.789 90.2614 477.211 86.7731 471.817 84.229L465.845 96.891ZM474.579 103.604C476.289 105.667 477.319 108.368 477.319 112.192H491.319C491.319 105.605 489.448 99.6025 485.355 94.6676L474.579 103.604ZM477.319 112.192C477.319 116.181 476.242 119.452 474.183 122.276L485.495 130.524C489.409 125.156 491.319 118.955 491.319 112.192H477.319ZM474.225 122.219C472.071 125.111 469.025 127.506 464.806 129.305L470.296 142.183C476.488 139.544 481.633 135.71 485.453 130.581L474.225 122.219ZM464.806 129.305C460.575 131.108 455.723 132.072 450.143 132.072V146.072C457.363 146.072 464.116 144.817 470.296 142.183L464.806 129.305ZM450.143 132.072C444.34 132.072 439.142 130.589 434.389 127.627L426.985 139.509C434.008 143.885 441.78 146.072 450.143 146.072V132.072ZM434.49 127.691C429.668 124.571 426.02 120.595 423.436 115.705L411.058 122.247C414.788 129.304 420.101 135.056 426.884 139.445L434.49 127.691ZM420.29 125.28L431.426 119.904L425.34 107.296L414.204 112.672L420.29 125.28ZM422.258 116.988C425.038 122.015 428.925 126.188 433.787 129.498L441.666 117.926C438.507 115.775 436.165 113.207 434.508 110.212L422.258 116.988ZM433.873 129.555C438.952 132.906 444.547 134.68 450.527 134.68V120.68C447.461 120.68 444.523 119.809 441.581 117.869L433.873 129.555ZM450.527 134.68C454.971 134.68 459.25 133.954 463.315 132.456L458.475 119.32C456.054 120.212 453.422 120.68 450.527 120.68V134.68ZM463.26 132.476C467.587 130.923 471.341 128.489 474.274 125.068L463.644 115.956C462.48 117.314 460.859 118.464 458.53 119.3L463.26 132.476ZM474.18 125.174C477.538 121.413 479.159 116.818 479.159 111.808H465.159C465.159 113.625 464.646 114.832 463.737 115.85L474.18 125.174ZM479.159 111.808C479.159 105.565 475.781 100.653 471.058 97.0961C466.488 93.6554 460.195 91.0723 452.742 89.0518L449.079 102.564C455.792 104.384 460.123 106.387 462.636 108.28C464.995 110.056 465.159 111.224 465.159 111.808H479.159ZM452.774 89.0605C443.001 86.3617 436.397 83.2185 432.365 79.962C428.53 76.8656 427.319 73.9615 427.319 71.104H413.319C413.319 79.0838 417.206 85.7157 423.569 90.854C429.734 95.8322 438.426 99.6223 449.048 102.555L452.774 89.0605ZM427.319 71.104C427.319 67.3527 428.326 64.0005 430.385 60.8799L418.701 53.1681C415.128 58.5808 413.319 64.6153 413.319 71.104H427.319ZM430.385 60.8799C432.473 57.7161 435.334 55.1972 439.149 53.3229L432.977 40.7571C427.064 43.6615 422.245 47.7986 418.701 53.1681L430.385 60.8799ZM439.237 53.2789C443.027 51.3506 447.343 50.328 452.319 50.328V36.328C445.349 36.328 438.826 37.7801 432.889 40.801L439.237 53.2789ZM452.319 50.328C458.091 50.328 462.897 51.6672 466.965 54.1602L474.281 42.2238C467.767 38.2315 460.371 36.328 452.319 36.328V50.328ZM467.078 54.228C471.409 56.7717 474.313 59.8972 476.117 63.5678L488.681 57.3922C485.536 50.9934 480.589 45.9269 474.168 42.156L467.078 54.228ZM479.451 54.1309L468.699 59.1229L474.595 71.8211L485.347 66.8291L479.451 54.1309ZM477.558 61.7232C474.813 57.3934 471.327 53.8823 467.038 51.4482L460.128 63.6238C462.154 64.7737 464.044 66.5533 465.735 69.2208L477.558 61.7232ZM467.233 51.563C462.832 48.8737 457.745 47.72 452.319 47.72V61.72C455.767 61.72 458.19 62.4437 459.933 63.509L467.233 51.563ZM452.319 47.72C447.942 47.72 443.729 48.602 439.748 50.3713L445.434 63.1647C447.597 62.2034 449.869 61.72 452.319 61.72V47.72ZM439.833 50.334C435.846 52.0429 432.443 54.5721 429.791 57.9472L440.799 66.5967C441.902 65.1932 443.362 64.0531 445.348 63.202L439.833 50.334ZM429.769 57.9744C426.969 61.5746 425.607 65.795 425.607 70.336H439.607C439.607 68.733 440.036 67.5774 440.82 66.5696L429.769 57.9744ZM425.607 70.336C425.607 76.6719 428.95 81.553 434.125 84.6584L441.328 72.6535C439.677 71.6629 439.607 70.9974 439.607 70.336H425.607ZM434.238 84.7243C438.362 87.0957 443.929 89.2006 450.628 91.1399L454.521 77.692C448.25 75.8768 443.919 74.1416 441.216 72.5877L434.238 84.7243ZM562.781 46.4H569.781V39.4H562.781V46.4ZM562.781 136V143H569.781V136H562.781ZM550.621 136H543.621V143H550.621V136ZM550.621 94.528H557.621V87.528H550.621V94.528ZM509.277 94.528V87.528H502.277V94.528H509.277ZM509.277 136V143H516.277V136H509.277ZM497.117 136H490.117V143H497.117V136ZM497.117 46.4V39.4H490.117V46.4H497.117ZM509.277 46.4H516.277V39.4H509.277V46.4ZM509.277 84.032H502.277V91.032H509.277V84.032ZM550.621 84.032V91.032H557.621V84.032H550.621ZM550.621 46.4V39.4H543.621V46.4H550.621ZM555.781 46.4V136H569.781V46.4H555.781ZM562.781 129H550.621V143H562.781V129ZM557.621 136V94.528H543.621V136H557.621ZM550.621 87.528H509.277V101.528H550.621V87.528ZM502.277 94.528V136H516.277V94.528H502.277ZM509.277 129H497.117V143H509.277V129ZM504.117 136V46.4H490.117V136H504.117ZM497.117 53.4H509.277V39.4H497.117V53.4ZM502.277 46.4V84.032H516.277V46.4H502.277ZM509.277 91.032H550.621V77.032H509.277V91.032ZM557.621 84.032V46.4H543.621V84.032H557.621ZM550.621 53.4H562.781V39.4H550.621V53.4ZM587.397 25.45L592.347 20.5003L592.347 20.5002L587.397 25.45ZM578.547 23.05H571.547V30.05H578.547V23.05ZM578.547 11.8L577.729 4.84793L571.547 5.57523V11.8H578.547ZM583.647 11.2L584.465 18.1521L584.632 18.1324L584.798 18.1047L583.647 11.2ZM598.497 16.15L593.547 21.0997L593.583 21.1356L593.619 21.171L598.497 16.15ZM605.847 78.4L600.112 82.4142L600.228 82.5793L600.353 82.7375L605.847 78.4ZM611.547 82.45H618.547V77.4734L613.847 75.8385L611.547 82.45ZM611.547 94.45L613.847 101.061L618.547 99.4266V94.45H611.547ZM605.847 98.65L600.247 94.45L600.229 94.4737L600.211 94.4976L605.847 98.65ZM598.497 160.9L593.619 155.879L593.583 155.914L593.547 155.95L598.497 160.9ZM583.647 165.85L584.798 158.945L584.732 158.934L584.665 158.924L583.647 165.85ZM578.547 165.1H571.547V171.146L577.528 172.026L578.547 165.1ZM578.547 153.85V146.85H571.547V153.85H578.547ZM587.397 151.45L592.347 156.4L592.347 156.4L587.397 151.45ZM591.897 94L597.876 97.6396L597.91 97.5837L597.943 97.5271L591.897 94ZM597.597 88.45L600.931 94.605L612.294 88.45L600.931 82.295L597.597 88.45ZM591.897 83.05L585.85 86.5771L585.883 86.6337L585.917 86.6896L591.897 83.05ZM596.797 31.3C596.797 27.1778 595.283 23.4371 592.347 20.5003L582.447 30.3997C582.64 30.5929 582.698 30.7138 582.721 30.7694C582.744 30.8273 582.797 30.9777 582.797 31.3H596.797ZM592.347 20.5002C589.41 17.5634 585.669 16.05 581.547 16.05V30.05C581.869 30.05 582.02 30.1024 582.077 30.1262C582.133 30.149 582.254 30.2066 582.447 30.3997L592.347 20.5002ZM581.547 16.05H578.547V30.05H581.547V16.05ZM585.547 23.05V11.8H571.547V23.05H585.547ZM579.365 18.752L584.465 18.1521L582.829 4.24794L577.729 4.84793L579.365 18.752ZM584.798 18.1047C584.778 18.1081 584.879 18.0911 585.145 18.0754C585.401 18.0604 585.747 18.05 586.197 18.05V4.04999C584.966 4.04999 583.665 4.10046 582.496 4.29525L584.798 18.1047ZM586.197 18.05C589.137 18.05 591.457 19.0099 593.547 21.0997L603.447 11.2003C598.736 6.49006 592.857 4.04999 586.197 4.04999V18.05ZM593.619 21.171C595.756 23.2466 596.747 25.5827 596.747 28.6H610.747C610.747 21.8173 608.238 15.8534 603.374 11.129L593.619 21.171ZM596.747 28.6V71.65H610.747V28.6H596.747ZM596.747 71.65C596.747 75.5493 597.868 79.2078 600.112 82.4142L611.582 74.3858C611.026 73.5922 610.747 72.7506 610.747 71.65H596.747ZM600.353 82.7375C602.684 85.691 605.695 87.8261 609.247 89.0615L613.847 75.8385C612.798 75.4739 612.009 74.909 611.341 74.0625L600.353 82.7375ZM604.547 82.45V94.45H618.547V82.45H604.547ZM609.247 87.8385C605.595 89.1089 602.559 91.3672 600.247 94.45L611.447 102.85C612.135 101.933 612.899 101.391 613.847 101.061L609.247 87.8385ZM600.211 94.4976C597.871 97.6744 596.747 101.35 596.747 105.25H610.747C610.747 104.15 611.023 103.426 611.482 102.802L600.211 94.4976ZM596.747 105.25V148.45H610.747V105.25H596.747ZM596.747 148.45C596.747 151.467 595.756 153.803 593.619 155.879L603.374 165.921C608.238 161.197 610.747 155.233 610.747 148.45H596.747ZM593.547 155.95C591.457 158.04 589.137 159 586.197 159V173C592.857 173 598.736 170.56 603.447 165.85L593.547 155.95ZM586.197 159C585.747 159 585.401 158.99 585.145 158.975C584.879 158.959 584.778 158.942 584.798 158.945L582.496 172.755C583.665 172.95 584.966 173 586.197 173V159ZM584.665 158.924L579.565 158.174L577.528 172.026L582.628 172.776L584.665 158.924ZM585.547 165.1V153.85H571.547V165.1H585.547ZM578.547 160.85H581.547V146.85H578.547V160.85ZM581.547 160.85C585.669 160.85 589.41 159.337 592.347 156.4L582.447 146.5C582.254 146.693 582.133 146.751 582.077 146.774C582.02 146.798 581.869 146.85 581.547 146.85V160.85ZM592.347 156.4C595.283 153.463 596.797 149.722 596.797 145.6H582.797C582.797 145.922 582.744 146.073 582.721 146.131C582.698 146.186 582.64 146.307 582.447 146.5L592.347 156.4ZM596.797 145.6V101.5H582.797V145.6H596.797ZM596.797 101.5C596.797 100.08 597.146 98.8398 597.876 97.6396L585.917 90.3604C583.848 93.7602 582.797 97.5199 582.797 101.5H596.797ZM597.943 97.5271C598.709 96.2141 599.68 95.2827 600.931 94.605L594.263 82.295C590.714 84.2173 587.884 86.9859 585.85 90.4729L597.943 97.5271ZM600.931 82.295C599.604 81.5762 598.623 80.6376 597.876 79.4104L585.917 86.6896C587.97 90.0624 590.79 92.7238 594.263 94.605L600.931 82.295ZM597.943 79.5229C597.149 78.1609 596.797 76.8234 596.797 75.4H582.797C582.797 79.3766 583.845 83.1391 585.85 86.5771L597.943 79.5229ZM596.797 75.4V31.3H582.797V75.4H596.797Z" fill="url(#paint0_linear_36_2)"/>
</g>
<defs>
<linearGradient id="paint0_linear_36_2" x1="25.7907" y1="23.0879" x2="635.709" y2="139.659" gradientUnits="userSpaceOnUse">
<stop stop-color="#093028"/>
<stop offset="1" stop-color="#237A57"/>
</linearGradient>
<clipPath id="clip0_36_2">
<rect width="619" height="175" fill="white"/>
</clipPath>
</defs>
</svg>
