<svg width="800" height="800" viewBox="0 0 800 800" fill="none" xmlns="http://www.w3.org/2000/svg">
<g clip-path="url(#clip0_28_2)">
<path d="M400.008 0C179.08 0 0 179.08 0 399.994C0 620.922 179.08 800 400.008 800C620.922 800 800 620.922 800 399.994C800 179.08 620.922 0 400.008 0ZM292.291 317.362C292.291 317.934 292.045 318.439 291.609 318.794L179.027 402.516L291.609 486.278C292.045 486.578 292.291 487.123 292.291 487.669V539.341C292.291 539.981 291.977 540.553 291.459 540.853C291.228 540.977 290.997 541.056 290.723 541.056C290.423 541.056 290.111 540.947 289.852 540.744L127.709 420.147C127.288 419.833 127.014 419.302 127.014 418.744V386.298C127.014 385.727 127.286 385.195 127.709 384.881L289.852 264.287C290.111 264.083 290.423 263.987 290.723 263.987C290.995 263.987 291.228 264.056 291.459 264.191C291.978 264.477 292.291 265.05 292.291 265.703V317.362ZM372.686 563.131C372.455 563.827 371.883 564.289 371.2 564.289H325.878C325.361 564.289 324.897 564.016 324.597 563.552C324.311 563.117 324.228 562.544 324.392 562.027L427.314 236.842C427.519 236.159 428.117 235.711 428.786 235.711H474.12C474.611 235.711 475.102 235.97 475.387 236.42C475.673 236.87 475.756 237.442 475.592 237.973L372.686 563.131ZM672.959 418.744C672.959 419.302 672.716 419.834 672.278 420.147L510.136 540.742C509.877 540.945 509.578 541.055 509.264 541.055C509.005 541.055 508.761 540.973 508.528 540.852C508.011 540.552 507.697 539.98 507.697 539.339V487.68C507.697 487.122 507.942 486.577 508.378 486.277L620.961 402.514L508.378 318.792C507.944 318.466 507.697 317.948 507.697 317.377V265.703C507.697 265.05 508.011 264.477 508.528 264.191C508.759 264.056 509.005 263.987 509.264 263.987C509.578 263.987 509.877 264.083 510.136 264.287L672.278 384.881C672.716 385.195 672.959 385.727 672.959 386.298V418.744Z" fill="white"/>
</g>
<defs>
<clipPath id="clip0_28_2">
<rect width="800" height="800" fill="white"/>
</clipPath>
</defs>
</svg>
